M48
;Layer_Color=9474304
;FILE_FORMAT=2:5
INCH,TZ
;TYPE=PLATED
T1F00S00C0.01181
T2F00S00C0.04331
%
T01
X377953Y342520
X381890
X385827
X389764
X393701
X397638
X401575
X405512
X409449
X413386
X417323
X421260
X425197
X427166Y346457
X435039Y350394
X440945Y350394
X444882Y349902
X442914Y354331
X440945Y358268
X444882
X446851Y362205
X442914
X440945Y366142
X444882
X446851Y370079
X442914
X440945Y374016
X444882
X446851Y377953
X442914
X440945Y381890
X444882
X446851Y385827
X442914
X440945Y389764
X444882
X448819
X456693
X458661Y383858
Y379921
Y368110
X458662Y362205
X460630Y360236
X460630Y350394
X464567
X468504
X466536Y346457
X462599
X458662
X454725
X454232Y349902
X456693Y350394
Y342520
X460630
X464567
X468504
X466536Y338583
X462599
X458662
X454725
X452756Y334646
X456693
X460630
X464567
X468504
X448819
X444882
X440945
X437008
X433071
X429134
X425197
X423229Y338583
X421260Y358268
X425197
X413386
X417323Y370079
X413386Y374016
X409449
X405512
X401575
X397638
X393701
X389764
X391733Y377953
X395670
X399606
X403544
X407480
X411417
X415355
X419292
X423229
X421260Y374016
X428706Y373836
X429134Y389764
X433071
X437008
X438977Y393701
Y401575
X446851
X448819Y397638
X460630
X464567
X466536Y393701
X462599
X464567Y389764
X468504
X466536Y385827
X468504Y377953
X458662Y401575
X427166
X425197Y397638
X421260
X423229Y393701
X427166
X419292
X415355
X411417
X407480
X403544
X399606
X395670
X391733
X387795
X383858
X379922
X377953Y389764
X381890
X385827
X389764
X393701
X397638
X405512
X409449
X413386
X417323Y387795
X415355Y385827
X419292
X405512Y381890
X393701
X389764
X391733Y385827
X387795
Y377953
X379922
X377953Y381890
X379922Y385827
X377953Y374016
Y366142
Y358268
Y350394
X379922Y346457
X383858
X387795
X391733
X395670
X393701Y358268
X397638
X389764
Y366142
X393701
X405512
Y350394
X472441
X476378
X480315
X484252
X486221Y346457
X482284
X478347
X474410
X470473
X472441Y342520
X476378
X480315
X484252
X486221Y338583
X482284
X478347
X474410
X470473
X472441Y334646
X476378
X480315
X484252
X473352Y360667
X471974Y367644
X470473Y385827
X474410
X478347
X482284
X486221
X484252Y389764
X480315
X476378
X472441
X474410Y393701
X478347
X482284
X486221
X470473
T02
X383858Y352047
Y362047
Y372047
Y382047
X400512Y384842
X410512Y384842
X410433Y368110
X400433Y368110
X400512Y350394
X410512
X433898Y397638
X443898
X453898
M30
