G04*
G04 #@! TF.GenerationSoftware,Altium Limited,Altium Designer,22.6.1 (34)*
G04*
G04 Layer_Color=8388736*
%FSLAX25Y25*%
%MOIN*%
G70*
G04*
G04 #@! TF.SameCoordinates,6A0AF7E6-2655-45A2-AC58-E928B373DE11*
G04*
G04*
G04 #@! TF.FilePolarity,Negative*
G04*
G01*
G75*
%ADD13R,0.10642X0.03162*%
%ADD14R,0.03556X0.04147*%
%ADD15R,0.05131X0.05131*%
%ADD16R,0.04343X0.04737*%
%ADD17O,0.09461X0.03162*%
%ADD18R,0.04147X0.03556*%
%ADD19R,0.05131X0.05131*%
%ADD20R,0.05118X0.04331*%
%ADD21R,0.07099X0.07099*%
%ADD22C,0.07099*%
%ADD23R,0.07099X0.07099*%
D13*
X481299Y354331D02*
D03*
Y358268D02*
D03*
Y362205D02*
D03*
Y366142D02*
D03*
Y370079D02*
D03*
Y374016D02*
D03*
Y377953D02*
D03*
Y381890D02*
D03*
D14*
X468799D02*
D03*
X464272D02*
D03*
D15*
X470079Y374016D02*
D03*
X462992D02*
D03*
D16*
X469685Y364173D02*
D03*
X463386D02*
D03*
Y356299D02*
D03*
X469685D02*
D03*
D17*
X452756Y356142D02*
D03*
Y361142D02*
D03*
Y366142D02*
D03*
X452756Y371142D02*
D03*
X452756Y376142D02*
D03*
Y381142D02*
D03*
Y386142D02*
D03*
X433858Y356142D02*
D03*
Y361142D02*
D03*
Y366142D02*
D03*
X433858Y371142D02*
D03*
X433858Y376142D02*
D03*
Y381142D02*
D03*
Y386142D02*
D03*
D18*
X423228Y382579D02*
D03*
Y387106D02*
D03*
X423150Y365846D02*
D03*
Y370374D02*
D03*
X423228Y348130D02*
D03*
Y352658D02*
D03*
D19*
X431102Y338976D02*
D03*
Y346063D02*
D03*
D20*
X440748Y345768D02*
D03*
X449016D02*
D03*
Y339272D02*
D03*
X440748D02*
D03*
D21*
X453898Y397638D02*
D03*
X410512Y350394D02*
D03*
X410433Y368110D02*
D03*
X410512Y384842D02*
D03*
D22*
X443898Y397638D02*
D03*
X433898D02*
D03*
X400512Y350394D02*
D03*
X400433Y368110D02*
D03*
X400512Y384842D02*
D03*
X383858Y382047D02*
D03*
Y372047D02*
D03*
Y362047D02*
D03*
D23*
Y352047D02*
D03*
M02*
