G04*
G04 #@! TF.GenerationSoftware,Altium Limited,Altium Designer,22.6.1 (34)*
G04*
G04 Layer_Color=32896*
%FSLAX25Y25*%
%MOIN*%
G70*
G04*
G04 #@! TF.SameCoordinates,6A0AF7E6-2655-45A2-AC58-E928B373DE11*
G04*
G04*
G04 #@! TF.FilePolarity,Positive*
G04*
G01*
G75*
G36*
X476522Y374731D02*
X476059D01*
Y375260D01*
X476522D01*
Y374731D01*
D02*
G37*
G36*
X456850Y372517D02*
Y372414D01*
X456846Y372324D01*
X456842Y372251D01*
X456838Y372189D01*
X456834Y372144D01*
X456830Y372107D01*
X456826Y372091D01*
Y372082D01*
X456805Y372009D01*
X456785Y371943D01*
X456760Y371886D01*
X456736Y371836D01*
X456715Y371795D01*
X456699Y371763D01*
X456686Y371746D01*
X456682Y371738D01*
X456641Y371689D01*
X456592Y371644D01*
X456539Y371603D01*
X456490Y371570D01*
X456440Y371541D01*
X456403Y371521D01*
X456379Y371508D01*
X456375Y371504D01*
X456371D01*
X456289Y371476D01*
X456211Y371451D01*
X456133Y371435D01*
X456063Y371426D01*
X456002Y371418D01*
X455957Y371414D01*
X455916D01*
X455813Y371418D01*
X455719Y371435D01*
X455633Y371455D01*
X455547Y371488D01*
X455469Y371521D01*
X455399Y371562D01*
X455333Y371603D01*
X455272Y371648D01*
X455219Y371689D01*
X455173Y371730D01*
X455132Y371771D01*
X455100Y371804D01*
X455075Y371836D01*
X455059Y371857D01*
X455046Y371873D01*
X455042Y371877D01*
Y371476D01*
X454628D01*
Y374219D01*
X455091D01*
Y372747D01*
X455096Y372624D01*
X455104Y372517D01*
X455116Y372427D01*
X455128Y372349D01*
X455137Y372316D01*
X455145Y372291D01*
X455153Y372267D01*
X455157Y372246D01*
X455161Y372234D01*
X455165Y372222D01*
X455169Y372218D01*
Y372214D01*
X455202Y372148D01*
X455243Y372091D01*
X455288Y372041D01*
X455329Y372000D01*
X455370Y371968D01*
X455403Y371943D01*
X455424Y371927D01*
X455428Y371922D01*
X455432D01*
X455502Y371886D01*
X455567Y371861D01*
X455633Y371841D01*
X455694Y371828D01*
X455748Y371820D01*
X455784Y371816D01*
X455821D01*
X455895Y371820D01*
X455965Y371832D01*
X456026Y371849D01*
X456075Y371869D01*
X456116Y371886D01*
X456149Y371902D01*
X456166Y371914D01*
X456174Y371918D01*
X456223Y371959D01*
X456264Y372009D01*
X456297Y372054D01*
X456321Y372099D01*
X456342Y372140D01*
X456354Y372177D01*
X456358Y372197D01*
X456362Y372205D01*
X456367Y372230D01*
X456371Y372263D01*
X456375Y372337D01*
X456383Y372419D01*
Y372501D01*
X456387Y372574D01*
Y372607D01*
Y372640D01*
Y372665D01*
Y372681D01*
Y372693D01*
Y372697D01*
Y374219D01*
X456850D01*
Y372517D01*
D02*
G37*
G36*
X474374Y374272D02*
X474497Y374255D01*
X474608Y374227D01*
X474657Y374210D01*
X474706Y374198D01*
X474747Y374182D01*
X474784Y374165D01*
X474817Y374153D01*
X474845Y374136D01*
X474870Y374128D01*
X474886Y374120D01*
X474895Y374112D01*
X474899D01*
X475005Y374042D01*
X475095Y373964D01*
X475173Y373878D01*
X475235Y373800D01*
X475284Y373727D01*
X475300Y373694D01*
X475317Y373665D01*
X475329Y373644D01*
X475337Y373628D01*
X475346Y373616D01*
Y373612D01*
X475395Y373485D01*
X475427Y373349D01*
X475452Y373218D01*
X475473Y373099D01*
X475477Y373042D01*
X475481Y372993D01*
X475485Y372948D01*
Y372906D01*
X475489Y372878D01*
Y372853D01*
Y372837D01*
Y372833D01*
X475485Y372710D01*
X475473Y372591D01*
X475456Y372480D01*
X475436Y372378D01*
X475411Y372283D01*
X475382Y372197D01*
X475350Y372119D01*
X475317Y372050D01*
X475288Y371988D01*
X475255Y371931D01*
X475227Y371886D01*
X475202Y371849D01*
X475181Y371816D01*
X475165Y371795D01*
X475153Y371783D01*
X475149Y371779D01*
X475083Y371713D01*
X475013Y371660D01*
X474940Y371611D01*
X474866Y371570D01*
X474788Y371533D01*
X474714Y371504D01*
X474640Y371480D01*
X474571Y371459D01*
X474505Y371443D01*
X474443Y371435D01*
X474386Y371426D01*
X474341Y371418D01*
X474300D01*
X474271Y371414D01*
X474247D01*
X474165Y371418D01*
X474087Y371426D01*
X474013Y371439D01*
X473939Y371455D01*
X473874Y371476D01*
X473812Y371500D01*
X473755Y371521D01*
X473701Y371549D01*
X473656Y371574D01*
X473611Y371595D01*
X473578Y371619D01*
X473546Y371640D01*
X473525Y371656D01*
X473505Y371668D01*
X473496Y371676D01*
X473492Y371681D01*
X473439Y371734D01*
X473386Y371787D01*
X473341Y371849D01*
X473304Y371910D01*
X473267Y371972D01*
X473234Y372033D01*
X473185Y372148D01*
X473164Y372205D01*
X473148Y372255D01*
X473136Y372300D01*
X473123Y372341D01*
X473115Y372374D01*
X473111Y372398D01*
X473107Y372414D01*
Y372419D01*
X473562Y372480D01*
X473574Y372414D01*
X473587Y372357D01*
X473603Y372300D01*
X473619Y372251D01*
X473640Y372201D01*
X473656Y372160D01*
X473677Y372123D01*
X473697Y372087D01*
X473718Y372058D01*
X473734Y372033D01*
X473767Y371992D01*
X473787Y371968D01*
X473792Y371964D01*
X473796Y371959D01*
X473870Y371906D01*
X473943Y371865D01*
X474021Y371836D01*
X474091Y371816D01*
X474157Y371804D01*
X474181Y371799D01*
X474206D01*
X474226Y371795D01*
X474251D01*
X474312Y371799D01*
X474374Y371808D01*
X474427Y371820D01*
X474480Y371836D01*
X474575Y371873D01*
X474657Y371922D01*
X474689Y371943D01*
X474718Y371968D01*
X474743Y371988D01*
X474767Y372009D01*
X474784Y372021D01*
X474796Y372033D01*
X474800Y372041D01*
X474804Y372045D01*
X474841Y372095D01*
X474874Y372152D01*
X474903Y372214D01*
X474923Y372275D01*
X474964Y372410D01*
X474989Y372542D01*
X474997Y372603D01*
X475001Y372660D01*
X475005Y372714D01*
X475009Y372759D01*
X475013Y372796D01*
Y372825D01*
Y372845D01*
Y372849D01*
X475009Y372948D01*
X475005Y373042D01*
X474993Y373124D01*
X474981Y373202D01*
X474964Y373275D01*
X474944Y373341D01*
X474923Y373398D01*
X474903Y373452D01*
X474886Y373497D01*
X474866Y373538D01*
X474845Y373571D01*
X474829Y373595D01*
X474817Y373620D01*
X474804Y373632D01*
X474800Y373640D01*
X474796Y373644D01*
X474755Y373690D01*
X474710Y373727D01*
X474661Y373763D01*
X474616Y373792D01*
X474567Y373817D01*
X474521Y373837D01*
X474431Y373866D01*
X474349Y373886D01*
X474316Y373890D01*
X474284Y373895D01*
X474259Y373899D01*
X474226D01*
X474144Y373895D01*
X474066Y373878D01*
X474001Y373854D01*
X473943Y373829D01*
X473898Y373800D01*
X473861Y373780D01*
X473841Y373763D01*
X473833Y373755D01*
X473775Y373698D01*
X473726Y373632D01*
X473689Y373563D01*
X473656Y373497D01*
X473632Y373435D01*
X473615Y373386D01*
X473611Y373366D01*
X473607Y373353D01*
X473603Y373345D01*
Y373341D01*
X473152Y373411D01*
X473168Y373485D01*
X473193Y373558D01*
X473218Y373624D01*
X473242Y373686D01*
X473271Y373743D01*
X473304Y373796D01*
X473332Y373841D01*
X473365Y373886D01*
X473394Y373923D01*
X473423Y373956D01*
X473447Y373985D01*
X473472Y374009D01*
X473488Y374026D01*
X473505Y374038D01*
X473513Y374046D01*
X473517Y374050D01*
X473570Y374091D01*
X473628Y374128D01*
X473689Y374157D01*
X473751Y374182D01*
X473874Y374223D01*
X473988Y374251D01*
X474042Y374259D01*
X474091Y374268D01*
X474136Y374272D01*
X474173Y374276D01*
X474202Y374280D01*
X474247D01*
X474374Y374272D01*
D02*
G37*
G36*
X471688Y374276D02*
X471791Y374264D01*
X471881Y374243D01*
X471971Y374219D01*
X472053Y374190D01*
X472131Y374157D01*
X472201Y374124D01*
X472262Y374087D01*
X472320Y374050D01*
X472369Y374018D01*
X472414Y373985D01*
X472447Y373956D01*
X472475Y373932D01*
X472496Y373911D01*
X472508Y373899D01*
X472512Y373895D01*
X472574Y373821D01*
X472627Y373739D01*
X472676Y373653D01*
X472717Y373567D01*
X472750Y373476D01*
X472779Y373386D01*
X472803Y373300D01*
X472820Y373214D01*
X472836Y373136D01*
X472845Y373058D01*
X472853Y372993D01*
X472861Y372935D01*
Y372886D01*
X472865Y372849D01*
Y372829D01*
Y372820D01*
X472861Y372697D01*
X472849Y372583D01*
X472832Y372476D01*
X472812Y372378D01*
X472783Y372283D01*
X472754Y372197D01*
X472721Y372119D01*
X472689Y372050D01*
X472660Y371988D01*
X472627Y371935D01*
X472599Y371890D01*
X472570Y371853D01*
X472549Y371820D01*
X472533Y371799D01*
X472521Y371787D01*
X472516Y371783D01*
X472447Y371718D01*
X472373Y371660D01*
X472299Y371611D01*
X472217Y371570D01*
X472139Y371533D01*
X472057Y371504D01*
X471979Y371480D01*
X471906Y371459D01*
X471836Y371447D01*
X471770Y371435D01*
X471713Y371426D01*
X471660Y371418D01*
X471619D01*
X471586Y371414D01*
X471561D01*
X471475Y371418D01*
X471389Y371422D01*
X471311Y371435D01*
X471237Y371451D01*
X471168Y371467D01*
X471106Y371488D01*
X471045Y371508D01*
X470991Y371529D01*
X470942Y371549D01*
X470901Y371570D01*
X470864Y371590D01*
X470831Y371607D01*
X470811Y371623D01*
X470790Y371636D01*
X470782Y371640D01*
X470778Y371644D01*
X470721Y371689D01*
X470672Y371738D01*
X470626Y371791D01*
X470581Y371845D01*
X470507Y371955D01*
X470450Y372058D01*
X470430Y372107D01*
X470409Y372152D01*
X470393Y372193D01*
X470380Y372230D01*
X470368Y372259D01*
X470360Y372279D01*
X470356Y372296D01*
Y372300D01*
X470840Y372361D01*
X470881Y372259D01*
X470930Y372168D01*
X470979Y372091D01*
X471024Y372033D01*
X471065Y371984D01*
X471098Y371951D01*
X471118Y371935D01*
X471123Y371927D01*
X471127D01*
X471196Y371882D01*
X471270Y371853D01*
X471344Y371828D01*
X471410Y371812D01*
X471471Y371804D01*
X471520Y371799D01*
X471537Y371795D01*
X471561D01*
X471623Y371799D01*
X471684Y371808D01*
X471742Y371816D01*
X471795Y371832D01*
X471893Y371869D01*
X471975Y371914D01*
X472012Y371935D01*
X472045Y371959D01*
X472070Y371980D01*
X472094Y371996D01*
X472111Y372013D01*
X472123Y372025D01*
X472131Y372029D01*
X472135Y372033D01*
X472176Y372082D01*
X472213Y372132D01*
X472242Y372189D01*
X472270Y372242D01*
X472316Y372361D01*
X472348Y372472D01*
X472361Y372525D01*
X472369Y372574D01*
X472377Y372615D01*
X472381Y372656D01*
X472385Y372685D01*
X472389Y372710D01*
Y372726D01*
Y372730D01*
X470343D01*
X470339Y372783D01*
Y372825D01*
Y372845D01*
Y372853D01*
X470343Y372976D01*
X470356Y373091D01*
X470372Y373202D01*
X470393Y373304D01*
X470421Y373398D01*
X470450Y373485D01*
X470483Y373563D01*
X470512Y373632D01*
X470544Y373694D01*
X470577Y373751D01*
X470606Y373796D01*
X470635Y373833D01*
X470655Y373866D01*
X470672Y373886D01*
X470684Y373899D01*
X470688Y373903D01*
X470753Y373968D01*
X470827Y374026D01*
X470901Y374079D01*
X470975Y374120D01*
X471049Y374157D01*
X471127Y374190D01*
X471196Y374214D01*
X471266Y374235D01*
X471332Y374247D01*
X471393Y374259D01*
X471446Y374268D01*
X471496Y374276D01*
X471532D01*
X471561Y374280D01*
X471586D01*
X471688Y374276D01*
D02*
G37*
G36*
X463164D02*
X463267Y374264D01*
X463357Y374243D01*
X463447Y374219D01*
X463529Y374190D01*
X463607Y374157D01*
X463677Y374124D01*
X463738Y374087D01*
X463796Y374050D01*
X463845Y374018D01*
X463890Y373985D01*
X463923Y373956D01*
X463952Y373932D01*
X463972Y373911D01*
X463984Y373899D01*
X463988Y373895D01*
X464050Y373821D01*
X464103Y373739D01*
X464152Y373653D01*
X464193Y373567D01*
X464226Y373476D01*
X464255Y373386D01*
X464280Y373300D01*
X464296Y373214D01*
X464312Y373136D01*
X464321Y373058D01*
X464329Y372993D01*
X464337Y372935D01*
Y372886D01*
X464341Y372849D01*
Y372829D01*
Y372820D01*
X464337Y372697D01*
X464325Y372583D01*
X464308Y372476D01*
X464288Y372378D01*
X464259Y372283D01*
X464230Y372197D01*
X464198Y372119D01*
X464165Y372050D01*
X464136Y371988D01*
X464103Y371935D01*
X464075Y371890D01*
X464046Y371853D01*
X464025Y371820D01*
X464009Y371799D01*
X463997Y371787D01*
X463993Y371783D01*
X463923Y371718D01*
X463849Y371660D01*
X463775Y371611D01*
X463693Y371570D01*
X463615Y371533D01*
X463533Y371504D01*
X463455Y371480D01*
X463382Y371459D01*
X463312Y371447D01*
X463246Y371435D01*
X463189Y371426D01*
X463136Y371418D01*
X463095D01*
X463062Y371414D01*
X463037D01*
X462951Y371418D01*
X462865Y371422D01*
X462787Y371435D01*
X462713Y371451D01*
X462644Y371467D01*
X462582Y371488D01*
X462521Y371508D01*
X462467Y371529D01*
X462418Y371549D01*
X462377Y371570D01*
X462340Y371590D01*
X462308Y371607D01*
X462287Y371623D01*
X462266Y371636D01*
X462258Y371640D01*
X462254Y371644D01*
X462197Y371689D01*
X462148Y371738D01*
X462103Y371791D01*
X462057Y371845D01*
X461984Y371955D01*
X461926Y372058D01*
X461906Y372107D01*
X461885Y372152D01*
X461869Y372193D01*
X461857Y372230D01*
X461844Y372259D01*
X461836Y372279D01*
X461832Y372296D01*
Y372300D01*
X462316Y372361D01*
X462357Y372259D01*
X462406Y372168D01*
X462455Y372091D01*
X462500Y372033D01*
X462541Y371984D01*
X462574Y371951D01*
X462595Y371935D01*
X462599Y371927D01*
X462603D01*
X462672Y371882D01*
X462746Y371853D01*
X462820Y371828D01*
X462886Y371812D01*
X462947Y371804D01*
X462996Y371799D01*
X463013Y371795D01*
X463037D01*
X463099Y371799D01*
X463160Y371808D01*
X463218Y371816D01*
X463271Y371832D01*
X463369Y371869D01*
X463451Y371914D01*
X463488Y371935D01*
X463521Y371959D01*
X463546Y371980D01*
X463570Y371996D01*
X463587Y372013D01*
X463599Y372025D01*
X463607Y372029D01*
X463611Y372033D01*
X463652Y372082D01*
X463689Y372132D01*
X463718Y372189D01*
X463747Y372242D01*
X463792Y372361D01*
X463825Y372472D01*
X463837Y372525D01*
X463845Y372574D01*
X463853Y372615D01*
X463857Y372656D01*
X463861Y372685D01*
X463866Y372710D01*
Y372726D01*
Y372730D01*
X461820D01*
X461816Y372783D01*
Y372825D01*
Y372845D01*
Y372853D01*
X461820Y372976D01*
X461832Y373091D01*
X461848Y373202D01*
X461869Y373304D01*
X461898Y373398D01*
X461926Y373485D01*
X461959Y373563D01*
X461988Y373632D01*
X462020Y373694D01*
X462053Y373751D01*
X462082Y373796D01*
X462111Y373833D01*
X462131Y373866D01*
X462148Y373886D01*
X462160Y373899D01*
X462164Y373903D01*
X462230Y373968D01*
X462303Y374026D01*
X462377Y374079D01*
X462451Y374120D01*
X462525Y374157D01*
X462603Y374190D01*
X462672Y374214D01*
X462742Y374235D01*
X462808Y374247D01*
X462869Y374259D01*
X462922Y374268D01*
X462972Y374276D01*
X463009D01*
X463037Y374280D01*
X463062D01*
X463164Y374276D01*
D02*
G37*
G36*
X446998D02*
X447101Y374264D01*
X447191Y374243D01*
X447281Y374219D01*
X447363Y374190D01*
X447441Y374157D01*
X447511Y374124D01*
X447572Y374087D01*
X447629Y374050D01*
X447679Y374018D01*
X447724Y373985D01*
X447757Y373956D01*
X447785Y373932D01*
X447806Y373911D01*
X447818Y373899D01*
X447822Y373895D01*
X447884Y373821D01*
X447937Y373739D01*
X447986Y373653D01*
X448027Y373567D01*
X448060Y373476D01*
X448089Y373386D01*
X448113Y373300D01*
X448130Y373214D01*
X448146Y373136D01*
X448154Y373058D01*
X448163Y372993D01*
X448171Y372935D01*
Y372886D01*
X448175Y372849D01*
Y372829D01*
Y372820D01*
X448171Y372697D01*
X448158Y372583D01*
X448142Y372476D01*
X448122Y372378D01*
X448093Y372283D01*
X448064Y372197D01*
X448031Y372119D01*
X447999Y372050D01*
X447970Y371988D01*
X447937Y371935D01*
X447908Y371890D01*
X447880Y371853D01*
X447859Y371820D01*
X447843Y371799D01*
X447830Y371787D01*
X447826Y371783D01*
X447757Y371718D01*
X447683Y371660D01*
X447609Y371611D01*
X447527Y371570D01*
X447449Y371533D01*
X447367Y371504D01*
X447289Y371480D01*
X447215Y371459D01*
X447146Y371447D01*
X447080Y371435D01*
X447023Y371426D01*
X446969Y371418D01*
X446928D01*
X446896Y371414D01*
X446871D01*
X446785Y371418D01*
X446699Y371422D01*
X446621Y371435D01*
X446547Y371451D01*
X446477Y371467D01*
X446416Y371488D01*
X446354Y371508D01*
X446301Y371529D01*
X446252Y371549D01*
X446211Y371570D01*
X446174Y371590D01*
X446141Y371607D01*
X446121Y371623D01*
X446100Y371636D01*
X446092Y371640D01*
X446088Y371644D01*
X446031Y371689D01*
X445981Y371738D01*
X445936Y371791D01*
X445891Y371845D01*
X445817Y371955D01*
X445760Y372058D01*
X445739Y372107D01*
X445719Y372152D01*
X445703Y372193D01*
X445690Y372230D01*
X445678Y372259D01*
X445670Y372279D01*
X445666Y372296D01*
Y372300D01*
X446149Y372361D01*
X446190Y372259D01*
X446240Y372168D01*
X446289Y372091D01*
X446334Y372033D01*
X446375Y371984D01*
X446408Y371951D01*
X446428Y371935D01*
X446432Y371927D01*
X446436D01*
X446506Y371882D01*
X446580Y371853D01*
X446654Y371828D01*
X446719Y371812D01*
X446781Y371804D01*
X446830Y371799D01*
X446846Y371795D01*
X446871D01*
X446933Y371799D01*
X446994Y371808D01*
X447051Y371816D01*
X447105Y371832D01*
X447203Y371869D01*
X447285Y371914D01*
X447322Y371935D01*
X447355Y371959D01*
X447379Y371980D01*
X447404Y371996D01*
X447420Y372013D01*
X447433Y372025D01*
X447441Y372029D01*
X447445Y372033D01*
X447486Y372082D01*
X447523Y372132D01*
X447552Y372189D01*
X447580Y372242D01*
X447625Y372361D01*
X447658Y372472D01*
X447671Y372525D01*
X447679Y372574D01*
X447687Y372615D01*
X447691Y372656D01*
X447695Y372685D01*
X447699Y372710D01*
Y372726D01*
Y372730D01*
X445653D01*
X445649Y372783D01*
Y372825D01*
Y372845D01*
Y372853D01*
X445653Y372976D01*
X445666Y373091D01*
X445682Y373202D01*
X445703Y373304D01*
X445731Y373398D01*
X445760Y373485D01*
X445793Y373563D01*
X445821Y373632D01*
X445854Y373694D01*
X445887Y373751D01*
X445916Y373796D01*
X445944Y373833D01*
X445965Y373866D01*
X445981Y373886D01*
X445994Y373899D01*
X445998Y373903D01*
X446063Y373968D01*
X446137Y374026D01*
X446211Y374079D01*
X446285Y374120D01*
X446358Y374157D01*
X446436Y374190D01*
X446506Y374214D01*
X446576Y374235D01*
X446641Y374247D01*
X446703Y374259D01*
X446756Y374268D01*
X446805Y374276D01*
X446842D01*
X446871Y374280D01*
X446896D01*
X446998Y374276D01*
D02*
G37*
G36*
X479429Y371476D02*
X477063D01*
Y371922D01*
X478929D01*
Y375260D01*
X479429D01*
Y371476D01*
D02*
G37*
G36*
X476522D02*
X476059D01*
Y374219D01*
X476522D01*
Y371476D01*
D02*
G37*
G36*
X468585Y374276D02*
X468683Y374259D01*
X468773Y374239D01*
X468859Y374210D01*
X468937Y374173D01*
X469007Y374136D01*
X469072Y374096D01*
X469130Y374055D01*
X469183Y374009D01*
X469228Y373968D01*
X469265Y373932D01*
X469294Y373895D01*
X469318Y373866D01*
X469339Y373845D01*
X469347Y373829D01*
X469351Y373825D01*
Y374219D01*
X469769D01*
Y371476D01*
X469306D01*
Y372972D01*
X469302Y373066D01*
X469298Y373157D01*
X469286Y373235D01*
X469273Y373308D01*
X469257Y373374D01*
X469241Y373431D01*
X469220Y373485D01*
X469200Y373530D01*
X469179Y373571D01*
X469159Y373604D01*
X469142Y373628D01*
X469126Y373653D01*
X469113Y373669D01*
X469101Y373681D01*
X469097Y373686D01*
X469093Y373690D01*
X469052Y373722D01*
X469007Y373751D01*
X468921Y373800D01*
X468835Y373833D01*
X468757Y373854D01*
X468687Y373870D01*
X468654Y373874D01*
X468630D01*
X468609Y373878D01*
X468580D01*
X468511Y373874D01*
X468449Y373866D01*
X468396Y373850D01*
X468347Y373837D01*
X468310Y373821D01*
X468281Y373804D01*
X468261Y373796D01*
X468257Y373792D01*
X468207Y373759D01*
X468166Y373722D01*
X468134Y373686D01*
X468109Y373649D01*
X468088Y373616D01*
X468076Y373591D01*
X468068Y373575D01*
X468064Y373567D01*
X468043Y373509D01*
X468031Y373444D01*
X468019Y373374D01*
X468015Y373304D01*
X468011Y373243D01*
X468007Y373214D01*
Y373189D01*
Y373173D01*
Y373157D01*
Y373148D01*
Y373144D01*
Y371476D01*
X467543D01*
Y373161D01*
Y373218D01*
Y373271D01*
X467547Y373325D01*
Y373370D01*
X467551Y373411D01*
Y373448D01*
X467556Y373509D01*
X467564Y373554D01*
X467568Y373587D01*
X467572Y373608D01*
Y373612D01*
X467588Y373686D01*
X467613Y373751D01*
X467633Y373809D01*
X467658Y373858D01*
X467683Y373899D01*
X467699Y373932D01*
X467711Y373948D01*
X467715Y373956D01*
X467756Y374009D01*
X467806Y374055D01*
X467859Y374091D01*
X467908Y374128D01*
X467957Y374153D01*
X467994Y374173D01*
X468019Y374186D01*
X468023Y374190D01*
X468027D01*
X468105Y374219D01*
X468183Y374243D01*
X468261Y374259D01*
X468330Y374268D01*
X468392Y374276D01*
X468417D01*
X468441Y374280D01*
X468482D01*
X468585Y374276D01*
D02*
G37*
G36*
X452713D02*
X452812Y374259D01*
X452902Y374239D01*
X452988Y374210D01*
X453066Y374173D01*
X453136Y374136D01*
X453201Y374096D01*
X453259Y374055D01*
X453312Y374009D01*
X453357Y373968D01*
X453394Y373932D01*
X453423Y373895D01*
X453447Y373866D01*
X453468Y373845D01*
X453476Y373829D01*
X453480Y373825D01*
Y374219D01*
X453898D01*
Y371476D01*
X453435D01*
Y372972D01*
X453431Y373066D01*
X453427Y373157D01*
X453415Y373235D01*
X453402Y373308D01*
X453386Y373374D01*
X453370Y373431D01*
X453349Y373485D01*
X453329Y373530D01*
X453308Y373571D01*
X453288Y373604D01*
X453271Y373628D01*
X453255Y373653D01*
X453242Y373669D01*
X453230Y373681D01*
X453226Y373686D01*
X453222Y373690D01*
X453181Y373722D01*
X453136Y373751D01*
X453050Y373800D01*
X452964Y373833D01*
X452886Y373854D01*
X452816Y373870D01*
X452783Y373874D01*
X452759D01*
X452738Y373878D01*
X452709D01*
X452640Y373874D01*
X452578Y373866D01*
X452525Y373850D01*
X452476Y373837D01*
X452439Y373821D01*
X452410Y373804D01*
X452390Y373796D01*
X452386Y373792D01*
X452336Y373759D01*
X452295Y373722D01*
X452262Y373686D01*
X452238Y373649D01*
X452217Y373616D01*
X452205Y373591D01*
X452197Y373575D01*
X452193Y373567D01*
X452172Y373509D01*
X452160Y373444D01*
X452148Y373374D01*
X452144Y373304D01*
X452140Y373243D01*
X452135Y373214D01*
Y373189D01*
Y373173D01*
Y373157D01*
Y373148D01*
Y373144D01*
Y371476D01*
X451672D01*
Y373161D01*
Y373218D01*
Y373271D01*
X451676Y373325D01*
Y373370D01*
X451680Y373411D01*
Y373448D01*
X451684Y373509D01*
X451693Y373554D01*
X451697Y373587D01*
X451701Y373608D01*
Y373612D01*
X451717Y373686D01*
X451742Y373751D01*
X451762Y373809D01*
X451787Y373858D01*
X451812Y373899D01*
X451828Y373932D01*
X451840Y373948D01*
X451844Y373956D01*
X451885Y374009D01*
X451934Y374055D01*
X451988Y374091D01*
X452037Y374128D01*
X452086Y374153D01*
X452123Y374173D01*
X452148Y374186D01*
X452152Y374190D01*
X452156D01*
X452234Y374219D01*
X452312Y374243D01*
X452390Y374259D01*
X452459Y374268D01*
X452521Y374276D01*
X452545D01*
X452570Y374280D01*
X452611D01*
X452713Y374276D01*
D02*
G37*
G36*
X444132D02*
X444190Y374264D01*
X444239Y374251D01*
X444284Y374235D01*
X444317Y374214D01*
X444345Y374202D01*
X444362Y374190D01*
X444370Y374186D01*
X444395Y374165D01*
X444423Y374141D01*
X444473Y374087D01*
X444522Y374022D01*
X444567Y373956D01*
X444608Y373899D01*
X444636Y373845D01*
X444649Y373829D01*
X444657Y373813D01*
X444665Y373804D01*
Y374219D01*
X445083D01*
Y371476D01*
X444620D01*
Y372911D01*
X444616Y373017D01*
X444608Y373120D01*
X444595Y373210D01*
X444583Y373292D01*
X444571Y373358D01*
X444563Y373386D01*
X444559Y373411D01*
X444555Y373427D01*
X444550Y373440D01*
X444546Y373448D01*
Y373452D01*
X444522Y373509D01*
X444497Y373563D01*
X444468Y373604D01*
X444440Y373640D01*
X444415Y373669D01*
X444395Y373690D01*
X444378Y373702D01*
X444374Y373706D01*
X444325Y373739D01*
X444280Y373759D01*
X444235Y373776D01*
X444190Y373788D01*
X444153Y373796D01*
X444124Y373800D01*
X444099D01*
X444034Y373796D01*
X443972Y373784D01*
X443915Y373767D01*
X443866Y373751D01*
X443821Y373731D01*
X443788Y373714D01*
X443767Y373702D01*
X443759Y373698D01*
X443595Y374128D01*
X443685Y374178D01*
X443776Y374214D01*
X443853Y374243D01*
X443927Y374259D01*
X443989Y374272D01*
X444013Y374276D01*
X444034D01*
X444050Y374280D01*
X444075D01*
X444132Y374276D01*
D02*
G37*
G36*
X466006D02*
X466080Y374272D01*
X466149Y374264D01*
X466207Y374251D01*
X466260Y374239D01*
X466297Y374231D01*
X466321Y374227D01*
X466326Y374223D01*
X466330D01*
X466395Y374202D01*
X466457Y374178D01*
X466506Y374153D01*
X466547Y374132D01*
X466580Y374116D01*
X466604Y374100D01*
X466621Y374091D01*
X466625Y374087D01*
X466678Y374046D01*
X466723Y374005D01*
X466764Y373960D01*
X466793Y373919D01*
X466822Y373882D01*
X466838Y373854D01*
X466850Y373837D01*
X466854Y373829D01*
X466883Y373772D01*
X466904Y373710D01*
X466916Y373653D01*
X466924Y373599D01*
X466932Y373554D01*
X466936Y373521D01*
Y373497D01*
Y373493D01*
Y373489D01*
X466932Y373415D01*
X466920Y373345D01*
X466904Y373284D01*
X466887Y373230D01*
X466871Y373185D01*
X466854Y373148D01*
X466842Y373128D01*
X466838Y373120D01*
X466797Y373062D01*
X466748Y373009D01*
X466699Y372968D01*
X466649Y372931D01*
X466604Y372898D01*
X466572Y372878D01*
X466547Y372866D01*
X466543Y372861D01*
X466539D01*
X466498Y372845D01*
X466448Y372825D01*
X466399Y372804D01*
X466342Y372788D01*
X466223Y372751D01*
X466108Y372714D01*
X466051Y372697D01*
X465998Y372681D01*
X465948Y372669D01*
X465907Y372656D01*
X465874Y372648D01*
X465846Y372640D01*
X465829Y372636D01*
X465825D01*
X465760Y372620D01*
X465698Y372603D01*
X465641Y372587D01*
X465592Y372570D01*
X465547Y372558D01*
X465510Y372546D01*
X465477Y372533D01*
X465444Y372521D01*
X465419Y372513D01*
X465399Y372505D01*
X465370Y372492D01*
X465354Y372484D01*
X465350Y372480D01*
X465305Y372443D01*
X465268Y372402D01*
X465243Y372361D01*
X465227Y372320D01*
X465218Y372287D01*
X465210Y372255D01*
Y372238D01*
Y372230D01*
X465218Y372164D01*
X465235Y372107D01*
X465260Y372054D01*
X465288Y372009D01*
X465317Y371972D01*
X465342Y371947D01*
X465358Y371927D01*
X465366Y371922D01*
X465432Y371882D01*
X465506Y371849D01*
X465588Y371828D01*
X465665Y371812D01*
X465735Y371804D01*
X465764Y371799D01*
X465793D01*
X465813Y371795D01*
X465846D01*
X465956Y371804D01*
X466055Y371820D01*
X466141Y371841D01*
X466211Y371869D01*
X466268Y371894D01*
X466309Y371918D01*
X466334Y371935D01*
X466338Y371939D01*
X466342D01*
X466403Y372000D01*
X466448Y372066D01*
X466485Y372140D01*
X466514Y372210D01*
X466535Y372271D01*
X466543Y372296D01*
X466547Y372320D01*
X466551Y372341D01*
Y372353D01*
X466555Y372361D01*
Y372365D01*
X467014Y372291D01*
X466998Y372214D01*
X466977Y372136D01*
X466953Y372066D01*
X466928Y372005D01*
X466899Y371943D01*
X466871Y371890D01*
X466842Y371841D01*
X466809Y371795D01*
X466781Y371759D01*
X466752Y371726D01*
X466727Y371697D01*
X466707Y371672D01*
X466686Y371656D01*
X466674Y371644D01*
X466666Y371636D01*
X466662Y371631D01*
X466604Y371595D01*
X466547Y371562D01*
X466481Y371529D01*
X466416Y371504D01*
X466276Y371467D01*
X466145Y371443D01*
X466084Y371430D01*
X466026Y371426D01*
X465973Y371422D01*
X465932Y371418D01*
X465895Y371414D01*
X465842D01*
X465723Y371418D01*
X465616Y371430D01*
X465518Y371451D01*
X465432Y371472D01*
X465395Y371480D01*
X465362Y371488D01*
X465333Y371500D01*
X465309Y371508D01*
X465288Y371517D01*
X465276Y371521D01*
X465268Y371525D01*
X465264D01*
X465173Y371570D01*
X465096Y371619D01*
X465030Y371672D01*
X464972Y371726D01*
X464931Y371771D01*
X464899Y371808D01*
X464882Y371832D01*
X464874Y371836D01*
Y371841D01*
X464829Y371918D01*
X464792Y371996D01*
X464768Y372070D01*
X464751Y372136D01*
X464743Y372193D01*
X464735Y372238D01*
Y372255D01*
Y372267D01*
Y372275D01*
Y372279D01*
X464739Y372365D01*
X464751Y372443D01*
X464772Y372509D01*
X464792Y372566D01*
X464813Y372615D01*
X464833Y372648D01*
X464845Y372669D01*
X464850Y372677D01*
X464895Y372734D01*
X464944Y372783D01*
X464997Y372825D01*
X465046Y372857D01*
X465087Y372886D01*
X465124Y372902D01*
X465149Y372915D01*
X465153Y372919D01*
X465157D01*
X465198Y372935D01*
X465243Y372952D01*
X465292Y372972D01*
X465346Y372989D01*
X465456Y373025D01*
X465571Y373058D01*
X465624Y373075D01*
X465678Y373091D01*
X465723Y373103D01*
X465760Y373116D01*
X465797Y373124D01*
X465821Y373132D01*
X465838Y373136D01*
X465842D01*
X465903Y373152D01*
X465956Y373169D01*
X466006Y373181D01*
X466051Y373194D01*
X466088Y373206D01*
X466120Y373214D01*
X466149Y373222D01*
X466174Y373230D01*
X466211Y373243D01*
X466235Y373251D01*
X466248Y373255D01*
X466252D01*
X466293Y373275D01*
X466330Y373296D01*
X466362Y373317D01*
X466387Y373337D01*
X466407Y373353D01*
X466420Y373366D01*
X466428Y373374D01*
X466432Y373378D01*
X466448Y373407D01*
X466461Y373435D01*
X466477Y373489D01*
X466481Y373509D01*
X466485Y373526D01*
Y373538D01*
Y373542D01*
X466481Y373595D01*
X466465Y373640D01*
X466444Y373686D01*
X466416Y373722D01*
X466391Y373751D01*
X466371Y373772D01*
X466354Y373788D01*
X466350Y373792D01*
X466321Y373813D01*
X466293Y373829D01*
X466223Y373854D01*
X466145Y373874D01*
X466071Y373886D01*
X466002Y373895D01*
X465973D01*
X465948Y373899D01*
X465895D01*
X465797Y373895D01*
X465715Y373878D01*
X465641Y373862D01*
X465579Y373837D01*
X465534Y373817D01*
X465501Y373796D01*
X465481Y373780D01*
X465473Y373776D01*
X465423Y373727D01*
X465382Y373673D01*
X465350Y373620D01*
X465325Y373567D01*
X465309Y373521D01*
X465301Y373481D01*
X465292Y373456D01*
Y373452D01*
Y373448D01*
X464837Y373509D01*
X464858Y373604D01*
X464882Y373686D01*
X464907Y373759D01*
X464936Y373821D01*
X464960Y373866D01*
X464981Y373903D01*
X464997Y373923D01*
X465001Y373932D01*
X465050Y373989D01*
X465108Y374038D01*
X465165Y374083D01*
X465223Y374120D01*
X465280Y374149D01*
X465321Y374169D01*
X465337Y374178D01*
X465350Y374182D01*
X465358Y374186D01*
X465362D01*
X465456Y374219D01*
X465551Y374239D01*
X465649Y374255D01*
X465735Y374268D01*
X465813Y374276D01*
X465846D01*
X465874Y374280D01*
X465928D01*
X466006Y374276D01*
D02*
G37*
G36*
X459503Y373899D02*
X459552Y373960D01*
X459606Y374013D01*
X459659Y374059D01*
X459708Y374100D01*
X459753Y374132D01*
X459786Y374153D01*
X459811Y374169D01*
X459815Y374173D01*
X459819D01*
X459893Y374210D01*
X459971Y374235D01*
X460044Y374255D01*
X460114Y374268D01*
X460171Y374276D01*
X460221Y374280D01*
X460323D01*
X460385Y374272D01*
X460499Y374251D01*
X460602Y374223D01*
X460692Y374190D01*
X460733Y374173D01*
X460766Y374157D01*
X460799Y374141D01*
X460823Y374128D01*
X460844Y374116D01*
X460860Y374108D01*
X460868Y374104D01*
X460873Y374100D01*
X460971Y374026D01*
X461053Y373944D01*
X461123Y373862D01*
X461180Y373776D01*
X461225Y373702D01*
X461241Y373669D01*
X461258Y373644D01*
X461266Y373620D01*
X461274Y373604D01*
X461282Y373591D01*
Y373587D01*
X461328Y373460D01*
X461360Y373329D01*
X461385Y373206D01*
X461401Y373091D01*
X461406Y373038D01*
X461410Y372989D01*
X461414Y372948D01*
Y372911D01*
X461418Y372882D01*
Y372861D01*
Y372845D01*
Y372841D01*
X461410Y372689D01*
X461393Y372550D01*
X461385Y372484D01*
X461373Y372423D01*
X461356Y372365D01*
X461344Y372312D01*
X461332Y372267D01*
X461315Y372222D01*
X461303Y372185D01*
X461295Y372156D01*
X461282Y372132D01*
X461278Y372115D01*
X461270Y372103D01*
Y372099D01*
X461209Y371984D01*
X461139Y371882D01*
X461069Y371795D01*
X461000Y371726D01*
X460938Y371668D01*
X460914Y371648D01*
X460889Y371627D01*
X460868Y371615D01*
X460856Y371603D01*
X460848Y371599D01*
X460844Y371595D01*
X460790Y371562D01*
X460737Y371537D01*
X460635Y371492D01*
X460532Y371459D01*
X460438Y371439D01*
X460397Y371430D01*
X460360Y371422D01*
X460327Y371418D01*
X460298D01*
X460274Y371414D01*
X460241D01*
X460147Y371418D01*
X460061Y371430D01*
X459983Y371451D01*
X459905Y371480D01*
X459835Y371508D01*
X459774Y371541D01*
X459716Y371578D01*
X459663Y371619D01*
X459618Y371656D01*
X459581Y371693D01*
X459548Y371726D01*
X459519Y371759D01*
X459499Y371783D01*
X459483Y371804D01*
X459474Y371816D01*
X459470Y371820D01*
Y371476D01*
X459040D01*
Y375260D01*
X459503D01*
Y373899D01*
D02*
G37*
G36*
X449216D02*
X449265Y373960D01*
X449319Y374013D01*
X449372Y374059D01*
X449421Y374100D01*
X449466Y374132D01*
X449499Y374153D01*
X449524Y374169D01*
X449528Y374173D01*
X449532D01*
X449606Y374210D01*
X449684Y374235D01*
X449757Y374255D01*
X449827Y374268D01*
X449885Y374276D01*
X449934Y374280D01*
X450036D01*
X450098Y374272D01*
X450212Y374251D01*
X450315Y374223D01*
X450405Y374190D01*
X450446Y374173D01*
X450479Y374157D01*
X450512Y374141D01*
X450536Y374128D01*
X450557Y374116D01*
X450573Y374108D01*
X450582Y374104D01*
X450586Y374100D01*
X450684Y374026D01*
X450766Y373944D01*
X450836Y373862D01*
X450893Y373776D01*
X450938Y373702D01*
X450955Y373669D01*
X450971Y373644D01*
X450979Y373620D01*
X450987Y373604D01*
X450996Y373591D01*
Y373587D01*
X451041Y373460D01*
X451074Y373329D01*
X451098Y373206D01*
X451115Y373091D01*
X451119Y373038D01*
X451123Y372989D01*
X451127Y372948D01*
Y372911D01*
X451131Y372882D01*
Y372861D01*
Y372845D01*
Y372841D01*
X451123Y372689D01*
X451106Y372550D01*
X451098Y372484D01*
X451086Y372423D01*
X451069Y372365D01*
X451057Y372312D01*
X451045Y372267D01*
X451028Y372222D01*
X451016Y372185D01*
X451008Y372156D01*
X450996Y372132D01*
X450991Y372115D01*
X450983Y372103D01*
Y372099D01*
X450922Y371984D01*
X450852Y371882D01*
X450782Y371795D01*
X450713Y371726D01*
X450651Y371668D01*
X450627Y371648D01*
X450602Y371627D01*
X450582Y371615D01*
X450569Y371603D01*
X450561Y371599D01*
X450557Y371595D01*
X450504Y371562D01*
X450450Y371537D01*
X450348Y371492D01*
X450245Y371459D01*
X450151Y371439D01*
X450110Y371430D01*
X450073Y371422D01*
X450040Y371418D01*
X450012D01*
X449987Y371414D01*
X449954D01*
X449860Y371418D01*
X449774Y371430D01*
X449696Y371451D01*
X449618Y371480D01*
X449548Y371508D01*
X449487Y371541D01*
X449429Y371578D01*
X449376Y371619D01*
X449331Y371656D01*
X449294Y371693D01*
X449261Y371726D01*
X449233Y371759D01*
X449212Y371783D01*
X449196Y371804D01*
X449188Y371816D01*
X449183Y371820D01*
Y371476D01*
X448753D01*
Y375260D01*
X449216D01*
Y373899D01*
D02*
G37*
G36*
X465592Y368406D02*
Y366807D01*
X465091D01*
Y368406D01*
X463583Y370592D01*
X464165D01*
X464899Y369477D01*
X464985Y369341D01*
X465067Y369214D01*
X465136Y369103D01*
X465169Y369050D01*
X465198Y369005D01*
X465223Y368964D01*
X465247Y368923D01*
X465264Y368890D01*
X465280Y368866D01*
X465296Y368841D01*
X465305Y368825D01*
X465309Y368816D01*
X465313Y368812D01*
X465378Y368931D01*
X465448Y369046D01*
X465514Y369153D01*
X465571Y369247D01*
X465600Y369292D01*
X465624Y369329D01*
X465645Y369366D01*
X465661Y369394D01*
X465678Y369415D01*
X465690Y369436D01*
X465694Y369444D01*
X465698Y369448D01*
X466444Y370592D01*
X467051D01*
X465592Y368406D01*
D02*
G37*
G36*
X463374Y367943D02*
X461943D01*
Y368410D01*
X463374D01*
Y367943D01*
D02*
G37*
G36*
X477740Y370653D02*
X477830Y370649D01*
X477998Y370620D01*
X478080Y370604D01*
X478154Y370584D01*
X478228Y370563D01*
X478293Y370543D01*
X478351Y370522D01*
X478404Y370501D01*
X478453Y370481D01*
X478490Y370465D01*
X478523Y370448D01*
X478544Y370436D01*
X478560Y370432D01*
X478564Y370428D01*
X478638Y370383D01*
X478712Y370333D01*
X478777Y370280D01*
X478839Y370227D01*
X478896Y370169D01*
X478949Y370116D01*
X478995Y370059D01*
X479040Y370009D01*
X479076Y369956D01*
X479109Y369911D01*
X479138Y369870D01*
X479163Y369833D01*
X479179Y369800D01*
X479191Y369780D01*
X479200Y369763D01*
X479204Y369759D01*
X479245Y369677D01*
X479277Y369587D01*
X479306Y369501D01*
X479335Y369415D01*
X479376Y369239D01*
X479388Y369157D01*
X479400Y369079D01*
X479409Y369005D01*
X479417Y368939D01*
X479421Y368878D01*
X479425Y368825D01*
X479429Y368784D01*
Y368751D01*
Y368734D01*
Y368726D01*
X479425Y368628D01*
X479421Y368529D01*
X479396Y368341D01*
X479384Y368251D01*
X479368Y368169D01*
X479347Y368091D01*
X479331Y368017D01*
X479310Y367951D01*
X479294Y367890D01*
X479277Y367841D01*
X479261Y367795D01*
X479249Y367763D01*
X479241Y367734D01*
X479236Y367718D01*
X479232Y367713D01*
X479191Y367627D01*
X479150Y367545D01*
X479105Y367472D01*
X479056Y367402D01*
X479007Y367336D01*
X478962Y367279D01*
X478912Y367226D01*
X478867Y367176D01*
X478822Y367131D01*
X478781Y367094D01*
X478744Y367066D01*
X478712Y367037D01*
X478687Y367017D01*
X478666Y367004D01*
X478654Y366996D01*
X478650Y366992D01*
X478576Y366947D01*
X478498Y366910D01*
X478416Y366877D01*
X478330Y366848D01*
X478248Y366828D01*
X478166Y366807D01*
X478084Y366791D01*
X478006Y366779D01*
X477933Y366766D01*
X477867Y366758D01*
X477806Y366754D01*
X477756Y366750D01*
X477711Y366746D01*
X477654D01*
X477543Y366750D01*
X477441Y366758D01*
X477342Y366775D01*
X477248Y366795D01*
X477158Y366820D01*
X477076Y366848D01*
X477002Y366877D01*
X476932Y366906D01*
X476867Y366934D01*
X476813Y366963D01*
X476764Y366992D01*
X476727Y367017D01*
X476694Y367037D01*
X476674Y367053D01*
X476657Y367062D01*
X476653Y367066D01*
X476580Y367131D01*
X476510Y367201D01*
X476448Y367275D01*
X476391Y367349D01*
X476338Y367426D01*
X476293Y367509D01*
X476252Y367582D01*
X476215Y367660D01*
X476182Y367730D01*
X476157Y367795D01*
X476133Y367857D01*
X476116Y367906D01*
X476100Y367951D01*
X476092Y367980D01*
X476084Y368001D01*
Y368009D01*
X476584Y368136D01*
X476604Y368050D01*
X476633Y367968D01*
X476662Y367890D01*
X476690Y367820D01*
X476723Y367755D01*
X476756Y367697D01*
X476789Y367644D01*
X476822Y367595D01*
X476854Y367554D01*
X476883Y367517D01*
X476912Y367484D01*
X476932Y367459D01*
X476953Y367439D01*
X476969Y367426D01*
X476977Y367418D01*
X476981Y367414D01*
X477039Y367373D01*
X477096Y367336D01*
X477154Y367303D01*
X477215Y367275D01*
X477277Y367250D01*
X477334Y367230D01*
X477449Y367201D01*
X477498Y367193D01*
X477547Y367185D01*
X477588Y367180D01*
X477625Y367176D01*
X477654Y367172D01*
X477695D01*
X477760Y367176D01*
X477822Y367180D01*
X477941Y367201D01*
X478052Y367230D01*
X478146Y367263D01*
X478187Y367279D01*
X478224Y367291D01*
X478257Y367308D01*
X478285Y367320D01*
X478310Y367332D01*
X478326Y367340D01*
X478334Y367349D01*
X478338D01*
X478392Y367386D01*
X478441Y367422D01*
X478531Y367509D01*
X478605Y367595D01*
X478666Y367685D01*
X478712Y367763D01*
X478732Y367795D01*
X478749Y367828D01*
X478757Y367853D01*
X478765Y367869D01*
X478773Y367882D01*
Y367886D01*
X478818Y368025D01*
X478855Y368169D01*
X478880Y368312D01*
X478888Y368378D01*
X478896Y368443D01*
X478900Y368505D01*
X478904Y368558D01*
X478908Y368607D01*
Y368648D01*
X478912Y368685D01*
Y368710D01*
Y368726D01*
Y368730D01*
X478908Y368870D01*
X478896Y369001D01*
X478876Y369124D01*
X478867Y369181D01*
X478855Y369235D01*
X478843Y369280D01*
X478835Y369325D01*
X478822Y369362D01*
X478814Y369394D01*
X478810Y369419D01*
X478802Y369440D01*
X478798Y369452D01*
Y369456D01*
X478744Y369583D01*
X478683Y369694D01*
X478617Y369788D01*
X478580Y369829D01*
X478548Y369870D01*
X478515Y369903D01*
X478486Y369932D01*
X478457Y369960D01*
X478437Y369981D01*
X478416Y369997D01*
X478400Y370009D01*
X478392Y370014D01*
X478388Y370018D01*
X478330Y370055D01*
X478273Y370087D01*
X478211Y370116D01*
X478150Y370141D01*
X478027Y370178D01*
X477908Y370206D01*
X477859Y370215D01*
X477810Y370219D01*
X477765Y370223D01*
X477728Y370227D01*
X477695Y370231D01*
X477584D01*
X477519Y370223D01*
X477395Y370202D01*
X477289Y370169D01*
X477244Y370153D01*
X477199Y370137D01*
X477158Y370120D01*
X477125Y370104D01*
X477096Y370087D01*
X477072Y370071D01*
X477051Y370059D01*
X477039Y370051D01*
X477031Y370046D01*
X477027Y370042D01*
X476981Y370005D01*
X476936Y369964D01*
X476862Y369870D01*
X476793Y369768D01*
X476740Y369669D01*
X476698Y369579D01*
X476678Y369542D01*
X476666Y369509D01*
X476653Y369481D01*
X476649Y369456D01*
X476641Y369444D01*
Y369440D01*
X476149Y369554D01*
X476182Y369649D01*
X476219Y369739D01*
X476256Y369825D01*
X476301Y369903D01*
X476342Y369977D01*
X476387Y370042D01*
X476432Y370104D01*
X476477Y370157D01*
X476522Y370206D01*
X476559Y370247D01*
X476596Y370284D01*
X476629Y370313D01*
X476653Y370338D01*
X476674Y370354D01*
X476686Y370362D01*
X476690Y370366D01*
X476764Y370420D01*
X476842Y370461D01*
X476920Y370501D01*
X477002Y370534D01*
X477084Y370563D01*
X477162Y370588D01*
X477240Y370604D01*
X477314Y370620D01*
X477383Y370633D01*
X477445Y370641D01*
X477502Y370649D01*
X477551Y370653D01*
X477592Y370657D01*
X477646D01*
X477740Y370653D01*
D02*
G37*
G36*
X473923D02*
X474013Y370649D01*
X474181Y370620D01*
X474263Y370604D01*
X474337Y370584D01*
X474411Y370563D01*
X474476Y370543D01*
X474534Y370522D01*
X474587Y370501D01*
X474636Y370481D01*
X474673Y370465D01*
X474706Y370448D01*
X474726Y370436D01*
X474743Y370432D01*
X474747Y370428D01*
X474821Y370383D01*
X474895Y370333D01*
X474960Y370280D01*
X475022Y370227D01*
X475079Y370169D01*
X475132Y370116D01*
X475177Y370059D01*
X475222Y370009D01*
X475259Y369956D01*
X475292Y369911D01*
X475321Y369870D01*
X475346Y369833D01*
X475362Y369800D01*
X475374Y369780D01*
X475382Y369763D01*
X475386Y369759D01*
X475427Y369677D01*
X475460Y369587D01*
X475489Y369501D01*
X475518Y369415D01*
X475559Y369239D01*
X475571Y369157D01*
X475583Y369079D01*
X475592Y369005D01*
X475600Y368939D01*
X475604Y368878D01*
X475608Y368825D01*
X475612Y368784D01*
Y368751D01*
Y368734D01*
Y368726D01*
X475608Y368628D01*
X475604Y368529D01*
X475579Y368341D01*
X475567Y368251D01*
X475551Y368169D01*
X475530Y368091D01*
X475514Y368017D01*
X475493Y367951D01*
X475477Y367890D01*
X475460Y367841D01*
X475444Y367795D01*
X475432Y367763D01*
X475423Y367734D01*
X475419Y367718D01*
X475415Y367713D01*
X475374Y367627D01*
X475333Y367545D01*
X475288Y367472D01*
X475239Y367402D01*
X475190Y367336D01*
X475145Y367279D01*
X475095Y367226D01*
X475050Y367176D01*
X475005Y367131D01*
X474964Y367094D01*
X474927Y367066D01*
X474895Y367037D01*
X474870Y367017D01*
X474849Y367004D01*
X474837Y366996D01*
X474833Y366992D01*
X474759Y366947D01*
X474681Y366910D01*
X474599Y366877D01*
X474513Y366848D01*
X474431Y366828D01*
X474349Y366807D01*
X474267Y366791D01*
X474189Y366779D01*
X474116Y366766D01*
X474050Y366758D01*
X473988Y366754D01*
X473939Y366750D01*
X473894Y366746D01*
X473837D01*
X473726Y366750D01*
X473624Y366758D01*
X473525Y366775D01*
X473431Y366795D01*
X473341Y366820D01*
X473259Y366848D01*
X473185Y366877D01*
X473115Y366906D01*
X473049Y366934D01*
X472996Y366963D01*
X472947Y366992D01*
X472910Y367017D01*
X472877Y367037D01*
X472857Y367053D01*
X472840Y367062D01*
X472836Y367066D01*
X472762Y367131D01*
X472693Y367201D01*
X472631Y367275D01*
X472574Y367349D01*
X472521Y367426D01*
X472475Y367509D01*
X472435Y367582D01*
X472398Y367660D01*
X472365Y367730D01*
X472340Y367795D01*
X472316Y367857D01*
X472299Y367906D01*
X472283Y367951D01*
X472275Y367980D01*
X472266Y368001D01*
Y368009D01*
X472767Y368136D01*
X472787Y368050D01*
X472816Y367968D01*
X472845Y367890D01*
X472873Y367820D01*
X472906Y367755D01*
X472939Y367697D01*
X472972Y367644D01*
X473004Y367595D01*
X473037Y367554D01*
X473066Y367517D01*
X473095Y367484D01*
X473115Y367459D01*
X473136Y367439D01*
X473152Y367426D01*
X473160Y367418D01*
X473164Y367414D01*
X473222Y367373D01*
X473279Y367336D01*
X473337Y367303D01*
X473398Y367275D01*
X473459Y367250D01*
X473517Y367230D01*
X473632Y367201D01*
X473681Y367193D01*
X473730Y367185D01*
X473771Y367180D01*
X473808Y367176D01*
X473837Y367172D01*
X473878D01*
X473943Y367176D01*
X474005Y367180D01*
X474124Y367201D01*
X474234Y367230D01*
X474329Y367263D01*
X474370Y367279D01*
X474407Y367291D01*
X474439Y367308D01*
X474468Y367320D01*
X474493Y367332D01*
X474509Y367340D01*
X474517Y367349D01*
X474521D01*
X474575Y367386D01*
X474624Y367422D01*
X474714Y367509D01*
X474788Y367595D01*
X474849Y367685D01*
X474895Y367763D01*
X474915Y367795D01*
X474931Y367828D01*
X474940Y367853D01*
X474948Y367869D01*
X474956Y367882D01*
Y367886D01*
X475001Y368025D01*
X475038Y368169D01*
X475063Y368312D01*
X475071Y368378D01*
X475079Y368443D01*
X475083Y368505D01*
X475087Y368558D01*
X475091Y368607D01*
Y368648D01*
X475095Y368685D01*
Y368710D01*
Y368726D01*
Y368730D01*
X475091Y368870D01*
X475079Y369001D01*
X475059Y369124D01*
X475050Y369181D01*
X475038Y369235D01*
X475026Y369280D01*
X475017Y369325D01*
X475005Y369362D01*
X474997Y369394D01*
X474993Y369419D01*
X474985Y369440D01*
X474981Y369452D01*
Y369456D01*
X474927Y369583D01*
X474866Y369694D01*
X474800Y369788D01*
X474763Y369829D01*
X474730Y369870D01*
X474698Y369903D01*
X474669Y369932D01*
X474640Y369960D01*
X474620Y369981D01*
X474599Y369997D01*
X474583Y370009D01*
X474575Y370014D01*
X474571Y370018D01*
X474513Y370055D01*
X474456Y370087D01*
X474394Y370116D01*
X474333Y370141D01*
X474210Y370178D01*
X474091Y370206D01*
X474042Y370215D01*
X473992Y370219D01*
X473947Y370223D01*
X473911Y370227D01*
X473878Y370231D01*
X473767D01*
X473701Y370223D01*
X473578Y370202D01*
X473472Y370169D01*
X473427Y370153D01*
X473382Y370137D01*
X473341Y370120D01*
X473308Y370104D01*
X473279Y370087D01*
X473254Y370071D01*
X473234Y370059D01*
X473222Y370051D01*
X473213Y370046D01*
X473209Y370042D01*
X473164Y370005D01*
X473119Y369964D01*
X473045Y369870D01*
X472976Y369768D01*
X472922Y369669D01*
X472881Y369579D01*
X472861Y369542D01*
X472849Y369509D01*
X472836Y369481D01*
X472832Y369456D01*
X472824Y369444D01*
Y369440D01*
X472332Y369554D01*
X472365Y369649D01*
X472402Y369739D01*
X472439Y369825D01*
X472484Y369903D01*
X472525Y369977D01*
X472570Y370042D01*
X472615Y370104D01*
X472660Y370157D01*
X472705Y370206D01*
X472742Y370247D01*
X472779Y370284D01*
X472812Y370313D01*
X472836Y370338D01*
X472857Y370354D01*
X472869Y370362D01*
X472873Y370366D01*
X472947Y370420D01*
X473025Y370461D01*
X473103Y370501D01*
X473185Y370534D01*
X473267Y370563D01*
X473345Y370588D01*
X473423Y370604D01*
X473496Y370620D01*
X473566Y370633D01*
X473628Y370641D01*
X473685Y370649D01*
X473734Y370653D01*
X473775Y370657D01*
X473829D01*
X473923Y370653D01*
D02*
G37*
G36*
X470204Y366807D02*
X468765D01*
X468634Y366811D01*
X468515Y366816D01*
X468412Y366828D01*
X468363Y366832D01*
X468322Y366840D01*
X468285Y366844D01*
X468253Y366848D01*
X468224Y366857D01*
X468199Y366861D01*
X468179Y366865D01*
X468166D01*
X468158Y366869D01*
X468154D01*
X468064Y366894D01*
X467982Y366922D01*
X467912Y366955D01*
X467855Y366984D01*
X467806Y367012D01*
X467769Y367033D01*
X467748Y367049D01*
X467740Y367053D01*
X467678Y367107D01*
X467625Y367164D01*
X467576Y367221D01*
X467539Y367279D01*
X467506Y367328D01*
X467482Y367369D01*
X467474Y367386D01*
X467465Y367398D01*
X467461Y367402D01*
Y367406D01*
X467424Y367492D01*
X467396Y367582D01*
X467375Y367664D01*
X467359Y367742D01*
X467350Y367808D01*
Y367832D01*
X467346Y367857D01*
Y367878D01*
Y367890D01*
Y367898D01*
Y367902D01*
Y367964D01*
X467355Y368021D01*
X467375Y368132D01*
X467408Y368230D01*
X467441Y368312D01*
X467457Y368349D01*
X467474Y368382D01*
X467490Y368410D01*
X467506Y368435D01*
X467519Y368451D01*
X467527Y368464D01*
X467531Y368472D01*
X467535Y368476D01*
X467609Y368562D01*
X467695Y368632D01*
X467781Y368693D01*
X467867Y368739D01*
X467941Y368775D01*
X467974Y368788D01*
X468002Y368800D01*
X468027Y368808D01*
X468043Y368816D01*
X468056Y368821D01*
X468060D01*
X467966Y368874D01*
X467888Y368931D01*
X467818Y368989D01*
X467765Y369042D01*
X467720Y369091D01*
X467691Y369128D01*
X467678Y369144D01*
X467670Y369157D01*
X467666Y369161D01*
Y369165D01*
X467621Y369247D01*
X467588Y369325D01*
X467564Y369403D01*
X467547Y369472D01*
X467539Y369534D01*
X467531Y369579D01*
Y369595D01*
Y369608D01*
Y369616D01*
Y369620D01*
X467539Y369718D01*
X467556Y369809D01*
X467580Y369895D01*
X467605Y369969D01*
X467633Y370030D01*
X467646Y370059D01*
X467658Y370079D01*
X467670Y370096D01*
X467674Y370108D01*
X467683Y370116D01*
Y370120D01*
X467744Y370202D01*
X467810Y370276D01*
X467875Y370338D01*
X467941Y370387D01*
X468002Y370424D01*
X468048Y370452D01*
X468068Y370461D01*
X468080Y370469D01*
X468088Y370473D01*
X468093D01*
X468199Y370514D01*
X468310Y370543D01*
X468429Y370563D01*
X468535Y370575D01*
X468589Y370584D01*
X468634Y370588D01*
X468679D01*
X468716Y370592D01*
X470204D01*
Y366807D01*
D02*
G37*
G36*
X458257D02*
X457728D01*
X457318Y367951D01*
X455727D01*
X455288Y366807D01*
X454718D01*
X456268Y370592D01*
X456809D01*
X458257Y366807D01*
D02*
G37*
G36*
X453197Y368140D02*
Y367713D01*
X451549D01*
Y366807D01*
X451086D01*
Y367713D01*
X450573D01*
Y368140D01*
X451086D01*
Y370592D01*
X451467D01*
X453197Y368140D01*
D02*
G37*
G36*
X449839Y366807D02*
X449310D01*
Y367336D01*
X449839D01*
Y366807D01*
D02*
G37*
G36*
X460204Y370653D02*
X460335Y370637D01*
X460450Y370616D01*
X460503Y370604D01*
X460553Y370592D01*
X460598Y370579D01*
X460639Y370567D01*
X460676Y370555D01*
X460704Y370547D01*
X460725Y370538D01*
X460745Y370530D01*
X460754Y370526D01*
X460758D01*
X460868Y370473D01*
X460963Y370411D01*
X461045Y370350D01*
X461110Y370288D01*
X461164Y370231D01*
X461205Y370186D01*
X461217Y370169D01*
X461225Y370157D01*
X461233Y370149D01*
Y370145D01*
X461287Y370051D01*
X461328Y369956D01*
X461352Y369870D01*
X461373Y369788D01*
X461385Y369714D01*
X461389Y369686D01*
Y369661D01*
X461393Y369640D01*
Y369624D01*
Y369616D01*
Y369612D01*
X461389Y369517D01*
X461373Y369427D01*
X461352Y369345D01*
X461328Y369276D01*
X461303Y369218D01*
X461282Y369173D01*
X461274Y369157D01*
X461266Y369144D01*
X461262Y369140D01*
Y369136D01*
X461209Y369062D01*
X461143Y368993D01*
X461077Y368935D01*
X461008Y368882D01*
X460950Y368841D01*
X460901Y368812D01*
X460881Y368804D01*
X460868Y368796D01*
X460860Y368788D01*
X460856D01*
X460815Y368767D01*
X460766Y368747D01*
X460713Y368726D01*
X460655Y368706D01*
X460536Y368665D01*
X460413Y368628D01*
X460356Y368611D01*
X460307Y368595D01*
X460257Y368583D01*
X460212Y368570D01*
X460180Y368562D01*
X460151Y368554D01*
X460135Y368550D01*
X460130D01*
X460036Y368529D01*
X459950Y368505D01*
X459876Y368488D01*
X459806Y368468D01*
X459745Y368451D01*
X459688Y368439D01*
X459643Y368423D01*
X459597Y368410D01*
X459565Y368402D01*
X459532Y368390D01*
X459507Y368382D01*
X459491Y368378D01*
X459474Y368374D01*
X459466Y368370D01*
X459458Y368365D01*
X459376Y368328D01*
X459306Y368292D01*
X459245Y368255D01*
X459200Y368222D01*
X459163Y368189D01*
X459138Y368164D01*
X459122Y368148D01*
X459118Y368144D01*
X459081Y368095D01*
X459056Y368041D01*
X459036Y367988D01*
X459023Y367939D01*
X459015Y367898D01*
X459011Y367861D01*
Y367841D01*
Y367836D01*
Y367832D01*
X459015Y367771D01*
X459027Y367709D01*
X459048Y367656D01*
X459064Y367607D01*
X459085Y367566D01*
X459105Y367533D01*
X459118Y367517D01*
X459122Y367509D01*
X459167Y367455D01*
X459216Y367410D01*
X459273Y367369D01*
X459327Y367336D01*
X459376Y367312D01*
X459413Y367291D01*
X459429Y367283D01*
X459442Y367279D01*
X459446Y367275D01*
X459450D01*
X459532Y367246D01*
X459618Y367226D01*
X459704Y367213D01*
X459782Y367205D01*
X459847Y367197D01*
X459876D01*
X459901Y367193D01*
X459950D01*
X460069Y367197D01*
X460176Y367209D01*
X460278Y367230D01*
X460364Y367250D01*
X460401Y367258D01*
X460434Y367267D01*
X460463Y367279D01*
X460487Y367287D01*
X460508Y367295D01*
X460520Y367299D01*
X460528Y367303D01*
X460532D01*
X460622Y367349D01*
X460700Y367398D01*
X460766Y367443D01*
X460819Y367492D01*
X460860Y367533D01*
X460889Y367566D01*
X460909Y367586D01*
X460914Y367595D01*
X460955Y367668D01*
X460987Y367746D01*
X461012Y367824D01*
X461032Y367898D01*
X461049Y367968D01*
X461053Y367992D01*
X461057Y368017D01*
X461061Y368037D01*
X461065Y368054D01*
Y368062D01*
Y368066D01*
X461537Y368025D01*
X461533Y367955D01*
X461524Y367886D01*
X461500Y367759D01*
X461467Y367640D01*
X461451Y367586D01*
X461430Y367541D01*
X461414Y367496D01*
X461393Y367455D01*
X461377Y367422D01*
X461360Y367394D01*
X461348Y367369D01*
X461340Y367353D01*
X461336Y367344D01*
X461332Y367340D01*
X461254Y367234D01*
X461164Y367144D01*
X461073Y367066D01*
X460987Y367004D01*
X460909Y366955D01*
X460877Y366939D01*
X460848Y366922D01*
X460823Y366910D01*
X460807Y366902D01*
X460795Y366894D01*
X460790D01*
X460651Y366844D01*
X460508Y366807D01*
X460364Y366783D01*
X460229Y366766D01*
X460163Y366758D01*
X460106Y366754D01*
X460057Y366750D01*
X460011D01*
X459975Y366746D01*
X459925D01*
X459778Y366754D01*
X459643Y366771D01*
X459519Y366791D01*
X459462Y366807D01*
X459413Y366820D01*
X459364Y366832D01*
X459323Y366848D01*
X459286Y366861D01*
X459257Y366869D01*
X459233Y366881D01*
X459216Y366885D01*
X459204Y366894D01*
X459200D01*
X459085Y366955D01*
X458987Y367021D01*
X458900Y367090D01*
X458831Y367156D01*
X458773Y367217D01*
X458736Y367263D01*
X458720Y367283D01*
X458712Y367295D01*
X458704Y367303D01*
Y367308D01*
X458671Y367357D01*
X458646Y367410D01*
X458601Y367509D01*
X458568Y367603D01*
X458548Y367689D01*
X458535Y367767D01*
X458531Y367795D01*
Y367824D01*
X458527Y367845D01*
Y367861D01*
Y367869D01*
Y367873D01*
X458535Y367984D01*
X458552Y368087D01*
X458576Y368177D01*
X458605Y368255D01*
X458638Y368320D01*
X458650Y368349D01*
X458663Y368370D01*
X458671Y368386D01*
X458679Y368398D01*
X458687Y368406D01*
Y368410D01*
X458720Y368451D01*
X458753Y368493D01*
X458831Y368570D01*
X458909Y368636D01*
X458991Y368689D01*
X459060Y368734D01*
X459093Y368755D01*
X459122Y368767D01*
X459142Y368779D01*
X459159Y368788D01*
X459171Y368796D01*
X459175D01*
X459220Y368816D01*
X459278Y368837D01*
X459335Y368857D01*
X459401Y368878D01*
X459540Y368915D01*
X459679Y368952D01*
X459745Y368972D01*
X459806Y368985D01*
X459864Y369001D01*
X459913Y369009D01*
X459954Y369021D01*
X459983Y369030D01*
X460003Y369034D01*
X460011D01*
X460122Y369058D01*
X460221Y369087D01*
X460307Y369112D01*
X460389Y369136D01*
X460458Y369161D01*
X460520Y369181D01*
X460573Y369202D01*
X460618Y369222D01*
X460655Y369243D01*
X460688Y369259D01*
X460713Y369271D01*
X460733Y369284D01*
X460749Y369296D01*
X460758Y369304D01*
X460766Y369308D01*
X460815Y369362D01*
X460848Y369415D01*
X460873Y369472D01*
X460893Y369526D01*
X460901Y369571D01*
X460905Y369608D01*
X460909Y369632D01*
Y369636D01*
Y369640D01*
X460905Y369686D01*
X460901Y369727D01*
X460877Y369800D01*
X460844Y369870D01*
X460807Y369928D01*
X460770Y369977D01*
X460737Y370014D01*
X460713Y370034D01*
X460709Y370042D01*
X460704D01*
X460663Y370071D01*
X460614Y370100D01*
X460512Y370141D01*
X460405Y370169D01*
X460294Y370190D01*
X460245Y370198D01*
X460196Y370202D01*
X460155Y370206D01*
X460118D01*
X460085Y370210D01*
X459966D01*
X459893Y370202D01*
X459823Y370194D01*
X459757Y370182D01*
X459700Y370169D01*
X459647Y370153D01*
X459597Y370137D01*
X459552Y370120D01*
X459515Y370100D01*
X459483Y370083D01*
X459454Y370067D01*
X459429Y370055D01*
X459413Y370042D01*
X459397Y370034D01*
X459392Y370030D01*
X459388Y370026D01*
X459347Y369989D01*
X459310Y369952D01*
X459253Y369866D01*
X459204Y369776D01*
X459171Y369690D01*
X459146Y369612D01*
X459138Y369579D01*
X459130Y369546D01*
X459126Y369522D01*
Y369505D01*
X459122Y369493D01*
Y369489D01*
X458642Y369526D01*
X458654Y369649D01*
X458679Y369759D01*
X458708Y369862D01*
X458741Y369948D01*
X458761Y369985D01*
X458773Y370022D01*
X458790Y370051D01*
X458802Y370075D01*
X458814Y370096D01*
X458822Y370108D01*
X458827Y370116D01*
X458831Y370120D01*
X458900Y370215D01*
X458978Y370292D01*
X459060Y370362D01*
X459142Y370420D01*
X459212Y370461D01*
X459245Y370477D01*
X459269Y370493D01*
X459290Y370506D01*
X459310Y370510D01*
X459319Y370518D01*
X459323D01*
X459446Y370563D01*
X459573Y370600D01*
X459700Y370624D01*
X459815Y370641D01*
X459868Y370645D01*
X459913Y370649D01*
X459958Y370653D01*
X459995Y370657D01*
X460065D01*
X460204Y370653D01*
D02*
G37*
G36*
X447474Y370600D02*
X447547Y370596D01*
X447617Y370584D01*
X447683Y370571D01*
X447740Y370555D01*
X447798Y370534D01*
X447851Y370514D01*
X447896Y370493D01*
X447941Y370473D01*
X447978Y370452D01*
X448011Y370436D01*
X448035Y370415D01*
X448056Y370403D01*
X448072Y370391D01*
X448080Y370387D01*
X448085Y370383D01*
X448134Y370338D01*
X448179Y370292D01*
X448261Y370190D01*
X448335Y370087D01*
X448392Y369985D01*
X448417Y369936D01*
X448437Y369895D01*
X448454Y369854D01*
X448470Y369821D01*
X448478Y369792D01*
X448486Y369768D01*
X448495Y369755D01*
Y369751D01*
X448519Y369673D01*
X448540Y369587D01*
X448572Y369411D01*
X448597Y369231D01*
X448605Y369144D01*
X448614Y369058D01*
X448618Y368980D01*
X448622Y368907D01*
X448626Y368841D01*
Y368784D01*
X448630Y368739D01*
Y368702D01*
Y368681D01*
Y368673D01*
X448626Y368480D01*
X448614Y368300D01*
X448597Y368136D01*
X448572Y367984D01*
X448544Y367845D01*
X448511Y367718D01*
X448478Y367607D01*
X448441Y367504D01*
X448409Y367418D01*
X448376Y367340D01*
X448343Y367279D01*
X448314Y367226D01*
X448290Y367185D01*
X448273Y367156D01*
X448261Y367140D01*
X448257Y367135D01*
X448195Y367066D01*
X448130Y367008D01*
X448060Y366955D01*
X447990Y366910D01*
X447921Y366873D01*
X447847Y366840D01*
X447777Y366816D01*
X447712Y366795D01*
X447646Y366779D01*
X447588Y366766D01*
X447535Y366758D01*
X447490Y366754D01*
X447453Y366750D01*
X447425Y366746D01*
X447400D01*
X447322Y366750D01*
X447252Y366754D01*
X447183Y366766D01*
X447117Y366779D01*
X447055Y366799D01*
X447002Y366816D01*
X446949Y366836D01*
X446904Y366857D01*
X446859Y366877D01*
X446822Y366898D01*
X446789Y366918D01*
X446764Y366934D01*
X446744Y366947D01*
X446728Y366959D01*
X446719Y366963D01*
X446715Y366967D01*
X446666Y367012D01*
X446617Y367057D01*
X446535Y367160D01*
X446465Y367263D01*
X446408Y367365D01*
X446383Y367414D01*
X446363Y367459D01*
X446346Y367496D01*
X446330Y367533D01*
X446317Y367558D01*
X446313Y367582D01*
X446305Y367595D01*
Y367599D01*
X446281Y367677D01*
X446260Y367763D01*
X446223Y367939D01*
X446199Y368119D01*
X446190Y368205D01*
X446182Y368292D01*
X446178Y368370D01*
X446174Y368443D01*
X446170Y368505D01*
X446166Y368562D01*
Y368607D01*
Y368644D01*
Y368665D01*
Y368673D01*
Y368775D01*
X446170Y368874D01*
X446174Y368964D01*
X446178Y369050D01*
X446186Y369128D01*
X446195Y369202D01*
X446203Y369267D01*
X446207Y369329D01*
X446215Y369382D01*
X446223Y369427D01*
X446231Y369468D01*
X446240Y369501D01*
X446244Y369530D01*
X446248Y369546D01*
X446252Y369559D01*
Y369563D01*
X446285Y369682D01*
X446326Y369792D01*
X446363Y369886D01*
X446399Y369969D01*
X446420Y370001D01*
X446432Y370034D01*
X446449Y370063D01*
X446461Y370083D01*
X446473Y370100D01*
X446477Y370112D01*
X446486Y370120D01*
Y370124D01*
X446543Y370206D01*
X446609Y370280D01*
X446670Y370342D01*
X446732Y370391D01*
X446785Y370432D01*
X446826Y370456D01*
X446842Y370469D01*
X446855Y370477D01*
X446863Y370481D01*
X446867D01*
X446957Y370522D01*
X447047Y370551D01*
X447137Y370575D01*
X447220Y370588D01*
X447293Y370596D01*
X447322Y370600D01*
X447351Y370604D01*
X447400D01*
X447474Y370600D01*
D02*
G37*
G36*
X461926Y361175D02*
X461617D01*
Y361527D01*
X461926D01*
Y361175D01*
D02*
G37*
G36*
X434347D02*
X434039D01*
Y361527D01*
X434347D01*
Y361175D01*
D02*
G37*
G36*
X421440Y359008D02*
X421153D01*
Y359234D01*
X421118Y359188D01*
X421079Y359147D01*
X421038Y359111D01*
X420997Y359079D01*
X420954Y359054D01*
X420913Y359032D01*
X420872Y359013D01*
X420831Y358999D01*
X420795Y358988D01*
X420760Y358980D01*
X420727Y358975D01*
X420700Y358972D01*
X420678Y358969D01*
X420662Y358967D01*
X420648D01*
X420588Y358969D01*
X420531Y358978D01*
X420476Y358991D01*
X420424Y359008D01*
X420375Y359027D01*
X420329Y359046D01*
X420288Y359070D01*
X420247Y359095D01*
X420214Y359117D01*
X420181Y359141D01*
X420154Y359160D01*
X420132Y359182D01*
X420116Y359196D01*
X420102Y359210D01*
X420094Y359218D01*
X420091Y359221D01*
X420050Y359272D01*
X420015Y359324D01*
X419982Y359382D01*
X419955Y359442D01*
X419933Y359502D01*
X419914Y359564D01*
X419897Y359622D01*
X419886Y359679D01*
X419875Y359734D01*
X419870Y359786D01*
X419865Y359829D01*
X419859Y359870D01*
Y359903D01*
X419856Y359925D01*
Y359941D01*
Y359947D01*
X419859Y360020D01*
X419865Y360089D01*
X419875Y360151D01*
X419884Y360206D01*
X419889Y360231D01*
X419895Y360252D01*
X419900Y360272D01*
X419906Y360288D01*
X419908Y360302D01*
X419911Y360310D01*
X419914Y360315D01*
Y360318D01*
X419936Y360381D01*
X419960Y360438D01*
X419985Y360490D01*
X420009Y360534D01*
X420034Y360566D01*
X420050Y360594D01*
X420061Y360610D01*
X420067Y360615D01*
X420105Y360659D01*
X420146Y360697D01*
X420187Y360730D01*
X420225Y360757D01*
X420260Y360779D01*
X420288Y360793D01*
X420299Y360798D01*
X420307Y360804D01*
X420310Y360807D01*
X420312D01*
X420370Y360828D01*
X420424Y360845D01*
X420479Y360858D01*
X420528Y360867D01*
X420569Y360872D01*
X420588D01*
X420602Y360875D01*
X420632D01*
X420686Y360872D01*
X420741Y360864D01*
X420790Y360853D01*
X420839Y360837D01*
X420883Y360818D01*
X420924Y360798D01*
X420962Y360774D01*
X420995Y360752D01*
X421028Y360730D01*
X421055Y360708D01*
X421077Y360686D01*
X421096Y360667D01*
X421112Y360651D01*
X421123Y360640D01*
X421129Y360632D01*
X421131Y360629D01*
Y361527D01*
X421440D01*
Y359008D01*
D02*
G37*
G36*
X480315D02*
X480007D01*
Y360004D01*
X480004Y360080D01*
X479998Y360149D01*
X479990Y360206D01*
X479982Y360252D01*
X479974Y360291D01*
X479965Y360318D01*
X479963Y360326D01*
X479960Y360334D01*
X479957Y360340D01*
X479936Y360384D01*
X479908Y360422D01*
X479881Y360454D01*
X479851Y360482D01*
X479826Y360504D01*
X479804Y360520D01*
X479791Y360531D01*
X479785Y360534D01*
X479739Y360558D01*
X479693Y360577D01*
X479649Y360588D01*
X479611Y360599D01*
X479575Y360605D01*
X479548Y360607D01*
X479526D01*
X479460Y360602D01*
X479403Y360591D01*
X479357Y360575D01*
X479316Y360556D01*
X479283Y360534D01*
X479261Y360517D01*
X479248Y360506D01*
X479242Y360501D01*
X479223Y360479D01*
X479209Y360457D01*
X479185Y360403D01*
X479166Y360348D01*
X479155Y360291D01*
X479146Y360242D01*
X479144Y360220D01*
Y360201D01*
X479141Y360184D01*
Y360173D01*
Y360165D01*
Y360162D01*
Y359008D01*
X478833D01*
Y360162D01*
Y360211D01*
X478835Y360258D01*
X478838Y360302D01*
X478843Y360340D01*
X478849Y360378D01*
X478854Y360411D01*
X478860Y360441D01*
X478865Y360468D01*
X478871Y360493D01*
X478876Y360514D01*
X478882Y360531D01*
X478887Y360547D01*
X478893Y360558D01*
X478895Y360566D01*
X478898Y360569D01*
Y360572D01*
X478925Y360621D01*
X478958Y360667D01*
X478996Y360706D01*
X479029Y360736D01*
X479062Y360760D01*
X479089Y360779D01*
X479100Y360785D01*
X479108Y360790D01*
X479111Y360793D01*
X479114D01*
X479171Y360820D01*
X479231Y360839D01*
X479288Y360856D01*
X479343Y360864D01*
X479392Y360869D01*
X479411Y360872D01*
X479430Y360875D01*
X479463D01*
X479523Y360872D01*
X479581Y360864D01*
X479635Y360850D01*
X479687Y360837D01*
X479734Y360815D01*
X479780Y360796D01*
X479821Y360771D01*
X479856Y360749D01*
X479892Y360725D01*
X479922Y360700D01*
X479946Y360681D01*
X479968Y360662D01*
X479985Y360646D01*
X479996Y360632D01*
X480004Y360624D01*
X480007Y360621D01*
Y361527D01*
X480315D01*
Y359008D01*
D02*
G37*
G36*
X437484Y360869D02*
X437563Y360856D01*
X437634Y360837D01*
X437667Y360826D01*
X437697Y360815D01*
X437724Y360801D01*
X437746Y360790D01*
X437768Y360779D01*
X437784Y360771D01*
X437798Y360763D01*
X437809Y360757D01*
X437814Y360755D01*
X437817Y360752D01*
X437880Y360703D01*
X437937Y360648D01*
X437984Y360591D01*
X438022Y360536D01*
X438052Y360487D01*
X438065Y360465D01*
X438074Y360446D01*
X438082Y360433D01*
X438087Y360422D01*
X438093Y360414D01*
Y360411D01*
X438123Y360326D01*
X438147Y360242D01*
X438164Y360162D01*
X438175Y360089D01*
X438177Y360053D01*
X438180Y360023D01*
X438183Y359998D01*
Y359974D01*
X438186Y359955D01*
Y359941D01*
Y359933D01*
Y359930D01*
X438183Y359859D01*
X438177Y359794D01*
X438167Y359728D01*
X438153Y359668D01*
X438139Y359611D01*
X438120Y359556D01*
X438101Y359507D01*
X438082Y359461D01*
X438063Y359420D01*
X438046Y359384D01*
X438027Y359351D01*
X438014Y359327D01*
X438000Y359305D01*
X437989Y359292D01*
X437984Y359280D01*
X437981Y359278D01*
X437940Y359231D01*
X437896Y359188D01*
X437850Y359152D01*
X437801Y359122D01*
X437754Y359095D01*
X437705Y359073D01*
X437656Y359057D01*
X437610Y359040D01*
X437566Y359029D01*
X437528Y359021D01*
X437490Y359016D01*
X437459Y359013D01*
X437432Y359010D01*
X437413Y359008D01*
X437397D01*
X437342Y359010D01*
X437287Y359018D01*
X437238Y359029D01*
X437192Y359046D01*
X437146Y359062D01*
X437105Y359084D01*
X437066Y359103D01*
X437031Y359128D01*
X437001Y359150D01*
X436971Y359171D01*
X436949Y359191D01*
X436927Y359207D01*
X436913Y359223D01*
X436900Y359234D01*
X436894Y359242D01*
X436892Y359245D01*
Y359191D01*
Y359141D01*
X436894Y359098D01*
Y359057D01*
X436897Y359021D01*
Y358988D01*
X436900Y358961D01*
X436903Y358937D01*
X436905Y358915D01*
Y358898D01*
X436908Y358882D01*
X436911Y358871D01*
Y358863D01*
X436913Y358857D01*
Y358852D01*
X436933Y358797D01*
X436957Y358748D01*
X436984Y358707D01*
X437009Y358675D01*
X437036Y358647D01*
X437055Y358628D01*
X437069Y358614D01*
X437072Y358612D01*
X437075D01*
X437121Y358582D01*
X437176Y358563D01*
X437230Y358546D01*
X437282Y358535D01*
X437331Y358530D01*
X437350Y358527D01*
X437369D01*
X437383Y358524D01*
X437405D01*
X437476Y358527D01*
X437539Y358538D01*
X437591Y358552D01*
X437637Y358568D01*
X437672Y358584D01*
X437697Y358598D01*
X437713Y358609D01*
X437719Y358612D01*
X437749Y358639D01*
X437771Y358672D01*
X437790Y358704D01*
X437803Y358740D01*
X437812Y358770D01*
X437817Y358795D01*
X437822Y358811D01*
Y358814D01*
Y358816D01*
X438123Y358857D01*
Y358803D01*
X438117Y358754D01*
X438109Y358707D01*
X438096Y358664D01*
X438082Y358625D01*
X438065Y358587D01*
X438049Y358554D01*
X438030Y358527D01*
X438011Y358500D01*
X437994Y358478D01*
X437978Y358459D01*
X437962Y358442D01*
X437951Y358432D01*
X437940Y358423D01*
X437934Y358418D01*
X437932Y358415D01*
X437893Y358391D01*
X437850Y358366D01*
X437809Y358347D01*
X437762Y358330D01*
X437675Y358303D01*
X437591Y358287D01*
X437552Y358281D01*
X437517Y358276D01*
X437484Y358273D01*
X437457Y358270D01*
X437435Y358268D01*
X437402D01*
X437304Y358273D01*
X437214Y358284D01*
X437173Y358292D01*
X437137Y358300D01*
X437102Y358309D01*
X437069Y358320D01*
X437039Y358330D01*
X437014Y358339D01*
X436993Y358347D01*
X436973Y358355D01*
X436960Y358363D01*
X436949Y358366D01*
X436943Y358371D01*
X436941D01*
X436875Y358412D01*
X436818Y358459D01*
X436771Y358505D01*
X436733Y358552D01*
X436703Y358590D01*
X436681Y358623D01*
X436673Y358636D01*
X436668Y358645D01*
X436665Y358650D01*
Y358653D01*
X436649Y358688D01*
X436635Y358729D01*
X436624Y358775D01*
X436613Y358822D01*
X436599Y358923D01*
X436589Y359021D01*
X436586Y359068D01*
X436583Y359111D01*
X436580Y359152D01*
X436578Y359188D01*
Y359215D01*
Y359237D01*
Y359250D01*
Y359256D01*
Y360834D01*
X436862D01*
Y360610D01*
X436903Y360656D01*
X436943Y360697D01*
X436990Y360733D01*
X437034Y360763D01*
X437080Y360790D01*
X437124Y360809D01*
X437167Y360828D01*
X437208Y360842D01*
X437247Y360853D01*
X437282Y360861D01*
X437315Y360867D01*
X437342Y360872D01*
X437364D01*
X437383Y360875D01*
X437440D01*
X437484Y360869D01*
D02*
G37*
G36*
X452949Y360872D02*
X453012Y360861D01*
X453067Y360850D01*
X453116Y360834D01*
X453154Y360820D01*
X453171Y360812D01*
X453184Y360807D01*
X453195Y360801D01*
X453203Y360796D01*
X453206Y360793D01*
X453209D01*
X453261Y360760D01*
X453304Y360725D01*
X453343Y360689D01*
X453375Y360654D01*
X453403Y360624D01*
X453422Y360599D01*
X453433Y360583D01*
X453438Y360580D01*
Y360834D01*
X453714D01*
Y359008D01*
X453405D01*
Y359955D01*
Y360001D01*
X453403Y360042D01*
X453400Y360083D01*
X453397Y360119D01*
X453394Y360154D01*
X453389Y360184D01*
X453386Y360211D01*
X453381Y360239D01*
X453375Y360261D01*
X453373Y360280D01*
X453367Y360296D01*
X453364Y360310D01*
X453362Y360321D01*
X453359Y360329D01*
X453356Y360332D01*
Y360334D01*
X453334Y360381D01*
X453310Y360422D01*
X453282Y360457D01*
X453255Y360485D01*
X453233Y360509D01*
X453214Y360523D01*
X453201Y360534D01*
X453195Y360536D01*
X453152Y360561D01*
X453111Y360577D01*
X453070Y360591D01*
X453031Y360599D01*
X452999Y360605D01*
X452974Y360607D01*
X452952D01*
X452892Y360602D01*
X452840Y360591D01*
X452799Y360575D01*
X452764Y360556D01*
X452739Y360536D01*
X452720Y360520D01*
X452709Y360509D01*
X452706Y360504D01*
X452682Y360460D01*
X452663Y360411D01*
X452649Y360359D01*
X452638Y360310D01*
X452633Y360263D01*
Y360244D01*
X452630Y360228D01*
Y360211D01*
Y360201D01*
Y360195D01*
Y360192D01*
Y359008D01*
X452321D01*
Y360067D01*
X452319Y360119D01*
X452316Y360165D01*
X452311Y360211D01*
X452302Y360252D01*
X452291Y360288D01*
X452281Y360323D01*
X452270Y360353D01*
X452256Y360381D01*
X452245Y360403D01*
X452234Y360424D01*
X452223Y360441D01*
X452212Y360454D01*
X452204Y360465D01*
X452199Y360474D01*
X452193Y360476D01*
Y360479D01*
X452169Y360501D01*
X452141Y360523D01*
X452090Y360553D01*
X452035Y360577D01*
X451983Y360591D01*
X451939Y360602D01*
X451920Y360605D01*
X451904D01*
X451890Y360607D01*
X451871D01*
X451833Y360605D01*
X451797Y360599D01*
X451765Y360591D01*
X451737Y360583D01*
X451716Y360572D01*
X451699Y360564D01*
X451688Y360558D01*
X451685Y360556D01*
X451658Y360536D01*
X451634Y360514D01*
X451617Y360493D01*
X451601Y360471D01*
X451590Y360452D01*
X451582Y360438D01*
X451576Y360427D01*
Y360424D01*
X451565Y360389D01*
X451560Y360348D01*
X451554Y360304D01*
X451549Y360261D01*
Y360220D01*
X451546Y360187D01*
Y360176D01*
Y360165D01*
Y360160D01*
Y360157D01*
Y359008D01*
X451238D01*
Y360261D01*
X451240Y360318D01*
X451243Y360370D01*
X451251Y360419D01*
X451260Y360465D01*
X451270Y360506D01*
X451284Y360544D01*
X451298Y360577D01*
X451311Y360607D01*
X451325Y360635D01*
X451339Y360659D01*
X451350Y360678D01*
X451363Y360695D01*
X451371Y360706D01*
X451380Y360714D01*
X451382Y360719D01*
X451385Y360722D01*
X451412Y360749D01*
X451445Y360774D01*
X451478Y360793D01*
X451511Y360809D01*
X451582Y360837D01*
X451647Y360856D01*
X451680Y360861D01*
X451710Y360867D01*
X451735Y360869D01*
X451759Y360872D01*
X451776Y360875D01*
X451803D01*
X451866Y360872D01*
X451926Y360861D01*
X451983Y360845D01*
X452038Y360826D01*
X452087Y360801D01*
X452133Y360774D01*
X452177Y360744D01*
X452215Y360717D01*
X452251Y360686D01*
X452281Y360656D01*
X452308Y360629D01*
X452327Y360605D01*
X452346Y360585D01*
X452357Y360569D01*
X452365Y360558D01*
X452368Y360556D01*
X452392Y360610D01*
X452420Y360656D01*
X452450Y360695D01*
X452480Y360730D01*
X452510Y360755D01*
X452532Y360774D01*
X452548Y360788D01*
X452551Y360790D01*
X452554D01*
X452605Y360818D01*
X452660Y360839D01*
X452715Y360853D01*
X452767Y360864D01*
X452813Y360869D01*
X452832Y360872D01*
X452851Y360875D01*
X452884D01*
X452949Y360872D01*
D02*
G37*
G36*
X450017D02*
X450080Y360861D01*
X450135Y360850D01*
X450184Y360834D01*
X450222Y360820D01*
X450239Y360812D01*
X450252Y360807D01*
X450263Y360801D01*
X450271Y360796D01*
X450274Y360793D01*
X450277D01*
X450329Y360760D01*
X450372Y360725D01*
X450411Y360689D01*
X450443Y360654D01*
X450471Y360624D01*
X450490Y360599D01*
X450501Y360583D01*
X450506Y360580D01*
Y360834D01*
X450782D01*
Y359008D01*
X450473D01*
Y359955D01*
Y360001D01*
X450471Y360042D01*
X450468Y360083D01*
X450465Y360119D01*
X450462Y360154D01*
X450457Y360184D01*
X450454Y360211D01*
X450449Y360239D01*
X450443Y360261D01*
X450441Y360280D01*
X450435Y360296D01*
X450432Y360310D01*
X450430Y360321D01*
X450427Y360329D01*
X450424Y360332D01*
Y360334D01*
X450402Y360381D01*
X450378Y360422D01*
X450351Y360457D01*
X450323Y360485D01*
X450301Y360509D01*
X450282Y360523D01*
X450269Y360534D01*
X450263Y360536D01*
X450219Y360561D01*
X450178Y360577D01*
X450138Y360591D01*
X450099Y360599D01*
X450067Y360605D01*
X450042Y360607D01*
X450020D01*
X449960Y360602D01*
X449908Y360591D01*
X449867Y360575D01*
X449832Y360556D01*
X449807Y360536D01*
X449788Y360520D01*
X449777Y360509D01*
X449774Y360504D01*
X449750Y360460D01*
X449731Y360411D01*
X449717Y360359D01*
X449706Y360310D01*
X449701Y360263D01*
Y360244D01*
X449698Y360228D01*
Y360211D01*
Y360201D01*
Y360195D01*
Y360192D01*
Y359008D01*
X449390D01*
Y360067D01*
X449387Y360119D01*
X449384Y360165D01*
X449379Y360211D01*
X449370Y360252D01*
X449360Y360288D01*
X449349Y360323D01*
X449338Y360353D01*
X449324Y360381D01*
X449313Y360403D01*
X449302Y360424D01*
X449291Y360441D01*
X449280Y360454D01*
X449272Y360465D01*
X449267Y360474D01*
X449261Y360476D01*
Y360479D01*
X449237Y360501D01*
X449209Y360523D01*
X449157Y360553D01*
X449103Y360577D01*
X449051Y360591D01*
X449007Y360602D01*
X448988Y360605D01*
X448972D01*
X448958Y360607D01*
X448939D01*
X448901Y360605D01*
X448865Y360599D01*
X448833Y360591D01*
X448805Y360583D01*
X448783Y360572D01*
X448767Y360564D01*
X448756Y360558D01*
X448753Y360556D01*
X448726Y360536D01*
X448702Y360514D01*
X448685Y360493D01*
X448669Y360471D01*
X448658Y360452D01*
X448650Y360438D01*
X448644Y360427D01*
Y360424D01*
X448633Y360389D01*
X448628Y360348D01*
X448622Y360304D01*
X448617Y360261D01*
Y360220D01*
X448614Y360187D01*
Y360176D01*
Y360165D01*
Y360160D01*
Y360157D01*
Y359008D01*
X448306D01*
Y360261D01*
X448308Y360318D01*
X448311Y360370D01*
X448319Y360419D01*
X448327Y360465D01*
X448339Y360506D01*
X448352Y360544D01*
X448366Y360577D01*
X448379Y360607D01*
X448393Y360635D01*
X448407Y360659D01*
X448418Y360678D01*
X448431Y360695D01*
X448440Y360706D01*
X448448Y360714D01*
X448450Y360719D01*
X448453Y360722D01*
X448480Y360749D01*
X448513Y360774D01*
X448546Y360793D01*
X448579Y360809D01*
X448650Y360837D01*
X448715Y360856D01*
X448748Y360861D01*
X448778Y360867D01*
X448803Y360869D01*
X448827Y360872D01*
X448843Y360875D01*
X448871D01*
X448934Y360872D01*
X448994Y360861D01*
X449051Y360845D01*
X449106Y360826D01*
X449155Y360801D01*
X449201Y360774D01*
X449245Y360744D01*
X449283Y360717D01*
X449319Y360686D01*
X449349Y360656D01*
X449376Y360629D01*
X449395Y360605D01*
X449414Y360585D01*
X449425Y360569D01*
X449433Y360558D01*
X449436Y360556D01*
X449461Y360610D01*
X449488Y360656D01*
X449518Y360695D01*
X449548Y360730D01*
X449578Y360755D01*
X449600Y360774D01*
X449616Y360788D01*
X449619Y360790D01*
X449622D01*
X449673Y360818D01*
X449728Y360839D01*
X449783Y360853D01*
X449834Y360864D01*
X449881Y360869D01*
X449900Y360872D01*
X449919Y360875D01*
X449952D01*
X450017Y360872D01*
D02*
G37*
G36*
X472600Y360482D02*
X472248D01*
Y360834D01*
X472600D01*
Y360482D01*
D02*
G37*
G36*
X464175Y360872D02*
X464254Y360864D01*
X464325Y360853D01*
X464358Y360848D01*
X464385Y360842D01*
X464413Y360837D01*
X464437Y360831D01*
X464456Y360826D01*
X464473Y360820D01*
X464486Y360815D01*
X464497Y360812D01*
X464503Y360809D01*
X464505D01*
X464568Y360782D01*
X464623Y360752D01*
X464669Y360722D01*
X464708Y360692D01*
X464738Y360665D01*
X464759Y360643D01*
X464773Y360629D01*
X464779Y360626D01*
Y360624D01*
X464811Y360577D01*
X464839Y360525D01*
X464860Y360474D01*
X464880Y360424D01*
X464893Y360381D01*
X464899Y360362D01*
X464904Y360345D01*
X464907Y360332D01*
X464910Y360321D01*
X464912Y360315D01*
Y360313D01*
X464609Y360272D01*
X464598Y360307D01*
X464587Y360340D01*
X464566Y360394D01*
X464538Y360443D01*
X464514Y360479D01*
X464492Y360506D01*
X464473Y360528D01*
X464462Y360539D01*
X464456Y360542D01*
X464413Y360566D01*
X464361Y360585D01*
X464309Y360599D01*
X464257Y360610D01*
X464208Y360615D01*
X464189D01*
X464170Y360618D01*
X464134D01*
X464052Y360613D01*
X463981Y360602D01*
X463921Y360585D01*
X463872Y360566D01*
X463834Y360544D01*
X463820Y360536D01*
X463807Y360528D01*
X463796Y360523D01*
X463790Y360517D01*
X463785Y360512D01*
X463755Y360479D01*
X463733Y360438D01*
X463717Y360394D01*
X463706Y360351D01*
X463700Y360310D01*
X463695Y360277D01*
Y360266D01*
Y360255D01*
Y360250D01*
Y360247D01*
Y360239D01*
Y360228D01*
Y360201D01*
X463697Y360190D01*
Y360179D01*
Y360171D01*
Y360168D01*
X463733Y360157D01*
X463771Y360146D01*
X463815Y360135D01*
X463859Y360124D01*
X463949Y360105D01*
X464039Y360089D01*
X464082Y360083D01*
X464121Y360078D01*
X464156Y360072D01*
X464189Y360067D01*
X464213Y360064D01*
X464232Y360061D01*
X464244Y360059D01*
X464249D01*
X464314Y360050D01*
X464369Y360042D01*
X464418Y360034D01*
X464456Y360029D01*
X464486Y360020D01*
X464508Y360018D01*
X464519Y360012D01*
X464525D01*
X464568Y359998D01*
X464612Y359982D01*
X464650Y359966D01*
X464683Y359949D01*
X464710Y359936D01*
X464729Y359922D01*
X464743Y359914D01*
X464748Y359911D01*
X464784Y359884D01*
X464814Y359857D01*
X464841Y359826D01*
X464863Y359799D01*
X464882Y359772D01*
X464896Y359753D01*
X464904Y359739D01*
X464907Y359734D01*
X464926Y359690D01*
X464942Y359649D01*
X464953Y359608D01*
X464959Y359570D01*
X464964Y359537D01*
X464967Y359510D01*
Y359493D01*
Y359491D01*
Y359488D01*
X464964Y359447D01*
X464959Y359406D01*
X464953Y359368D01*
X464942Y359332D01*
X464915Y359267D01*
X464885Y359215D01*
X464871Y359191D01*
X464858Y359171D01*
X464844Y359152D01*
X464830Y359139D01*
X464819Y359128D01*
X464814Y359120D01*
X464809Y359114D01*
X464806Y359111D01*
X464773Y359087D01*
X464740Y359065D01*
X464702Y359043D01*
X464667Y359027D01*
X464590Y359002D01*
X464514Y358986D01*
X464481Y358978D01*
X464448Y358975D01*
X464418Y358972D01*
X464394Y358969D01*
X464374Y358967D01*
X464345D01*
X464276Y358969D01*
X464213Y358975D01*
X464156Y358986D01*
X464104Y358997D01*
X464063Y359008D01*
X464044Y359013D01*
X464031Y359018D01*
X464020Y359021D01*
X464011Y359024D01*
X464006Y359027D01*
X464003D01*
X463943Y359054D01*
X463883Y359084D01*
X463829Y359120D01*
X463777Y359155D01*
X463733Y359185D01*
X463717Y359201D01*
X463700Y359212D01*
X463687Y359223D01*
X463678Y359231D01*
X463673Y359234D01*
X463670Y359237D01*
X463665Y359188D01*
X463657Y359144D01*
X463646Y359106D01*
X463635Y359073D01*
X463626Y359046D01*
X463618Y359024D01*
X463613Y359013D01*
X463610Y359008D01*
X463288D01*
X463307Y359046D01*
X463323Y359087D01*
X463337Y359122D01*
X463348Y359155D01*
X463356Y359185D01*
X463362Y359207D01*
X463364Y359221D01*
Y359226D01*
X463367Y359250D01*
X463370Y359283D01*
X463373Y359319D01*
X463375Y359360D01*
X463378Y359403D01*
Y359450D01*
X463381Y359543D01*
Y359586D01*
X463383Y359630D01*
Y359668D01*
Y359704D01*
Y359731D01*
Y359753D01*
Y359767D01*
Y359772D01*
Y360184D01*
Y360222D01*
Y360255D01*
X463386Y360285D01*
Y360315D01*
X463389Y360364D01*
X463392Y360403D01*
X463394Y360433D01*
X463397Y360452D01*
X463400Y360465D01*
Y360468D01*
X463411Y360514D01*
X463427Y360556D01*
X463444Y360591D01*
X463460Y360621D01*
X463474Y360646D01*
X463487Y360665D01*
X463495Y360676D01*
X463498Y360678D01*
X463528Y360708D01*
X463561Y360736D01*
X463596Y360760D01*
X463632Y360779D01*
X463665Y360796D01*
X463689Y360807D01*
X463700Y360812D01*
X463708Y360815D01*
X463711Y360818D01*
X463714D01*
X463771Y360837D01*
X463834Y360850D01*
X463897Y360861D01*
X463957Y360867D01*
X464009Y360872D01*
X464033D01*
X464052Y360875D01*
X464091D01*
X464175Y360872D01*
D02*
G37*
G36*
X414099D02*
X414178Y360864D01*
X414249Y360853D01*
X414282Y360848D01*
X414309Y360842D01*
X414336Y360837D01*
X414361Y360831D01*
X414380Y360826D01*
X414396Y360820D01*
X414410Y360815D01*
X414421Y360812D01*
X414426Y360809D01*
X414429D01*
X414492Y360782D01*
X414546Y360752D01*
X414593Y360722D01*
X414631Y360692D01*
X414661Y360665D01*
X414683Y360643D01*
X414697Y360629D01*
X414702Y360626D01*
Y360624D01*
X414735Y360577D01*
X414762Y360525D01*
X414784Y360474D01*
X414803Y360424D01*
X414817Y360381D01*
X414822Y360362D01*
X414828Y360345D01*
X414830Y360332D01*
X414833Y360321D01*
X414836Y360315D01*
Y360313D01*
X414533Y360272D01*
X414522Y360307D01*
X414511Y360340D01*
X414489Y360394D01*
X414462Y360443D01*
X414437Y360479D01*
X414416Y360506D01*
X414396Y360528D01*
X414386Y360539D01*
X414380Y360542D01*
X414336Y360566D01*
X414285Y360585D01*
X414233Y360599D01*
X414181Y360610D01*
X414132Y360615D01*
X414113D01*
X414093Y360618D01*
X414058D01*
X413976Y360613D01*
X413905Y360602D01*
X413845Y360585D01*
X413796Y360566D01*
X413758Y360544D01*
X413744Y360536D01*
X413730Y360528D01*
X413719Y360523D01*
X413714Y360517D01*
X413708Y360512D01*
X413678Y360479D01*
X413657Y360438D01*
X413640Y360394D01*
X413629Y360351D01*
X413624Y360310D01*
X413618Y360277D01*
Y360266D01*
Y360255D01*
Y360250D01*
Y360247D01*
Y360239D01*
Y360228D01*
Y360201D01*
X413621Y360190D01*
Y360179D01*
Y360171D01*
Y360168D01*
X413657Y360157D01*
X413695Y360146D01*
X413738Y360135D01*
X413782Y360124D01*
X413872Y360105D01*
X413962Y360089D01*
X414006Y360083D01*
X414044Y360078D01*
X414080Y360072D01*
X414113Y360067D01*
X414137Y360064D01*
X414156Y360061D01*
X414167Y360059D01*
X414173D01*
X414238Y360050D01*
X414293Y360042D01*
X414342Y360034D01*
X414380Y360029D01*
X414410Y360020D01*
X414432Y360018D01*
X414443Y360012D01*
X414448D01*
X414492Y359998D01*
X414536Y359982D01*
X414574Y359966D01*
X414607Y359949D01*
X414634Y359936D01*
X414653Y359922D01*
X414667Y359914D01*
X414672Y359911D01*
X414708Y359884D01*
X414738Y359857D01*
X414765Y359826D01*
X414787Y359799D01*
X414806Y359772D01*
X414819Y359753D01*
X414828Y359739D01*
X414830Y359734D01*
X414850Y359690D01*
X414866Y359649D01*
X414877Y359608D01*
X414882Y359570D01*
X414888Y359537D01*
X414890Y359510D01*
Y359493D01*
Y359491D01*
Y359488D01*
X414888Y359447D01*
X414882Y359406D01*
X414877Y359368D01*
X414866Y359332D01*
X414839Y359267D01*
X414809Y359215D01*
X414795Y359191D01*
X414781Y359171D01*
X414768Y359152D01*
X414754Y359139D01*
X414743Y359128D01*
X414738Y359120D01*
X414732Y359114D01*
X414729Y359111D01*
X414697Y359087D01*
X414664Y359065D01*
X414626Y359043D01*
X414590Y359027D01*
X414514Y359002D01*
X414437Y358986D01*
X414405Y358978D01*
X414372Y358975D01*
X414342Y358972D01*
X414317Y358969D01*
X414298Y358967D01*
X414268D01*
X414200Y358969D01*
X414137Y358975D01*
X414080Y358986D01*
X414028Y358997D01*
X413987Y359008D01*
X413968Y359013D01*
X413954Y359018D01*
X413943Y359021D01*
X413935Y359024D01*
X413930Y359027D01*
X413927D01*
X413867Y359054D01*
X413807Y359084D01*
X413752Y359120D01*
X413700Y359155D01*
X413657Y359185D01*
X413640Y359201D01*
X413624Y359212D01*
X413610Y359223D01*
X413602Y359231D01*
X413596Y359234D01*
X413594Y359237D01*
X413588Y359188D01*
X413580Y359144D01*
X413569Y359106D01*
X413558Y359073D01*
X413550Y359046D01*
X413542Y359024D01*
X413536Y359013D01*
X413534Y359008D01*
X413212D01*
X413231Y359046D01*
X413247Y359087D01*
X413261Y359122D01*
X413272Y359155D01*
X413280Y359185D01*
X413285Y359207D01*
X413288Y359221D01*
Y359226D01*
X413291Y359250D01*
X413294Y359283D01*
X413296Y359319D01*
X413299Y359360D01*
X413302Y359403D01*
Y359450D01*
X413304Y359543D01*
Y359586D01*
X413307Y359630D01*
Y359668D01*
Y359704D01*
Y359731D01*
Y359753D01*
Y359767D01*
Y359772D01*
Y360184D01*
Y360222D01*
Y360255D01*
X413310Y360285D01*
Y360315D01*
X413313Y360364D01*
X413315Y360403D01*
X413318Y360433D01*
X413321Y360452D01*
X413323Y360465D01*
Y360468D01*
X413334Y360514D01*
X413351Y360556D01*
X413367Y360591D01*
X413384Y360621D01*
X413397Y360646D01*
X413411Y360665D01*
X413419Y360676D01*
X413422Y360678D01*
X413452Y360708D01*
X413485Y360736D01*
X413520Y360760D01*
X413555Y360779D01*
X413588Y360796D01*
X413613Y360807D01*
X413624Y360812D01*
X413632Y360815D01*
X413635Y360818D01*
X413637D01*
X413695Y360837D01*
X413758Y360850D01*
X413820Y360861D01*
X413880Y360867D01*
X413932Y360872D01*
X413957D01*
X413976Y360875D01*
X414014D01*
X414099Y360872D01*
D02*
G37*
G36*
X417842Y359764D02*
X416889D01*
Y360075D01*
X417842D01*
Y359764D01*
D02*
G37*
G36*
X460648Y359008D02*
X460353D01*
X459660Y360834D01*
X459979D01*
X460386Y359717D01*
X460413Y359644D01*
X460435Y359578D01*
X460454Y359518D01*
X460471Y359469D01*
X460484Y359428D01*
X460490Y359412D01*
X460492Y359395D01*
X460495Y359384D01*
X460498Y359376D01*
X460501Y359373D01*
Y359371D01*
X460523Y359442D01*
X460542Y359510D01*
X460561Y359573D01*
X460580Y359627D01*
X460596Y359674D01*
X460602Y359693D01*
X460607Y359709D01*
X460613Y359723D01*
X460615Y359731D01*
X460618Y359736D01*
Y359739D01*
X461011Y360834D01*
X461339D01*
X460648Y359008D01*
D02*
G37*
G36*
X418964Y359005D02*
X418977Y358972D01*
X418986Y358947D01*
X418991Y358934D01*
X418994Y358928D01*
X419005Y358896D01*
X419016Y358866D01*
X419027Y358838D01*
X419035Y358814D01*
X419051Y358773D01*
X419065Y358743D01*
X419073Y358721D01*
X419081Y358707D01*
X419084Y358699D01*
X419087Y358696D01*
X419119Y358655D01*
X419138Y358639D01*
X419155Y358625D01*
X419168Y358614D01*
X419179Y358606D01*
X419187Y358604D01*
X419190Y358601D01*
X419215Y358590D01*
X419242Y358582D01*
X419269Y358574D01*
X419294Y358571D01*
X419319Y358568D01*
X419338Y358565D01*
X419354D01*
X419381Y358568D01*
X419411Y358571D01*
X419441Y358576D01*
X419469Y358582D01*
X419493Y358587D01*
X419512Y358590D01*
X419523Y358595D01*
X419529D01*
X419493Y358306D01*
X419452Y358292D01*
X419417Y358284D01*
X419381Y358276D01*
X419351Y358273D01*
X419330Y358270D01*
X419310Y358268D01*
X419294D01*
X419239Y358270D01*
X419193Y358279D01*
X419149Y358292D01*
X419111Y358306D01*
X419081Y358317D01*
X419059Y358330D01*
X419046Y358339D01*
X419040Y358341D01*
X419002Y358371D01*
X418966Y358407D01*
X418934Y358442D01*
X418906Y358481D01*
X418885Y358513D01*
X418865Y358541D01*
X418860Y358552D01*
X418855Y358560D01*
X418852Y358563D01*
Y358565D01*
X418838Y358587D01*
X418827Y358614D01*
X418814Y358645D01*
X418797Y358677D01*
X418770Y358746D01*
X418740Y358814D01*
X418729Y358846D01*
X418715Y358876D01*
X418704Y358904D01*
X418696Y358928D01*
X418688Y358950D01*
X418682Y358964D01*
X418677Y358975D01*
Y358978D01*
X417984Y360834D01*
X418292D01*
X418685Y359767D01*
X418713Y359690D01*
X418737Y359616D01*
X418759Y359545D01*
X418778Y359483D01*
X418786Y359455D01*
X418792Y359431D01*
X418800Y359406D01*
X418803Y359387D01*
X418808Y359373D01*
X418811Y359362D01*
X418814Y359354D01*
Y359351D01*
X418835Y359433D01*
X418857Y359510D01*
X418882Y359584D01*
X418901Y359646D01*
X418912Y359674D01*
X418920Y359698D01*
X418928Y359720D01*
X418934Y359739D01*
X418939Y359756D01*
X418945Y359767D01*
X418947Y359772D01*
Y359775D01*
X419327Y360834D01*
X419654D01*
X418964Y359005D01*
D02*
G37*
G36*
X478306Y361284D02*
Y360834D01*
X478535D01*
Y360594D01*
X478306D01*
Y359540D01*
Y359491D01*
X478303Y359444D01*
Y359403D01*
X478300Y359365D01*
X478298Y359332D01*
X478295Y359302D01*
X478292Y359275D01*
X478287Y359253D01*
X478284Y359234D01*
X478281Y359218D01*
X478278Y359204D01*
X478276Y359193D01*
X478273Y359179D01*
X478270Y359174D01*
X478254Y359144D01*
X478235Y359117D01*
X478213Y359092D01*
X478191Y359073D01*
X478169Y359057D01*
X478153Y359046D01*
X478142Y359038D01*
X478139Y359035D01*
X478101Y359018D01*
X478060Y359005D01*
X478016Y358997D01*
X477973Y358988D01*
X477934Y358986D01*
X477904Y358983D01*
X477877D01*
X477795Y358988D01*
X477757Y358991D01*
X477722Y358997D01*
X477689Y359002D01*
X477664Y359005D01*
X477648Y359010D01*
X477642D01*
X477683Y359283D01*
X477713Y359280D01*
X477741Y359278D01*
X477765Y359275D01*
X477784D01*
X477801Y359272D01*
X477847D01*
X477869Y359275D01*
X477885Y359280D01*
X477902Y359283D01*
X477913Y359289D01*
X477921Y359292D01*
X477926Y359294D01*
X477929D01*
X477951Y359313D01*
X477967Y359332D01*
X477978Y359349D01*
X477981Y359351D01*
Y359354D01*
X477986Y359373D01*
X477989Y359398D01*
X477994Y359425D01*
Y359453D01*
X477997Y359480D01*
Y359502D01*
Y359518D01*
Y359521D01*
Y359524D01*
Y360594D01*
X477683D01*
Y360834D01*
X477997D01*
Y361470D01*
X478306Y361284D01*
D02*
G37*
G36*
X477328D02*
Y360834D01*
X477558D01*
Y360594D01*
X477328D01*
Y359540D01*
Y359491D01*
X477326Y359444D01*
Y359403D01*
X477323Y359365D01*
X477320Y359332D01*
X477317Y359302D01*
X477315Y359275D01*
X477309Y359253D01*
X477307Y359234D01*
X477304Y359218D01*
X477301Y359204D01*
X477298Y359193D01*
X477296Y359179D01*
X477293Y359174D01*
X477277Y359144D01*
X477257Y359117D01*
X477236Y359092D01*
X477214Y359073D01*
X477192Y359057D01*
X477176Y359046D01*
X477165Y359038D01*
X477162Y359035D01*
X477124Y359018D01*
X477083Y359005D01*
X477039Y358997D01*
X476995Y358988D01*
X476957Y358986D01*
X476927Y358983D01*
X476900D01*
X476818Y358988D01*
X476780Y358991D01*
X476744Y358997D01*
X476711Y359002D01*
X476687Y359005D01*
X476670Y359010D01*
X476665D01*
X476706Y359283D01*
X476736Y359280D01*
X476763Y359278D01*
X476788Y359275D01*
X476807D01*
X476823Y359272D01*
X476870D01*
X476892Y359275D01*
X476908Y359280D01*
X476924Y359283D01*
X476935Y359289D01*
X476943Y359292D01*
X476949Y359294D01*
X476952D01*
X476973Y359313D01*
X476990Y359332D01*
X477001Y359349D01*
X477003Y359351D01*
Y359354D01*
X477009Y359373D01*
X477012Y359398D01*
X477017Y359425D01*
Y359453D01*
X477020Y359480D01*
Y359502D01*
Y359518D01*
Y359521D01*
Y359524D01*
Y360594D01*
X476706D01*
Y360834D01*
X477020D01*
Y361470D01*
X477328Y361284D01*
D02*
G37*
G36*
X462854D02*
Y360834D01*
X463083D01*
Y360594D01*
X462854D01*
Y359540D01*
Y359491D01*
X462851Y359444D01*
Y359403D01*
X462848Y359365D01*
X462846Y359332D01*
X462843Y359302D01*
X462840Y359275D01*
X462835Y359253D01*
X462832Y359234D01*
X462829Y359218D01*
X462827Y359204D01*
X462824Y359193D01*
X462821Y359179D01*
X462818Y359174D01*
X462802Y359144D01*
X462783Y359117D01*
X462761Y359092D01*
X462739Y359073D01*
X462717Y359057D01*
X462701Y359046D01*
X462690Y359038D01*
X462687Y359035D01*
X462649Y359018D01*
X462608Y359005D01*
X462565Y358997D01*
X462521Y358988D01*
X462483Y358986D01*
X462453Y358983D01*
X462425D01*
X462343Y358988D01*
X462305Y358991D01*
X462270Y358997D01*
X462237Y359002D01*
X462212Y359005D01*
X462196Y359010D01*
X462190D01*
X462231Y359283D01*
X462261Y359280D01*
X462289Y359278D01*
X462313Y359275D01*
X462332D01*
X462349Y359272D01*
X462395D01*
X462417Y359275D01*
X462433Y359280D01*
X462450Y359283D01*
X462461Y359289D01*
X462469Y359292D01*
X462474Y359294D01*
X462477D01*
X462499Y359313D01*
X462515Y359332D01*
X462526Y359349D01*
X462529Y359351D01*
Y359354D01*
X462535Y359373D01*
X462537Y359398D01*
X462543Y359425D01*
Y359453D01*
X462545Y359480D01*
Y359502D01*
Y359518D01*
Y359521D01*
Y359524D01*
Y360594D01*
X462231D01*
Y360834D01*
X462545D01*
Y361470D01*
X462854Y361284D01*
D02*
G37*
G36*
X469100Y360869D02*
X469182Y360858D01*
X469256Y360839D01*
X469288Y360828D01*
X469321Y360820D01*
X469348Y360809D01*
X469373Y360798D01*
X469395Y360790D01*
X469414Y360779D01*
X469430Y360774D01*
X469441Y360768D01*
X469447Y360763D01*
X469450D01*
X469521Y360717D01*
X469581Y360665D01*
X469632Y360607D01*
X469673Y360556D01*
X469706Y360506D01*
X469717Y360485D01*
X469728Y360465D01*
X469736Y360452D01*
X469742Y360441D01*
X469747Y360433D01*
Y360430D01*
X469780Y360345D01*
X469802Y360255D01*
X469818Y360168D01*
X469832Y360089D01*
X469835Y360050D01*
X469837Y360018D01*
X469840Y359988D01*
Y359960D01*
X469843Y359941D01*
Y359925D01*
Y359914D01*
Y359911D01*
X469840Y359829D01*
X469832Y359750D01*
X469821Y359676D01*
X469807Y359608D01*
X469791Y359545D01*
X469772Y359488D01*
X469750Y359436D01*
X469728Y359390D01*
X469709Y359349D01*
X469687Y359311D01*
X469668Y359280D01*
X469652Y359256D01*
X469638Y359234D01*
X469627Y359221D01*
X469619Y359212D01*
X469616Y359210D01*
X469572Y359166D01*
X469526Y359130D01*
X469477Y359098D01*
X469428Y359070D01*
X469376Y359046D01*
X469327Y359027D01*
X469278Y359010D01*
X469231Y358997D01*
X469187Y358986D01*
X469146Y358980D01*
X469108Y358975D01*
X469078Y358969D01*
X469051D01*
X469032Y358967D01*
X469016D01*
X468961Y358969D01*
X468909Y358975D01*
X468860Y358983D01*
X468811Y358994D01*
X468767Y359008D01*
X468726Y359024D01*
X468688Y359038D01*
X468652Y359057D01*
X468622Y359073D01*
X468592Y359087D01*
X468571Y359103D01*
X468549Y359117D01*
X468535Y359128D01*
X468521Y359136D01*
X468516Y359141D01*
X468513Y359144D01*
X468478Y359179D01*
X468442Y359215D01*
X468412Y359256D01*
X468388Y359297D01*
X468363Y359338D01*
X468341Y359379D01*
X468308Y359455D01*
X468295Y359493D01*
X468284Y359526D01*
X468276Y359556D01*
X468267Y359584D01*
X468262Y359605D01*
X468259Y359622D01*
X468257Y359633D01*
Y359635D01*
X468560Y359676D01*
X468568Y359633D01*
X468576Y359594D01*
X468587Y359556D01*
X468598Y359524D01*
X468611Y359491D01*
X468622Y359464D01*
X468636Y359439D01*
X468650Y359414D01*
X468663Y359395D01*
X468674Y359379D01*
X468696Y359351D01*
X468710Y359335D01*
X468713Y359332D01*
X468715Y359330D01*
X468764Y359294D01*
X468814Y359267D01*
X468865Y359248D01*
X468912Y359234D01*
X468955Y359226D01*
X468972Y359223D01*
X468988D01*
X469002Y359221D01*
X469018D01*
X469059Y359223D01*
X469100Y359229D01*
X469136Y359237D01*
X469171Y359248D01*
X469234Y359272D01*
X469288Y359305D01*
X469310Y359319D01*
X469329Y359335D01*
X469346Y359349D01*
X469362Y359362D01*
X469373Y359371D01*
X469381Y359379D01*
X469384Y359384D01*
X469387Y359387D01*
X469411Y359420D01*
X469433Y359458D01*
X469452Y359499D01*
X469466Y359540D01*
X469493Y359630D01*
X469510Y359717D01*
X469515Y359758D01*
X469518Y359797D01*
X469521Y359832D01*
X469523Y359862D01*
X469526Y359887D01*
Y359906D01*
Y359919D01*
Y359922D01*
X469523Y359988D01*
X469521Y360050D01*
X469512Y360105D01*
X469504Y360157D01*
X469493Y360206D01*
X469480Y360250D01*
X469466Y360288D01*
X469452Y360323D01*
X469441Y360353D01*
X469428Y360381D01*
X469414Y360403D01*
X469403Y360419D01*
X469395Y360435D01*
X469387Y360443D01*
X469384Y360449D01*
X469381Y360452D01*
X469354Y360482D01*
X469324Y360506D01*
X469291Y360531D01*
X469261Y360550D01*
X469228Y360566D01*
X469198Y360580D01*
X469138Y360599D01*
X469084Y360613D01*
X469062Y360615D01*
X469040Y360618D01*
X469024Y360621D01*
X469002D01*
X468947Y360618D01*
X468895Y360607D01*
X468852Y360591D01*
X468814Y360575D01*
X468783Y360556D01*
X468759Y360542D01*
X468745Y360531D01*
X468740Y360525D01*
X468702Y360487D01*
X468669Y360443D01*
X468644Y360397D01*
X468622Y360353D01*
X468606Y360313D01*
X468595Y360280D01*
X468592Y360266D01*
X468590Y360258D01*
X468587Y360252D01*
Y360250D01*
X468287Y360296D01*
X468297Y360345D01*
X468314Y360394D01*
X468330Y360438D01*
X468347Y360479D01*
X468366Y360517D01*
X468388Y360553D01*
X468407Y360583D01*
X468429Y360613D01*
X468448Y360637D01*
X468467Y360659D01*
X468483Y360678D01*
X468500Y360695D01*
X468510Y360706D01*
X468521Y360714D01*
X468527Y360719D01*
X468530Y360722D01*
X468565Y360749D01*
X468603Y360774D01*
X468644Y360793D01*
X468685Y360809D01*
X468767Y360837D01*
X468844Y360856D01*
X468879Y360861D01*
X468912Y360867D01*
X468942Y360869D01*
X468966Y360872D01*
X468986Y360875D01*
X469016D01*
X469100Y360869D01*
D02*
G37*
G36*
X466141Y360872D02*
X466209Y360864D01*
X466269Y360850D01*
X466329Y360834D01*
X466384Y360815D01*
X466436Y360793D01*
X466482Y360771D01*
X466523Y360747D01*
X466561Y360722D01*
X466594Y360700D01*
X466624Y360678D01*
X466646Y360659D01*
X466665Y360643D01*
X466679Y360629D01*
X466687Y360621D01*
X466689Y360618D01*
X466730Y360569D01*
X466766Y360514D01*
X466799Y360457D01*
X466826Y360400D01*
X466848Y360340D01*
X466867Y360280D01*
X466883Y360222D01*
X466894Y360165D01*
X466905Y360113D01*
X466911Y360061D01*
X466916Y360018D01*
X466922Y359979D01*
Y359947D01*
X466924Y359922D01*
Y359908D01*
Y359903D01*
X466922Y359821D01*
X466913Y359745D01*
X466902Y359674D01*
X466889Y359608D01*
X466870Y359545D01*
X466851Y359488D01*
X466829Y359436D01*
X466807Y359390D01*
X466788Y359349D01*
X466766Y359313D01*
X466747Y359283D01*
X466728Y359259D01*
X466714Y359237D01*
X466703Y359223D01*
X466695Y359215D01*
X466692Y359212D01*
X466646Y359169D01*
X466597Y359130D01*
X466548Y359098D01*
X466493Y359070D01*
X466441Y359046D01*
X466387Y359027D01*
X466335Y359010D01*
X466286Y358997D01*
X466239Y358988D01*
X466195Y358980D01*
X466157Y358975D01*
X466122Y358969D01*
X466094D01*
X466073Y358967D01*
X466056D01*
X465999Y358969D01*
X465941Y358972D01*
X465890Y358980D01*
X465840Y358991D01*
X465794Y359002D01*
X465753Y359016D01*
X465712Y359029D01*
X465677Y359043D01*
X465644Y359057D01*
X465617Y359070D01*
X465592Y359084D01*
X465570Y359095D01*
X465557Y359106D01*
X465543Y359114D01*
X465538Y359117D01*
X465535Y359120D01*
X465496Y359150D01*
X465464Y359182D01*
X465434Y359218D01*
X465404Y359253D01*
X465355Y359327D01*
X465316Y359395D01*
X465303Y359428D01*
X465289Y359458D01*
X465278Y359485D01*
X465270Y359510D01*
X465262Y359529D01*
X465256Y359543D01*
X465253Y359554D01*
Y359556D01*
X465576Y359597D01*
X465603Y359529D01*
X465636Y359469D01*
X465668Y359417D01*
X465698Y359379D01*
X465726Y359346D01*
X465748Y359324D01*
X465761Y359313D01*
X465764Y359308D01*
X465767D01*
X465813Y359278D01*
X465862Y359259D01*
X465911Y359242D01*
X465955Y359231D01*
X465996Y359226D01*
X466029Y359223D01*
X466040Y359221D01*
X466056D01*
X466097Y359223D01*
X466138Y359229D01*
X466176Y359234D01*
X466212Y359245D01*
X466277Y359270D01*
X466332Y359300D01*
X466357Y359313D01*
X466378Y359330D01*
X466395Y359343D01*
X466411Y359354D01*
X466422Y359365D01*
X466430Y359373D01*
X466436Y359376D01*
X466438Y359379D01*
X466466Y359412D01*
X466490Y359444D01*
X466509Y359483D01*
X466529Y359518D01*
X466559Y359597D01*
X466580Y359671D01*
X466588Y359706D01*
X466594Y359739D01*
X466599Y359767D01*
X466602Y359794D01*
X466605Y359813D01*
X466608Y359829D01*
Y359840D01*
Y359843D01*
X465245D01*
X465243Y359878D01*
Y359906D01*
Y359919D01*
Y359925D01*
X465245Y360007D01*
X465253Y360083D01*
X465265Y360157D01*
X465278Y360225D01*
X465297Y360288D01*
X465316Y360345D01*
X465338Y360397D01*
X465357Y360443D01*
X465379Y360485D01*
X465401Y360523D01*
X465420Y360553D01*
X465439Y360577D01*
X465453Y360599D01*
X465464Y360613D01*
X465472Y360621D01*
X465475Y360624D01*
X465518Y360667D01*
X465567Y360706D01*
X465617Y360741D01*
X465666Y360768D01*
X465715Y360793D01*
X465767Y360815D01*
X465813Y360831D01*
X465860Y360845D01*
X465903Y360853D01*
X465944Y360861D01*
X465980Y360867D01*
X466012Y360872D01*
X466037D01*
X466056Y360875D01*
X466073D01*
X466141Y360872D01*
D02*
G37*
G36*
X458707D02*
X458775Y360864D01*
X458835Y360850D01*
X458895Y360834D01*
X458950Y360815D01*
X459002Y360793D01*
X459048Y360771D01*
X459089Y360747D01*
X459127Y360722D01*
X459160Y360700D01*
X459190Y360678D01*
X459212Y360659D01*
X459231Y360643D01*
X459245Y360629D01*
X459253Y360621D01*
X459256Y360618D01*
X459297Y360569D01*
X459332Y360514D01*
X459365Y360457D01*
X459392Y360400D01*
X459414Y360340D01*
X459433Y360280D01*
X459450Y360222D01*
X459460Y360165D01*
X459471Y360113D01*
X459477Y360061D01*
X459482Y360018D01*
X459488Y359979D01*
Y359947D01*
X459490Y359922D01*
Y359908D01*
Y359903D01*
X459488Y359821D01*
X459480Y359745D01*
X459469Y359674D01*
X459455Y359608D01*
X459436Y359545D01*
X459417Y359488D01*
X459395Y359436D01*
X459373Y359390D01*
X459354Y359349D01*
X459332Y359313D01*
X459313Y359283D01*
X459294Y359259D01*
X459280Y359237D01*
X459269Y359223D01*
X459261Y359215D01*
X459259Y359212D01*
X459212Y359169D01*
X459163Y359130D01*
X459114Y359098D01*
X459059Y359070D01*
X459007Y359046D01*
X458953Y359027D01*
X458901Y359010D01*
X458852Y358997D01*
X458805Y358988D01*
X458762Y358980D01*
X458723Y358975D01*
X458688Y358969D01*
X458661D01*
X458639Y358967D01*
X458622D01*
X458565Y358969D01*
X458508Y358972D01*
X458456Y358980D01*
X458407Y358991D01*
X458360Y359002D01*
X458319Y359016D01*
X458278Y359029D01*
X458243Y359043D01*
X458210Y359057D01*
X458183Y359070D01*
X458158Y359084D01*
X458136Y359095D01*
X458123Y359106D01*
X458109Y359114D01*
X458104Y359117D01*
X458101Y359120D01*
X458063Y359150D01*
X458030Y359182D01*
X458000Y359218D01*
X457970Y359253D01*
X457921Y359327D01*
X457882Y359395D01*
X457869Y359428D01*
X457855Y359458D01*
X457844Y359485D01*
X457836Y359510D01*
X457828Y359529D01*
X457823Y359543D01*
X457820Y359554D01*
Y359556D01*
X458142Y359597D01*
X458169Y359529D01*
X458202Y359469D01*
X458235Y359417D01*
X458265Y359379D01*
X458292Y359346D01*
X458314Y359324D01*
X458327Y359313D01*
X458330Y359308D01*
X458333D01*
X458379Y359278D01*
X458428Y359259D01*
X458478Y359242D01*
X458521Y359231D01*
X458562Y359226D01*
X458595Y359223D01*
X458606Y359221D01*
X458622D01*
X458663Y359223D01*
X458704Y359229D01*
X458743Y359234D01*
X458778Y359245D01*
X458844Y359270D01*
X458898Y359300D01*
X458923Y359313D01*
X458945Y359330D01*
X458961Y359343D01*
X458977Y359354D01*
X458988Y359365D01*
X458996Y359373D01*
X459002Y359376D01*
X459005Y359379D01*
X459032Y359412D01*
X459057Y359444D01*
X459076Y359483D01*
X459095Y359518D01*
X459125Y359597D01*
X459146Y359671D01*
X459155Y359706D01*
X459160Y359739D01*
X459166Y359767D01*
X459168Y359794D01*
X459171Y359813D01*
X459174Y359829D01*
Y359840D01*
Y359843D01*
X457812D01*
X457809Y359878D01*
Y359906D01*
Y359919D01*
Y359925D01*
X457812Y360007D01*
X457820Y360083D01*
X457831Y360157D01*
X457844Y360225D01*
X457863Y360288D01*
X457882Y360345D01*
X457904Y360397D01*
X457924Y360443D01*
X457945Y360485D01*
X457967Y360523D01*
X457986Y360553D01*
X458005Y360577D01*
X458019Y360599D01*
X458030Y360613D01*
X458038Y360621D01*
X458041Y360624D01*
X458085Y360667D01*
X458134Y360706D01*
X458183Y360741D01*
X458232Y360768D01*
X458281Y360793D01*
X458333Y360815D01*
X458379Y360831D01*
X458426Y360845D01*
X458469Y360853D01*
X458510Y360861D01*
X458546Y360867D01*
X458579Y360872D01*
X458603D01*
X458622Y360875D01*
X458639D01*
X458707Y360872D01*
D02*
G37*
G36*
X456777Y360869D02*
X456859Y360858D01*
X456932Y360839D01*
X456965Y360828D01*
X456998Y360820D01*
X457025Y360809D01*
X457050Y360798D01*
X457072Y360790D01*
X457091Y360779D01*
X457107Y360774D01*
X457118Y360768D01*
X457124Y360763D01*
X457126D01*
X457197Y360717D01*
X457257Y360665D01*
X457309Y360607D01*
X457350Y360556D01*
X457383Y360506D01*
X457394Y360485D01*
X457405Y360465D01*
X457413Y360452D01*
X457418Y360441D01*
X457424Y360433D01*
Y360430D01*
X457457Y360345D01*
X457479Y360255D01*
X457495Y360168D01*
X457509Y360089D01*
X457511Y360050D01*
X457514Y360018D01*
X457517Y359988D01*
Y359960D01*
X457519Y359941D01*
Y359925D01*
Y359914D01*
Y359911D01*
X457517Y359829D01*
X457509Y359750D01*
X457498Y359676D01*
X457484Y359608D01*
X457468Y359545D01*
X457448Y359488D01*
X457427Y359436D01*
X457405Y359390D01*
X457386Y359349D01*
X457364Y359311D01*
X457345Y359280D01*
X457328Y359256D01*
X457315Y359234D01*
X457304Y359221D01*
X457296Y359212D01*
X457293Y359210D01*
X457249Y359166D01*
X457203Y359130D01*
X457154Y359098D01*
X457104Y359070D01*
X457053Y359046D01*
X457003Y359027D01*
X456954Y359010D01*
X456908Y358997D01*
X456864Y358986D01*
X456823Y358980D01*
X456785Y358975D01*
X456755Y358969D01*
X456728D01*
X456709Y358967D01*
X456692D01*
X456638Y358969D01*
X456586Y358975D01*
X456537Y358983D01*
X456488Y358994D01*
X456444Y359008D01*
X456403Y359024D01*
X456365Y359038D01*
X456329Y359057D01*
X456299Y359073D01*
X456269Y359087D01*
X456247Y359103D01*
X456225Y359117D01*
X456212Y359128D01*
X456198Y359136D01*
X456193Y359141D01*
X456190Y359144D01*
X456154Y359179D01*
X456119Y359215D01*
X456089Y359256D01*
X456064Y359297D01*
X456040Y359338D01*
X456018Y359379D01*
X455985Y359455D01*
X455972Y359493D01*
X455961Y359526D01*
X455952Y359556D01*
X455944Y359584D01*
X455939Y359605D01*
X455936Y359622D01*
X455933Y359633D01*
Y359635D01*
X456236Y359676D01*
X456245Y359633D01*
X456253Y359594D01*
X456264Y359556D01*
X456275Y359524D01*
X456288Y359491D01*
X456299Y359464D01*
X456313Y359439D01*
X456326Y359414D01*
X456340Y359395D01*
X456351Y359379D01*
X456373Y359351D01*
X456387Y359335D01*
X456389Y359332D01*
X456392Y359330D01*
X456441Y359294D01*
X456490Y359267D01*
X456542Y359248D01*
X456589Y359234D01*
X456632Y359226D01*
X456649Y359223D01*
X456665D01*
X456679Y359221D01*
X456695D01*
X456736Y359223D01*
X456777Y359229D01*
X456812Y359237D01*
X456848Y359248D01*
X456911Y359272D01*
X456965Y359305D01*
X456987Y359319D01*
X457006Y359335D01*
X457023Y359349D01*
X457039Y359362D01*
X457050Y359371D01*
X457058Y359379D01*
X457061Y359384D01*
X457064Y359387D01*
X457088Y359420D01*
X457110Y359458D01*
X457129Y359499D01*
X457143Y359540D01*
X457170Y359630D01*
X457186Y359717D01*
X457192Y359758D01*
X457195Y359797D01*
X457197Y359832D01*
X457200Y359862D01*
X457203Y359887D01*
Y359906D01*
Y359919D01*
Y359922D01*
X457200Y359988D01*
X457197Y360050D01*
X457189Y360105D01*
X457181Y360157D01*
X457170Y360206D01*
X457156Y360250D01*
X457143Y360288D01*
X457129Y360323D01*
X457118Y360353D01*
X457104Y360381D01*
X457091Y360403D01*
X457080Y360419D01*
X457072Y360435D01*
X457064Y360443D01*
X457061Y360449D01*
X457058Y360452D01*
X457031Y360482D01*
X457001Y360506D01*
X456968Y360531D01*
X456938Y360550D01*
X456905Y360566D01*
X456875Y360580D01*
X456815Y360599D01*
X456761Y360613D01*
X456739Y360615D01*
X456717Y360618D01*
X456701Y360621D01*
X456679D01*
X456624Y360618D01*
X456572Y360607D01*
X456529Y360591D01*
X456490Y360575D01*
X456460Y360556D01*
X456436Y360542D01*
X456422Y360531D01*
X456417Y360525D01*
X456378Y360487D01*
X456346Y360443D01*
X456321Y360397D01*
X456299Y360353D01*
X456283Y360313D01*
X456272Y360280D01*
X456269Y360266D01*
X456266Y360258D01*
X456264Y360252D01*
Y360250D01*
X455963Y360296D01*
X455974Y360345D01*
X455991Y360394D01*
X456007Y360438D01*
X456023Y360479D01*
X456042Y360517D01*
X456064Y360553D01*
X456083Y360583D01*
X456105Y360613D01*
X456124Y360637D01*
X456144Y360659D01*
X456160Y360678D01*
X456176Y360695D01*
X456187Y360706D01*
X456198Y360714D01*
X456204Y360719D01*
X456206Y360722D01*
X456242Y360749D01*
X456280Y360774D01*
X456321Y360793D01*
X456362Y360809D01*
X456444Y360837D01*
X456520Y360856D01*
X456556Y360861D01*
X456589Y360867D01*
X456619Y360869D01*
X456643Y360872D01*
X456662Y360875D01*
X456692D01*
X456777Y360869D01*
D02*
G37*
G36*
X432917D02*
X432999Y360858D01*
X433072Y360839D01*
X433105Y360828D01*
X433138Y360820D01*
X433165Y360809D01*
X433190Y360798D01*
X433212Y360790D01*
X433231Y360779D01*
X433247Y360774D01*
X433258Y360768D01*
X433263Y360763D01*
X433266D01*
X433337Y360717D01*
X433397Y360665D01*
X433449Y360607D01*
X433490Y360556D01*
X433523Y360506D01*
X433534Y360485D01*
X433545Y360465D01*
X433553Y360452D01*
X433558Y360441D01*
X433564Y360433D01*
Y360430D01*
X433597Y360345D01*
X433618Y360255D01*
X433635Y360168D01*
X433648Y360089D01*
X433651Y360050D01*
X433654Y360018D01*
X433657Y359988D01*
Y359960D01*
X433659Y359941D01*
Y359925D01*
Y359914D01*
Y359911D01*
X433657Y359829D01*
X433648Y359750D01*
X433637Y359676D01*
X433624Y359608D01*
X433607Y359545D01*
X433588Y359488D01*
X433566Y359436D01*
X433545Y359390D01*
X433526Y359349D01*
X433504Y359311D01*
X433485Y359280D01*
X433468Y359256D01*
X433455Y359234D01*
X433444Y359221D01*
X433435Y359212D01*
X433433Y359210D01*
X433389Y359166D01*
X433343Y359130D01*
X433293Y359098D01*
X433244Y359070D01*
X433192Y359046D01*
X433143Y359027D01*
X433094Y359010D01*
X433048Y358997D01*
X433004Y358986D01*
X432963Y358980D01*
X432925Y358975D01*
X432895Y358969D01*
X432868D01*
X432848Y358967D01*
X432832D01*
X432778Y358969D01*
X432726Y358975D01*
X432677Y358983D01*
X432627Y358994D01*
X432584Y359008D01*
X432543Y359024D01*
X432505Y359038D01*
X432469Y359057D01*
X432439Y359073D01*
X432409Y359087D01*
X432387Y359103D01*
X432365Y359117D01*
X432352Y359128D01*
X432338Y359136D01*
X432333Y359141D01*
X432330Y359144D01*
X432294Y359179D01*
X432259Y359215D01*
X432229Y359256D01*
X432204Y359297D01*
X432180Y359338D01*
X432158Y359379D01*
X432125Y359455D01*
X432111Y359493D01*
X432100Y359526D01*
X432092Y359556D01*
X432084Y359584D01*
X432079Y359605D01*
X432076Y359622D01*
X432073Y359633D01*
Y359635D01*
X432376Y359676D01*
X432384Y359633D01*
X432393Y359594D01*
X432404Y359556D01*
X432414Y359524D01*
X432428Y359491D01*
X432439Y359464D01*
X432453Y359439D01*
X432466Y359414D01*
X432480Y359395D01*
X432491Y359379D01*
X432513Y359351D01*
X432526Y359335D01*
X432529Y359332D01*
X432532Y359330D01*
X432581Y359294D01*
X432630Y359267D01*
X432682Y359248D01*
X432728Y359234D01*
X432772Y359226D01*
X432788Y359223D01*
X432805D01*
X432818Y359221D01*
X432835D01*
X432876Y359223D01*
X432917Y359229D01*
X432952Y359237D01*
X432988Y359248D01*
X433050Y359272D01*
X433105Y359305D01*
X433127Y359319D01*
X433146Y359335D01*
X433162Y359349D01*
X433179Y359362D01*
X433190Y359371D01*
X433198Y359379D01*
X433201Y359384D01*
X433203Y359387D01*
X433228Y359420D01*
X433250Y359458D01*
X433269Y359499D01*
X433283Y359540D01*
X433310Y359630D01*
X433326Y359717D01*
X433332Y359758D01*
X433334Y359797D01*
X433337Y359832D01*
X433340Y359862D01*
X433343Y359887D01*
Y359906D01*
Y359919D01*
Y359922D01*
X433340Y359988D01*
X433337Y360050D01*
X433329Y360105D01*
X433321Y360157D01*
X433310Y360206D01*
X433296Y360250D01*
X433283Y360288D01*
X433269Y360323D01*
X433258Y360353D01*
X433244Y360381D01*
X433231Y360403D01*
X433220Y360419D01*
X433212Y360435D01*
X433203Y360443D01*
X433201Y360449D01*
X433198Y360452D01*
X433171Y360482D01*
X433141Y360506D01*
X433108Y360531D01*
X433078Y360550D01*
X433045Y360566D01*
X433015Y360580D01*
X432955Y360599D01*
X432900Y360613D01*
X432878Y360615D01*
X432857Y360618D01*
X432840Y360621D01*
X432818D01*
X432764Y360618D01*
X432712Y360607D01*
X432668Y360591D01*
X432630Y360575D01*
X432600Y360556D01*
X432576Y360542D01*
X432562Y360531D01*
X432556Y360525D01*
X432518Y360487D01*
X432485Y360443D01*
X432461Y360397D01*
X432439Y360353D01*
X432423Y360313D01*
X432412Y360280D01*
X432409Y360266D01*
X432406Y360258D01*
X432404Y360252D01*
Y360250D01*
X432103Y360296D01*
X432114Y360345D01*
X432130Y360394D01*
X432147Y360438D01*
X432163Y360479D01*
X432182Y360517D01*
X432204Y360553D01*
X432223Y360583D01*
X432245Y360613D01*
X432264Y360637D01*
X432283Y360659D01*
X432300Y360678D01*
X432316Y360695D01*
X432327Y360706D01*
X432338Y360714D01*
X432343Y360719D01*
X432346Y360722D01*
X432382Y360749D01*
X432420Y360774D01*
X432461Y360793D01*
X432502Y360809D01*
X432584Y360837D01*
X432660Y360856D01*
X432696Y360861D01*
X432728Y360867D01*
X432758Y360869D01*
X432783Y360872D01*
X432802Y360875D01*
X432832D01*
X432917Y360869D01*
D02*
G37*
G36*
X431129Y360872D02*
X431197Y360864D01*
X431257Y360850D01*
X431317Y360834D01*
X431371Y360815D01*
X431423Y360793D01*
X431470Y360771D01*
X431511Y360747D01*
X431549Y360722D01*
X431582Y360700D01*
X431612Y360678D01*
X431634Y360659D01*
X431653Y360643D01*
X431666Y360629D01*
X431674Y360621D01*
X431677Y360618D01*
X431718Y360569D01*
X431754Y360514D01*
X431786Y360457D01*
X431814Y360400D01*
X431836Y360340D01*
X431855Y360280D01*
X431871Y360222D01*
X431882Y360165D01*
X431893Y360113D01*
X431898Y360061D01*
X431904Y360018D01*
X431909Y359979D01*
Y359947D01*
X431912Y359922D01*
Y359908D01*
Y359903D01*
X431909Y359821D01*
X431901Y359745D01*
X431890Y359674D01*
X431877Y359608D01*
X431857Y359545D01*
X431838Y359488D01*
X431816Y359436D01*
X431795Y359390D01*
X431776Y359349D01*
X431754Y359313D01*
X431735Y359283D01*
X431715Y359259D01*
X431702Y359237D01*
X431691Y359223D01*
X431683Y359215D01*
X431680Y359212D01*
X431634Y359169D01*
X431585Y359130D01*
X431535Y359098D01*
X431481Y359070D01*
X431429Y359046D01*
X431374Y359027D01*
X431322Y359010D01*
X431273Y358997D01*
X431227Y358988D01*
X431183Y358980D01*
X431145Y358975D01*
X431109Y358969D01*
X431082D01*
X431060Y358967D01*
X431044D01*
X430987Y358969D01*
X430929Y358972D01*
X430877Y358980D01*
X430828Y358991D01*
X430782Y359002D01*
X430741Y359016D01*
X430700Y359029D01*
X430664Y359043D01*
X430632Y359057D01*
X430604Y359070D01*
X430580Y359084D01*
X430558Y359095D01*
X430544Y359106D01*
X430531Y359114D01*
X430525Y359117D01*
X430522Y359120D01*
X430484Y359150D01*
X430451Y359182D01*
X430421Y359218D01*
X430391Y359253D01*
X430342Y359327D01*
X430304Y359395D01*
X430290Y359428D01*
X430277Y359458D01*
X430266Y359485D01*
X430258Y359510D01*
X430250Y359529D01*
X430244Y359543D01*
X430241Y359554D01*
Y359556D01*
X430563Y359597D01*
X430591Y359529D01*
X430623Y359469D01*
X430656Y359417D01*
X430686Y359379D01*
X430714Y359346D01*
X430735Y359324D01*
X430749Y359313D01*
X430752Y359308D01*
X430755D01*
X430801Y359278D01*
X430850Y359259D01*
X430899Y359242D01*
X430943Y359231D01*
X430984Y359226D01*
X431017Y359223D01*
X431028Y359221D01*
X431044D01*
X431085Y359223D01*
X431126Y359229D01*
X431164Y359234D01*
X431200Y359245D01*
X431265Y359270D01*
X431320Y359300D01*
X431344Y359313D01*
X431366Y359330D01*
X431382Y359343D01*
X431399Y359354D01*
X431410Y359365D01*
X431418Y359373D01*
X431423Y359376D01*
X431426Y359379D01*
X431453Y359412D01*
X431478Y359444D01*
X431497Y359483D01*
X431516Y359518D01*
X431546Y359597D01*
X431568Y359671D01*
X431576Y359706D01*
X431582Y359739D01*
X431587Y359767D01*
X431590Y359794D01*
X431593Y359813D01*
X431595Y359829D01*
Y359840D01*
Y359843D01*
X430233D01*
X430230Y359878D01*
Y359906D01*
Y359919D01*
Y359925D01*
X430233Y360007D01*
X430241Y360083D01*
X430252Y360157D01*
X430266Y360225D01*
X430285Y360288D01*
X430304Y360345D01*
X430326Y360397D01*
X430345Y360443D01*
X430367Y360485D01*
X430389Y360523D01*
X430408Y360553D01*
X430427Y360577D01*
X430441Y360599D01*
X430451Y360613D01*
X430460Y360621D01*
X430462Y360624D01*
X430506Y360667D01*
X430555Y360706D01*
X430604Y360741D01*
X430653Y360768D01*
X430703Y360793D01*
X430755Y360815D01*
X430801Y360831D01*
X430847Y360845D01*
X430891Y360853D01*
X430932Y360861D01*
X430968Y360867D01*
X431000Y360872D01*
X431025D01*
X431044Y360875D01*
X431060D01*
X431129Y360872D01*
D02*
G37*
G36*
X425453D02*
X425521Y360864D01*
X425581Y360850D01*
X425641Y360834D01*
X425696Y360815D01*
X425748Y360793D01*
X425794Y360771D01*
X425835Y360747D01*
X425873Y360722D01*
X425906Y360700D01*
X425936Y360678D01*
X425958Y360659D01*
X425977Y360643D01*
X425991Y360629D01*
X425999Y360621D01*
X426002Y360618D01*
X426043Y360569D01*
X426078Y360514D01*
X426111Y360457D01*
X426138Y360400D01*
X426160Y360340D01*
X426179Y360280D01*
X426195Y360222D01*
X426206Y360165D01*
X426217Y360113D01*
X426223Y360061D01*
X426228Y360018D01*
X426234Y359979D01*
Y359947D01*
X426236Y359922D01*
Y359908D01*
Y359903D01*
X426234Y359821D01*
X426226Y359745D01*
X426215Y359674D01*
X426201Y359608D01*
X426182Y359545D01*
X426163Y359488D01*
X426141Y359436D01*
X426119Y359390D01*
X426100Y359349D01*
X426078Y359313D01*
X426059Y359283D01*
X426040Y359259D01*
X426026Y359237D01*
X426015Y359223D01*
X426007Y359215D01*
X426004Y359212D01*
X425958Y359169D01*
X425909Y359130D01*
X425860Y359098D01*
X425805Y359070D01*
X425753Y359046D01*
X425699Y359027D01*
X425647Y359010D01*
X425598Y358997D01*
X425551Y358988D01*
X425507Y358980D01*
X425469Y358975D01*
X425434Y358969D01*
X425407D01*
X425385Y358967D01*
X425368D01*
X425311Y358969D01*
X425254Y358972D01*
X425202Y358980D01*
X425153Y358991D01*
X425106Y359002D01*
X425065Y359016D01*
X425024Y359029D01*
X424989Y359043D01*
X424956Y359057D01*
X424929Y359070D01*
X424904Y359084D01*
X424882Y359095D01*
X424869Y359106D01*
X424855Y359114D01*
X424850Y359117D01*
X424847Y359120D01*
X424809Y359150D01*
X424776Y359182D01*
X424746Y359218D01*
X424716Y359253D01*
X424667Y359327D01*
X424628Y359395D01*
X424615Y359428D01*
X424601Y359458D01*
X424590Y359485D01*
X424582Y359510D01*
X424574Y359529D01*
X424568Y359543D01*
X424566Y359554D01*
Y359556D01*
X424888Y359597D01*
X424915Y359529D01*
X424948Y359469D01*
X424981Y359417D01*
X425011Y359379D01*
X425038Y359346D01*
X425060Y359324D01*
X425073Y359313D01*
X425076Y359308D01*
X425079D01*
X425125Y359278D01*
X425174Y359259D01*
X425224Y359242D01*
X425267Y359231D01*
X425308Y359226D01*
X425341Y359223D01*
X425352Y359221D01*
X425368D01*
X425409Y359223D01*
X425450Y359229D01*
X425488Y359234D01*
X425524Y359245D01*
X425589Y359270D01*
X425644Y359300D01*
X425668Y359313D01*
X425690Y359330D01*
X425707Y359343D01*
X425723Y359354D01*
X425734Y359365D01*
X425742Y359373D01*
X425748Y359376D01*
X425750Y359379D01*
X425778Y359412D01*
X425802Y359444D01*
X425821Y359483D01*
X425841Y359518D01*
X425871Y359597D01*
X425892Y359671D01*
X425901Y359706D01*
X425906Y359739D01*
X425912Y359767D01*
X425914Y359794D01*
X425917Y359813D01*
X425920Y359829D01*
Y359840D01*
Y359843D01*
X424557D01*
X424555Y359878D01*
Y359906D01*
Y359919D01*
Y359925D01*
X424557Y360007D01*
X424566Y360083D01*
X424577Y360157D01*
X424590Y360225D01*
X424609Y360288D01*
X424628Y360345D01*
X424650Y360397D01*
X424669Y360443D01*
X424691Y360485D01*
X424713Y360523D01*
X424732Y360553D01*
X424751Y360577D01*
X424765Y360599D01*
X424776Y360613D01*
X424784Y360621D01*
X424787Y360624D01*
X424830Y360667D01*
X424880Y360706D01*
X424929Y360741D01*
X424978Y360768D01*
X425027Y360793D01*
X425079Y360815D01*
X425125Y360831D01*
X425172Y360845D01*
X425215Y360853D01*
X425256Y360861D01*
X425292Y360867D01*
X425325Y360872D01*
X425349D01*
X425368Y360875D01*
X425385D01*
X425453Y360872D01*
D02*
G37*
G36*
X472600Y359008D02*
X472248D01*
Y359360D01*
X472600D01*
Y359008D01*
D02*
G37*
G36*
X467361Y360872D02*
X467399Y360864D01*
X467432Y360856D01*
X467462Y360845D01*
X467484Y360831D01*
X467503Y360823D01*
X467514Y360815D01*
X467519Y360812D01*
X467536Y360798D01*
X467555Y360782D01*
X467588Y360747D01*
X467621Y360703D01*
X467651Y360659D01*
X467678Y360621D01*
X467697Y360585D01*
X467705Y360575D01*
X467710Y360564D01*
X467716Y360558D01*
Y360834D01*
X467994D01*
Y359008D01*
X467686D01*
Y359963D01*
X467683Y360034D01*
X467678Y360102D01*
X467670Y360162D01*
X467661Y360217D01*
X467653Y360261D01*
X467648Y360280D01*
X467645Y360296D01*
X467642Y360307D01*
X467640Y360315D01*
X467637Y360321D01*
Y360323D01*
X467621Y360362D01*
X467604Y360397D01*
X467585Y360424D01*
X467566Y360449D01*
X467550Y360468D01*
X467536Y360482D01*
X467525Y360490D01*
X467522Y360493D01*
X467489Y360514D01*
X467459Y360528D01*
X467429Y360539D01*
X467399Y360547D01*
X467375Y360553D01*
X467356Y360556D01*
X467339D01*
X467296Y360553D01*
X467255Y360544D01*
X467216Y360534D01*
X467184Y360523D01*
X467154Y360509D01*
X467132Y360498D01*
X467118Y360490D01*
X467113Y360487D01*
X467003Y360774D01*
X467064Y360807D01*
X467124Y360831D01*
X467175Y360850D01*
X467225Y360861D01*
X467266Y360869D01*
X467282Y360872D01*
X467296D01*
X467307Y360875D01*
X467323D01*
X467361Y360872D01*
D02*
G37*
G36*
X461926Y359008D02*
X461617D01*
Y360834D01*
X461926D01*
Y359008D01*
D02*
G37*
G36*
X445101Y360872D02*
X445166Y360861D01*
X445226Y360848D01*
X445284Y360828D01*
X445335Y360804D01*
X445382Y360779D01*
X445426Y360752D01*
X445464Y360725D01*
X445499Y360695D01*
X445529Y360667D01*
X445554Y360643D01*
X445573Y360618D01*
X445589Y360599D01*
X445603Y360585D01*
X445609Y360575D01*
X445611Y360572D01*
Y360834D01*
X445890D01*
Y359008D01*
X445581D01*
Y360004D01*
X445578Y360067D01*
X445576Y360127D01*
X445568Y360179D01*
X445559Y360228D01*
X445548Y360272D01*
X445538Y360310D01*
X445524Y360345D01*
X445510Y360375D01*
X445497Y360403D01*
X445483Y360424D01*
X445472Y360441D01*
X445461Y360457D01*
X445453Y360468D01*
X445445Y360476D01*
X445442Y360479D01*
X445439Y360482D01*
X445412Y360504D01*
X445382Y360523D01*
X445325Y360556D01*
X445267Y360577D01*
X445215Y360591D01*
X445169Y360602D01*
X445147Y360605D01*
X445131D01*
X445117Y360607D01*
X445098D01*
X445052Y360605D01*
X445011Y360599D01*
X444975Y360588D01*
X444942Y360580D01*
X444918Y360569D01*
X444899Y360558D01*
X444885Y360553D01*
X444882Y360550D01*
X444849Y360528D01*
X444822Y360504D01*
X444800Y360479D01*
X444784Y360454D01*
X444770Y360433D01*
X444762Y360416D01*
X444757Y360405D01*
X444754Y360400D01*
X444740Y360362D01*
X444732Y360318D01*
X444724Y360272D01*
X444721Y360225D01*
X444719Y360184D01*
X444716Y360165D01*
Y360149D01*
Y360138D01*
Y360127D01*
Y360121D01*
Y360119D01*
Y359008D01*
X444407D01*
Y360130D01*
Y360168D01*
Y360203D01*
X444410Y360239D01*
Y360269D01*
X444413Y360296D01*
Y360321D01*
X444416Y360362D01*
X444421Y360392D01*
X444424Y360414D01*
X444426Y360427D01*
Y360430D01*
X444437Y360479D01*
X444454Y360523D01*
X444467Y360561D01*
X444484Y360594D01*
X444500Y360621D01*
X444511Y360643D01*
X444519Y360654D01*
X444522Y360659D01*
X444549Y360695D01*
X444582Y360725D01*
X444618Y360749D01*
X444650Y360774D01*
X444683Y360790D01*
X444708Y360804D01*
X444724Y360812D01*
X444727Y360815D01*
X444729D01*
X444781Y360834D01*
X444833Y360850D01*
X444885Y360861D01*
X444931Y360867D01*
X444972Y360872D01*
X444989D01*
X445005Y360875D01*
X445032D01*
X445101Y360872D01*
D02*
G37*
G36*
X442084Y359008D02*
X441732D01*
Y359360D01*
X442084D01*
Y359008D01*
D02*
G37*
G36*
X438606Y360872D02*
X438644Y360864D01*
X438677Y360856D01*
X438707Y360845D01*
X438729Y360831D01*
X438748Y360823D01*
X438759Y360815D01*
X438764Y360812D01*
X438781Y360798D01*
X438800Y360782D01*
X438833Y360747D01*
X438865Y360703D01*
X438895Y360659D01*
X438923Y360621D01*
X438942Y360585D01*
X438950Y360575D01*
X438955Y360564D01*
X438961Y360558D01*
Y360834D01*
X439239D01*
Y359008D01*
X438931D01*
Y359963D01*
X438928Y360034D01*
X438923Y360102D01*
X438914Y360162D01*
X438906Y360217D01*
X438898Y360261D01*
X438893Y360280D01*
X438890Y360296D01*
X438887Y360307D01*
X438884Y360315D01*
X438882Y360321D01*
Y360323D01*
X438865Y360362D01*
X438849Y360397D01*
X438830Y360424D01*
X438811Y360449D01*
X438794Y360468D01*
X438781Y360482D01*
X438770Y360490D01*
X438767Y360493D01*
X438734Y360514D01*
X438704Y360528D01*
X438674Y360539D01*
X438644Y360547D01*
X438620Y360553D01*
X438601Y360556D01*
X438584D01*
X438541Y360553D01*
X438499Y360544D01*
X438461Y360534D01*
X438429Y360523D01*
X438399Y360509D01*
X438377Y360498D01*
X438363Y360490D01*
X438358Y360487D01*
X438248Y360774D01*
X438308Y360807D01*
X438369Y360831D01*
X438420Y360850D01*
X438470Y360861D01*
X438511Y360869D01*
X438527Y360872D01*
X438541D01*
X438551Y360875D01*
X438568D01*
X438606Y360872D01*
D02*
G37*
G36*
X435139Y359008D02*
X434830D01*
Y361527D01*
X435139D01*
Y359008D01*
D02*
G37*
G36*
X434347D02*
X434039D01*
Y360834D01*
X434347D01*
Y359008D01*
D02*
G37*
G36*
X429062Y360872D02*
X429128Y360861D01*
X429187Y360848D01*
X429245Y360828D01*
X429297Y360804D01*
X429343Y360779D01*
X429387Y360752D01*
X429425Y360725D01*
X429460Y360695D01*
X429491Y360667D01*
X429515Y360643D01*
X429534Y360618D01*
X429551Y360599D01*
X429564Y360585D01*
X429570Y360575D01*
X429572Y360572D01*
Y360834D01*
X429851D01*
Y359008D01*
X429542D01*
Y360004D01*
X429540Y360067D01*
X429537Y360127D01*
X429529Y360179D01*
X429521Y360228D01*
X429510Y360272D01*
X429499Y360310D01*
X429485Y360345D01*
X429471Y360375D01*
X429458Y360403D01*
X429444Y360424D01*
X429433Y360441D01*
X429422Y360457D01*
X429414Y360468D01*
X429406Y360476D01*
X429403Y360479D01*
X429400Y360482D01*
X429373Y360504D01*
X429343Y360523D01*
X429286Y360556D01*
X429228Y360577D01*
X429177Y360591D01*
X429130Y360602D01*
X429108Y360605D01*
X429092D01*
X429078Y360607D01*
X429059D01*
X429013Y360605D01*
X428972Y360599D01*
X428936Y360588D01*
X428904Y360580D01*
X428879Y360569D01*
X428860Y360558D01*
X428846Y360553D01*
X428843Y360550D01*
X428811Y360528D01*
X428784Y360504D01*
X428762Y360479D01*
X428745Y360454D01*
X428732Y360433D01*
X428723Y360416D01*
X428718Y360405D01*
X428715Y360400D01*
X428702Y360362D01*
X428693Y360318D01*
X428685Y360272D01*
X428683Y360225D01*
X428680Y360184D01*
X428677Y360165D01*
Y360149D01*
Y360138D01*
Y360127D01*
Y360121D01*
Y360119D01*
Y359008D01*
X428369D01*
Y360130D01*
Y360168D01*
Y360203D01*
X428371Y360239D01*
Y360269D01*
X428374Y360296D01*
Y360321D01*
X428377Y360362D01*
X428382Y360392D01*
X428385Y360414D01*
X428388Y360427D01*
Y360430D01*
X428399Y360479D01*
X428415Y360523D01*
X428429Y360561D01*
X428445Y360594D01*
X428461Y360621D01*
X428472Y360643D01*
X428480Y360654D01*
X428483Y360659D01*
X428511Y360695D01*
X428543Y360725D01*
X428579Y360749D01*
X428612Y360774D01*
X428644Y360790D01*
X428669Y360804D01*
X428685Y360812D01*
X428688Y360815D01*
X428691D01*
X428743Y360834D01*
X428794Y360850D01*
X428846Y360861D01*
X428893Y360867D01*
X428934Y360872D01*
X428950D01*
X428966Y360875D01*
X428994D01*
X429062Y360872D01*
D02*
G37*
G36*
X412043Y359895D02*
Y359611D01*
X410946D01*
Y359008D01*
X410637D01*
Y359611D01*
X410296D01*
Y359895D01*
X410637D01*
Y361527D01*
X410891D01*
X412043Y359895D01*
D02*
G37*
G36*
X409807Y359008D02*
X409455D01*
Y359360D01*
X409807D01*
Y359008D01*
D02*
G37*
G36*
X473897Y360872D02*
X473946Y360869D01*
X473992Y360864D01*
X474030Y360856D01*
X474066Y360848D01*
X474091Y360842D01*
X474107Y360839D01*
X474110Y360837D01*
X474112D01*
X474156Y360823D01*
X474197Y360807D01*
X474230Y360790D01*
X474257Y360777D01*
X474279Y360766D01*
X474295Y360755D01*
X474306Y360749D01*
X474309Y360747D01*
X474344Y360719D01*
X474374Y360692D01*
X474402Y360662D01*
X474421Y360635D01*
X474440Y360610D01*
X474451Y360591D01*
X474459Y360580D01*
X474462Y360575D01*
X474481Y360536D01*
X474495Y360495D01*
X474503Y360457D01*
X474508Y360422D01*
X474514Y360392D01*
X474516Y360370D01*
Y360353D01*
Y360351D01*
Y360348D01*
X474514Y360299D01*
X474506Y360252D01*
X474495Y360211D01*
X474484Y360176D01*
X474473Y360146D01*
X474462Y360121D01*
X474454Y360108D01*
X474451Y360102D01*
X474424Y360064D01*
X474391Y360029D01*
X474358Y360001D01*
X474325Y359977D01*
X474295Y359955D01*
X474273Y359941D01*
X474257Y359933D01*
X474254Y359930D01*
X474252D01*
X474224Y359919D01*
X474192Y359906D01*
X474159Y359892D01*
X474121Y359881D01*
X474041Y359857D01*
X473965Y359832D01*
X473927Y359821D01*
X473891Y359810D01*
X473858Y359802D01*
X473831Y359794D01*
X473809Y359788D01*
X473790Y359783D01*
X473779Y359780D01*
X473777D01*
X473733Y359769D01*
X473692Y359758D01*
X473654Y359747D01*
X473621Y359736D01*
X473591Y359728D01*
X473566Y359720D01*
X473545Y359712D01*
X473523Y359704D01*
X473506Y359698D01*
X473493Y359693D01*
X473474Y359685D01*
X473463Y359679D01*
X473460Y359676D01*
X473430Y359652D01*
X473405Y359625D01*
X473389Y359597D01*
X473378Y359570D01*
X473373Y359548D01*
X473367Y359526D01*
Y359515D01*
Y359510D01*
X473373Y359466D01*
X473384Y359428D01*
X473400Y359392D01*
X473419Y359362D01*
X473438Y359338D01*
X473455Y359321D01*
X473465Y359308D01*
X473471Y359305D01*
X473515Y359278D01*
X473564Y359256D01*
X473618Y359242D01*
X473670Y359231D01*
X473717Y359226D01*
X473736Y359223D01*
X473755D01*
X473768Y359221D01*
X473790D01*
X473864Y359226D01*
X473930Y359237D01*
X473987Y359250D01*
X474033Y359270D01*
X474072Y359286D01*
X474099Y359302D01*
X474115Y359313D01*
X474118Y359316D01*
X474121D01*
X474161Y359357D01*
X474192Y359401D01*
X474216Y359450D01*
X474235Y359496D01*
X474249Y359537D01*
X474254Y359554D01*
X474257Y359570D01*
X474260Y359584D01*
Y359592D01*
X474263Y359597D01*
Y359600D01*
X474568Y359551D01*
X474557Y359499D01*
X474544Y359447D01*
X474527Y359401D01*
X474511Y359360D01*
X474492Y359319D01*
X474473Y359283D01*
X474454Y359250D01*
X474432Y359221D01*
X474413Y359196D01*
X474394Y359174D01*
X474377Y359155D01*
X474364Y359139D01*
X474350Y359128D01*
X474342Y359120D01*
X474336Y359114D01*
X474333Y359111D01*
X474295Y359087D01*
X474257Y359065D01*
X474213Y359043D01*
X474170Y359027D01*
X474077Y359002D01*
X473989Y358986D01*
X473949Y358978D01*
X473910Y358975D01*
X473875Y358972D01*
X473848Y358969D01*
X473823Y358967D01*
X473787D01*
X473708Y358969D01*
X473637Y358978D01*
X473572Y358991D01*
X473515Y359005D01*
X473490Y359010D01*
X473468Y359016D01*
X473449Y359024D01*
X473433Y359029D01*
X473419Y359035D01*
X473411Y359038D01*
X473405Y359040D01*
X473403D01*
X473343Y359070D01*
X473291Y359103D01*
X473247Y359139D01*
X473209Y359174D01*
X473181Y359204D01*
X473160Y359229D01*
X473149Y359245D01*
X473143Y359248D01*
Y359250D01*
X473113Y359302D01*
X473089Y359354D01*
X473072Y359403D01*
X473061Y359447D01*
X473056Y359485D01*
X473050Y359515D01*
Y359526D01*
Y359534D01*
Y359540D01*
Y359543D01*
X473053Y359600D01*
X473061Y359652D01*
X473075Y359696D01*
X473089Y359734D01*
X473102Y359767D01*
X473116Y359788D01*
X473124Y359802D01*
X473127Y359807D01*
X473157Y359846D01*
X473190Y359878D01*
X473225Y359906D01*
X473258Y359928D01*
X473285Y359947D01*
X473310Y359958D01*
X473326Y359966D01*
X473329Y359968D01*
X473332D01*
X473359Y359979D01*
X473389Y359990D01*
X473422Y360004D01*
X473457Y360015D01*
X473531Y360039D01*
X473607Y360061D01*
X473643Y360072D01*
X473678Y360083D01*
X473708Y360091D01*
X473733Y360100D01*
X473758Y360105D01*
X473774Y360110D01*
X473785Y360113D01*
X473787D01*
X473829Y360124D01*
X473864Y360135D01*
X473897Y360143D01*
X473927Y360151D01*
X473951Y360160D01*
X473973Y360165D01*
X473992Y360171D01*
X474009Y360176D01*
X474033Y360184D01*
X474050Y360190D01*
X474058Y360192D01*
X474060D01*
X474088Y360206D01*
X474112Y360220D01*
X474134Y360233D01*
X474151Y360247D01*
X474164Y360258D01*
X474172Y360266D01*
X474178Y360272D01*
X474181Y360274D01*
X474192Y360293D01*
X474200Y360313D01*
X474211Y360348D01*
X474213Y360362D01*
X474216Y360373D01*
Y360381D01*
Y360384D01*
X474213Y360419D01*
X474202Y360449D01*
X474189Y360479D01*
X474170Y360504D01*
X474153Y360523D01*
X474140Y360536D01*
X474129Y360547D01*
X474126Y360550D01*
X474107Y360564D01*
X474088Y360575D01*
X474041Y360591D01*
X473989Y360605D01*
X473940Y360613D01*
X473894Y360618D01*
X473875D01*
X473858Y360621D01*
X473823D01*
X473758Y360618D01*
X473703Y360607D01*
X473654Y360596D01*
X473613Y360580D01*
X473583Y360566D01*
X473561Y360553D01*
X473547Y360542D01*
X473542Y360539D01*
X473509Y360506D01*
X473482Y360471D01*
X473460Y360435D01*
X473444Y360400D01*
X473433Y360370D01*
X473427Y360343D01*
X473422Y360326D01*
Y360323D01*
Y360321D01*
X473119Y360362D01*
X473132Y360424D01*
X473149Y360479D01*
X473165Y360528D01*
X473184Y360569D01*
X473201Y360599D01*
X473214Y360624D01*
X473225Y360637D01*
X473228Y360643D01*
X473261Y360681D01*
X473299Y360714D01*
X473337Y360744D01*
X473375Y360768D01*
X473414Y360788D01*
X473441Y360801D01*
X473452Y360807D01*
X473460Y360809D01*
X473465Y360812D01*
X473468D01*
X473531Y360834D01*
X473594Y360848D01*
X473659Y360858D01*
X473717Y360867D01*
X473768Y360872D01*
X473790D01*
X473809Y360875D01*
X473845D01*
X473897Y360872D01*
D02*
G37*
G36*
X454991D02*
X455052Y360867D01*
X455106Y360856D01*
X455161Y360842D01*
X455213Y360828D01*
X455259Y360809D01*
X455303Y360793D01*
X455341Y360774D01*
X455379Y360755D01*
X455409Y360736D01*
X455437Y360717D01*
X455461Y360703D01*
X455477Y360689D01*
X455491Y360678D01*
X455499Y360673D01*
X455502Y360670D01*
X455551Y360621D01*
X455595Y360569D01*
X455633Y360512D01*
X455666Y360452D01*
X455690Y360389D01*
X455715Y360326D01*
X455734Y360263D01*
X455748Y360203D01*
X455759Y360146D01*
X455769Y360094D01*
X455775Y360045D01*
X455778Y360001D01*
X455781Y359968D01*
X455783Y359941D01*
Y359925D01*
Y359922D01*
Y359919D01*
X455781Y359835D01*
X455772Y359756D01*
X455761Y359682D01*
X455748Y359614D01*
X455729Y359551D01*
X455710Y359493D01*
X455688Y359442D01*
X455666Y359392D01*
X455644Y359351D01*
X455622Y359313D01*
X455603Y359283D01*
X455584Y359259D01*
X455570Y359237D01*
X455559Y359223D01*
X455551Y359215D01*
X455548Y359212D01*
X455502Y359169D01*
X455453Y359130D01*
X455404Y359098D01*
X455352Y359070D01*
X455300Y359046D01*
X455248Y359027D01*
X455199Y359010D01*
X455150Y358997D01*
X455103Y358988D01*
X455062Y358980D01*
X455024Y358975D01*
X454991Y358969D01*
X454964D01*
X454945Y358967D01*
X454929D01*
X454841Y358972D01*
X454759Y358983D01*
X454686Y359002D01*
X454650Y359010D01*
X454620Y359021D01*
X454590Y359032D01*
X454566Y359040D01*
X454544Y359051D01*
X454525Y359059D01*
X454508Y359065D01*
X454497Y359070D01*
X454492Y359076D01*
X454489D01*
X454418Y359122D01*
X454355Y359171D01*
X454304Y359223D01*
X454260Y359275D01*
X454224Y359319D01*
X454211Y359341D01*
X454200Y359357D01*
X454192Y359371D01*
X454186Y359382D01*
X454181Y359387D01*
Y359390D01*
X454162Y359431D01*
X454145Y359472D01*
X454118Y359562D01*
X454099Y359655D01*
X454088Y359742D01*
X454082Y359783D01*
X454080Y359821D01*
X454077Y359857D01*
Y359887D01*
X454074Y359911D01*
Y359928D01*
Y359941D01*
Y359944D01*
X454077Y360023D01*
X454085Y360100D01*
X454096Y360171D01*
X454112Y360236D01*
X454129Y360296D01*
X454151Y360351D01*
X454173Y360403D01*
X454194Y360449D01*
X454216Y360490D01*
X454238Y360525D01*
X454260Y360556D01*
X454276Y360580D01*
X454293Y360602D01*
X454304Y360615D01*
X454312Y360624D01*
X454314Y360626D01*
X454361Y360670D01*
X454410Y360708D01*
X454459Y360741D01*
X454511Y360771D01*
X454563Y360793D01*
X454612Y360815D01*
X454664Y360831D01*
X454710Y360845D01*
X454757Y360853D01*
X454798Y360861D01*
X454833Y360867D01*
X454866Y360872D01*
X454893D01*
X454912Y360875D01*
X454929D01*
X454991Y360872D01*
D02*
G37*
G36*
X447170D02*
X447230Y360867D01*
X447285Y360856D01*
X447339Y360842D01*
X447391Y360828D01*
X447438Y360809D01*
X447481Y360793D01*
X447519Y360774D01*
X447558Y360755D01*
X447588Y360736D01*
X447615Y360717D01*
X447640Y360703D01*
X447656Y360689D01*
X447670Y360678D01*
X447678Y360673D01*
X447681Y360670D01*
X447730Y360621D01*
X447773Y360569D01*
X447812Y360512D01*
X447844Y360452D01*
X447869Y360389D01*
X447893Y360326D01*
X447913Y360263D01*
X447926Y360203D01*
X447937Y360146D01*
X447948Y360094D01*
X447954Y360045D01*
X447956Y360001D01*
X447959Y359968D01*
X447962Y359941D01*
Y359925D01*
Y359922D01*
Y359919D01*
X447959Y359835D01*
X447951Y359756D01*
X447940Y359682D01*
X447926Y359614D01*
X447907Y359551D01*
X447888Y359493D01*
X447866Y359442D01*
X447844Y359392D01*
X447823Y359351D01*
X447801Y359313D01*
X447782Y359283D01*
X447762Y359259D01*
X447749Y359237D01*
X447738Y359223D01*
X447730Y359215D01*
X447727Y359212D01*
X447681Y359169D01*
X447631Y359130D01*
X447582Y359098D01*
X447530Y359070D01*
X447478Y359046D01*
X447427Y359027D01*
X447377Y359010D01*
X447328Y358997D01*
X447282Y358988D01*
X447241Y358980D01*
X447203Y358975D01*
X447170Y358969D01*
X447143D01*
X447124Y358967D01*
X447107D01*
X447020Y358972D01*
X446938Y358983D01*
X446864Y359002D01*
X446829Y359010D01*
X446799Y359021D01*
X446769Y359032D01*
X446744Y359040D01*
X446722Y359051D01*
X446703Y359059D01*
X446687Y359065D01*
X446676Y359070D01*
X446670Y359076D01*
X446668D01*
X446597Y359122D01*
X446534Y359171D01*
X446482Y359223D01*
X446438Y359275D01*
X446403Y359319D01*
X446389Y359341D01*
X446378Y359357D01*
X446370Y359371D01*
X446365Y359382D01*
X446359Y359387D01*
Y359390D01*
X446340Y359431D01*
X446324Y359472D01*
X446296Y359562D01*
X446277Y359655D01*
X446266Y359742D01*
X446261Y359783D01*
X446258Y359821D01*
X446255Y359857D01*
Y359887D01*
X446253Y359911D01*
Y359928D01*
Y359941D01*
Y359944D01*
X446255Y360023D01*
X446264Y360100D01*
X446275Y360171D01*
X446291Y360236D01*
X446307Y360296D01*
X446329Y360351D01*
X446351Y360403D01*
X446373Y360449D01*
X446395Y360490D01*
X446417Y360525D01*
X446438Y360556D01*
X446455Y360580D01*
X446471Y360602D01*
X446482Y360615D01*
X446490Y360624D01*
X446493Y360626D01*
X446539Y360670D01*
X446589Y360708D01*
X446638Y360741D01*
X446690Y360771D01*
X446741Y360793D01*
X446791Y360815D01*
X446842Y360831D01*
X446889Y360845D01*
X446935Y360853D01*
X446976Y360861D01*
X447012Y360867D01*
X447044Y360872D01*
X447072D01*
X447091Y360875D01*
X447107D01*
X447170Y360872D01*
D02*
G37*
G36*
X443384D02*
X443433Y360869D01*
X443479Y360864D01*
X443517Y360856D01*
X443553Y360848D01*
X443577Y360842D01*
X443594Y360839D01*
X443597Y360837D01*
X443599D01*
X443643Y360823D01*
X443684Y360807D01*
X443717Y360790D01*
X443744Y360777D01*
X443766Y360766D01*
X443782Y360755D01*
X443793Y360749D01*
X443796Y360747D01*
X443831Y360719D01*
X443861Y360692D01*
X443889Y360662D01*
X443908Y360635D01*
X443927Y360610D01*
X443938Y360591D01*
X443946Y360580D01*
X443949Y360575D01*
X443968Y360536D01*
X443981Y360495D01*
X443990Y360457D01*
X443995Y360422D01*
X444000Y360392D01*
X444003Y360370D01*
Y360353D01*
Y360351D01*
Y360348D01*
X444000Y360299D01*
X443992Y360252D01*
X443981Y360211D01*
X443970Y360176D01*
X443960Y360146D01*
X443949Y360121D01*
X443940Y360108D01*
X443938Y360102D01*
X443910Y360064D01*
X443878Y360029D01*
X443845Y360001D01*
X443812Y359977D01*
X443782Y359955D01*
X443760Y359941D01*
X443744Y359933D01*
X443741Y359930D01*
X443738D01*
X443711Y359919D01*
X443678Y359906D01*
X443646Y359892D01*
X443607Y359881D01*
X443528Y359857D01*
X443452Y359832D01*
X443414Y359821D01*
X443378Y359810D01*
X443345Y359802D01*
X443318Y359794D01*
X443296Y359788D01*
X443277Y359783D01*
X443266Y359780D01*
X443263D01*
X443220Y359769D01*
X443179Y359758D01*
X443141Y359747D01*
X443108Y359736D01*
X443078Y359728D01*
X443053Y359720D01*
X443031Y359712D01*
X443010Y359704D01*
X442993Y359698D01*
X442979Y359693D01*
X442960Y359685D01*
X442949Y359679D01*
X442947Y359676D01*
X442917Y359652D01*
X442892Y359625D01*
X442876Y359597D01*
X442865Y359570D01*
X442859Y359548D01*
X442854Y359526D01*
Y359515D01*
Y359510D01*
X442859Y359466D01*
X442870Y359428D01*
X442887Y359392D01*
X442906Y359362D01*
X442925Y359338D01*
X442941Y359321D01*
X442952Y359308D01*
X442958Y359305D01*
X443001Y359278D01*
X443050Y359256D01*
X443105Y359242D01*
X443157Y359231D01*
X443203Y359226D01*
X443223Y359223D01*
X443242D01*
X443255Y359221D01*
X443277D01*
X443351Y359226D01*
X443416Y359237D01*
X443474Y359250D01*
X443520Y359270D01*
X443558Y359286D01*
X443585Y359302D01*
X443602Y359313D01*
X443605Y359316D01*
X443607D01*
X443648Y359357D01*
X443678Y359401D01*
X443703Y359450D01*
X443722Y359496D01*
X443736Y359537D01*
X443741Y359554D01*
X443744Y359570D01*
X443747Y359584D01*
Y359592D01*
X443749Y359597D01*
Y359600D01*
X444055Y359551D01*
X444044Y359499D01*
X444031Y359447D01*
X444014Y359401D01*
X443998Y359360D01*
X443979Y359319D01*
X443960Y359283D01*
X443940Y359250D01*
X443919Y359221D01*
X443899Y359196D01*
X443880Y359174D01*
X443864Y359155D01*
X443850Y359139D01*
X443837Y359128D01*
X443828Y359120D01*
X443823Y359114D01*
X443820Y359111D01*
X443782Y359087D01*
X443744Y359065D01*
X443700Y359043D01*
X443656Y359027D01*
X443564Y359002D01*
X443476Y358986D01*
X443435Y358978D01*
X443397Y358975D01*
X443362Y358972D01*
X443334Y358969D01*
X443310Y358967D01*
X443274D01*
X443195Y358969D01*
X443124Y358978D01*
X443059Y358991D01*
X443001Y359005D01*
X442977Y359010D01*
X442955Y359016D01*
X442936Y359024D01*
X442919Y359029D01*
X442906Y359035D01*
X442898Y359038D01*
X442892Y359040D01*
X442889D01*
X442829Y359070D01*
X442777Y359103D01*
X442734Y359139D01*
X442696Y359174D01*
X442668Y359204D01*
X442646Y359229D01*
X442635Y359245D01*
X442630Y359248D01*
Y359250D01*
X442600Y359302D01*
X442575Y359354D01*
X442559Y359403D01*
X442548Y359447D01*
X442543Y359485D01*
X442537Y359515D01*
Y359526D01*
Y359534D01*
Y359540D01*
Y359543D01*
X442540Y359600D01*
X442548Y359652D01*
X442562Y359696D01*
X442575Y359734D01*
X442589Y359767D01*
X442603Y359788D01*
X442611Y359802D01*
X442614Y359807D01*
X442644Y359846D01*
X442676Y359878D01*
X442712Y359906D01*
X442745Y359928D01*
X442772Y359947D01*
X442797Y359958D01*
X442813Y359966D01*
X442816Y359968D01*
X442818D01*
X442846Y359979D01*
X442876Y359990D01*
X442908Y360004D01*
X442944Y360015D01*
X443018Y360039D01*
X443094Y360061D01*
X443130Y360072D01*
X443165Y360083D01*
X443195Y360091D01*
X443220Y360100D01*
X443244Y360105D01*
X443261Y360110D01*
X443272Y360113D01*
X443274D01*
X443315Y360124D01*
X443351Y360135D01*
X443384Y360143D01*
X443414Y360151D01*
X443438Y360160D01*
X443460Y360165D01*
X443479Y360171D01*
X443495Y360176D01*
X443520Y360184D01*
X443536Y360190D01*
X443545Y360192D01*
X443547D01*
X443575Y360206D01*
X443599Y360220D01*
X443621Y360233D01*
X443637Y360247D01*
X443651Y360258D01*
X443659Y360266D01*
X443665Y360272D01*
X443667Y360274D01*
X443678Y360293D01*
X443686Y360313D01*
X443698Y360348D01*
X443700Y360362D01*
X443703Y360373D01*
Y360381D01*
Y360384D01*
X443700Y360419D01*
X443689Y360449D01*
X443676Y360479D01*
X443656Y360504D01*
X443640Y360523D01*
X443626Y360536D01*
X443616Y360547D01*
X443613Y360550D01*
X443594Y360564D01*
X443575Y360575D01*
X443528Y360591D01*
X443476Y360605D01*
X443427Y360613D01*
X443381Y360618D01*
X443362D01*
X443345Y360621D01*
X443310D01*
X443244Y360618D01*
X443190Y360607D01*
X443141Y360596D01*
X443100Y360580D01*
X443070Y360566D01*
X443048Y360553D01*
X443034Y360542D01*
X443029Y360539D01*
X442996Y360506D01*
X442969Y360471D01*
X442947Y360435D01*
X442930Y360400D01*
X442919Y360370D01*
X442914Y360343D01*
X442908Y360326D01*
Y360323D01*
Y360321D01*
X442605Y360362D01*
X442619Y360424D01*
X442635Y360479D01*
X442652Y360528D01*
X442671Y360569D01*
X442687Y360599D01*
X442701Y360624D01*
X442712Y360637D01*
X442715Y360643D01*
X442747Y360681D01*
X442786Y360714D01*
X442824Y360744D01*
X442862Y360768D01*
X442900Y360788D01*
X442928Y360801D01*
X442939Y360807D01*
X442947Y360809D01*
X442952Y360812D01*
X442955D01*
X443018Y360834D01*
X443081Y360848D01*
X443146Y360858D01*
X443203Y360867D01*
X443255Y360872D01*
X443277D01*
X443296Y360875D01*
X443332D01*
X443384Y360872D01*
D02*
G37*
G36*
X440517D02*
X440577Y360867D01*
X440632Y360856D01*
X440686Y360842D01*
X440738Y360828D01*
X440785Y360809D01*
X440828Y360793D01*
X440867Y360774D01*
X440905Y360755D01*
X440935Y360736D01*
X440962Y360717D01*
X440987Y360703D01*
X441003Y360689D01*
X441017Y360678D01*
X441025Y360673D01*
X441027Y360670D01*
X441077Y360621D01*
X441120Y360569D01*
X441159Y360512D01*
X441191Y360452D01*
X441216Y360389D01*
X441241Y360326D01*
X441260Y360263D01*
X441273Y360203D01*
X441284Y360146D01*
X441295Y360094D01*
X441300Y360045D01*
X441303Y360001D01*
X441306Y359968D01*
X441309Y359941D01*
Y359925D01*
Y359922D01*
Y359919D01*
X441306Y359835D01*
X441298Y359756D01*
X441287Y359682D01*
X441273Y359614D01*
X441254Y359551D01*
X441235Y359493D01*
X441213Y359442D01*
X441191Y359392D01*
X441170Y359351D01*
X441148Y359313D01*
X441128Y359283D01*
X441109Y359259D01*
X441096Y359237D01*
X441085Y359223D01*
X441077Y359215D01*
X441074Y359212D01*
X441027Y359169D01*
X440978Y359130D01*
X440929Y359098D01*
X440877Y359070D01*
X440826Y359046D01*
X440774Y359027D01*
X440725Y359010D01*
X440675Y358997D01*
X440629Y358988D01*
X440588Y358980D01*
X440550Y358975D01*
X440517Y358969D01*
X440490D01*
X440471Y358967D01*
X440454D01*
X440367Y358972D01*
X440285Y358983D01*
X440211Y359002D01*
X440176Y359010D01*
X440146Y359021D01*
X440116Y359032D01*
X440091Y359040D01*
X440069Y359051D01*
X440050Y359059D01*
X440034Y359065D01*
X440023Y359070D01*
X440017Y359076D01*
X440015D01*
X439944Y359122D01*
X439881Y359171D01*
X439829Y359223D01*
X439785Y359275D01*
X439750Y359319D01*
X439736Y359341D01*
X439725Y359357D01*
X439717Y359371D01*
X439712Y359382D01*
X439706Y359387D01*
Y359390D01*
X439687Y359431D01*
X439671Y359472D01*
X439643Y359562D01*
X439624Y359655D01*
X439613Y359742D01*
X439608Y359783D01*
X439605Y359821D01*
X439603Y359857D01*
Y359887D01*
X439600Y359911D01*
Y359928D01*
Y359941D01*
Y359944D01*
X439603Y360023D01*
X439611Y360100D01*
X439622Y360171D01*
X439638Y360236D01*
X439654Y360296D01*
X439676Y360351D01*
X439698Y360403D01*
X439720Y360449D01*
X439742Y360490D01*
X439763Y360525D01*
X439785Y360556D01*
X439802Y360580D01*
X439818Y360602D01*
X439829Y360615D01*
X439837Y360624D01*
X439840Y360626D01*
X439886Y360670D01*
X439935Y360708D01*
X439985Y360741D01*
X440036Y360771D01*
X440088Y360793D01*
X440138Y360815D01*
X440189Y360831D01*
X440236Y360845D01*
X440282Y360853D01*
X440323Y360861D01*
X440359Y360867D01*
X440391Y360872D01*
X440419D01*
X440438Y360875D01*
X440454D01*
X440517Y360872D01*
D02*
G37*
G36*
X427345D02*
X427394Y360869D01*
X427440Y360864D01*
X427479Y360856D01*
X427514Y360848D01*
X427539Y360842D01*
X427555Y360839D01*
X427558Y360837D01*
X427560D01*
X427604Y360823D01*
X427645Y360807D01*
X427678Y360790D01*
X427705Y360777D01*
X427727Y360766D01*
X427743Y360755D01*
X427754Y360749D01*
X427757Y360747D01*
X427793Y360719D01*
X427822Y360692D01*
X427850Y360662D01*
X427869Y360635D01*
X427888Y360610D01*
X427899Y360591D01*
X427907Y360580D01*
X427910Y360575D01*
X427929Y360536D01*
X427943Y360495D01*
X427951Y360457D01*
X427956Y360422D01*
X427962Y360392D01*
X427964Y360370D01*
Y360353D01*
Y360351D01*
Y360348D01*
X427962Y360299D01*
X427954Y360252D01*
X427943Y360211D01*
X427932Y360176D01*
X427921Y360146D01*
X427910Y360121D01*
X427902Y360108D01*
X427899Y360102D01*
X427872Y360064D01*
X427839Y360029D01*
X427806Y360001D01*
X427773Y359977D01*
X427743Y359955D01*
X427722Y359941D01*
X427705Y359933D01*
X427702Y359930D01*
X427700D01*
X427672Y359919D01*
X427640Y359906D01*
X427607Y359892D01*
X427569Y359881D01*
X427490Y359857D01*
X427413Y359832D01*
X427375Y359821D01*
X427339Y359810D01*
X427307Y359802D01*
X427279Y359794D01*
X427257Y359788D01*
X427238Y359783D01*
X427227Y359780D01*
X427225D01*
X427181Y359769D01*
X427140Y359758D01*
X427102Y359747D01*
X427069Y359736D01*
X427039Y359728D01*
X427014Y359720D01*
X426993Y359712D01*
X426971Y359704D01*
X426954Y359698D01*
X426941Y359693D01*
X426922Y359685D01*
X426911Y359679D01*
X426908Y359676D01*
X426878Y359652D01*
X426853Y359625D01*
X426837Y359597D01*
X426826Y359570D01*
X426821Y359548D01*
X426815Y359526D01*
Y359515D01*
Y359510D01*
X426821Y359466D01*
X426831Y359428D01*
X426848Y359392D01*
X426867Y359362D01*
X426886Y359338D01*
X426902Y359321D01*
X426913Y359308D01*
X426919Y359305D01*
X426963Y359278D01*
X427012Y359256D01*
X427066Y359242D01*
X427118Y359231D01*
X427165Y359226D01*
X427184Y359223D01*
X427203D01*
X427216Y359221D01*
X427238D01*
X427312Y359226D01*
X427378Y359237D01*
X427435Y359250D01*
X427481Y359270D01*
X427520Y359286D01*
X427547Y359302D01*
X427563Y359313D01*
X427566Y359316D01*
X427569D01*
X427610Y359357D01*
X427640Y359401D01*
X427664Y359450D01*
X427683Y359496D01*
X427697Y359537D01*
X427702Y359554D01*
X427705Y359570D01*
X427708Y359584D01*
Y359592D01*
X427711Y359597D01*
Y359600D01*
X428016Y359551D01*
X428005Y359499D01*
X427992Y359447D01*
X427975Y359401D01*
X427959Y359360D01*
X427940Y359319D01*
X427921Y359283D01*
X427902Y359250D01*
X427880Y359221D01*
X427861Y359196D01*
X427842Y359174D01*
X427825Y359155D01*
X427812Y359139D01*
X427798Y359128D01*
X427790Y359120D01*
X427784Y359114D01*
X427782Y359111D01*
X427743Y359087D01*
X427705Y359065D01*
X427661Y359043D01*
X427618Y359027D01*
X427525Y359002D01*
X427438Y358986D01*
X427397Y358978D01*
X427358Y358975D01*
X427323Y358972D01*
X427296Y358969D01*
X427271Y358967D01*
X427236D01*
X427156Y358969D01*
X427085Y358978D01*
X427020Y358991D01*
X426963Y359005D01*
X426938Y359010D01*
X426916Y359016D01*
X426897Y359024D01*
X426881Y359029D01*
X426867Y359035D01*
X426859Y359038D01*
X426853Y359040D01*
X426851D01*
X426791Y359070D01*
X426739Y359103D01*
X426695Y359139D01*
X426657Y359174D01*
X426629Y359204D01*
X426608Y359229D01*
X426597Y359245D01*
X426591Y359248D01*
Y359250D01*
X426561Y359302D01*
X426537Y359354D01*
X426520Y359403D01*
X426509Y359447D01*
X426504Y359485D01*
X426499Y359515D01*
Y359526D01*
Y359534D01*
Y359540D01*
Y359543D01*
X426501Y359600D01*
X426509Y359652D01*
X426523Y359696D01*
X426537Y359734D01*
X426550Y359767D01*
X426564Y359788D01*
X426572Y359802D01*
X426575Y359807D01*
X426605Y359846D01*
X426638Y359878D01*
X426673Y359906D01*
X426706Y359928D01*
X426733Y359947D01*
X426758Y359958D01*
X426774Y359966D01*
X426777Y359968D01*
X426780D01*
X426807Y359979D01*
X426837Y359990D01*
X426870Y360004D01*
X426905Y360015D01*
X426979Y360039D01*
X427055Y360061D01*
X427091Y360072D01*
X427126Y360083D01*
X427156Y360091D01*
X427181Y360100D01*
X427206Y360105D01*
X427222Y360110D01*
X427233Y360113D01*
X427236D01*
X427277Y360124D01*
X427312Y360135D01*
X427345Y360143D01*
X427375Y360151D01*
X427399Y360160D01*
X427421Y360165D01*
X427440Y360171D01*
X427457Y360176D01*
X427481Y360184D01*
X427498Y360190D01*
X427506Y360192D01*
X427509D01*
X427536Y360206D01*
X427560Y360220D01*
X427582Y360233D01*
X427599Y360247D01*
X427612Y360258D01*
X427621Y360266D01*
X427626Y360272D01*
X427629Y360274D01*
X427640Y360293D01*
X427648Y360313D01*
X427659Y360348D01*
X427661Y360362D01*
X427664Y360373D01*
Y360381D01*
Y360384D01*
X427661Y360419D01*
X427650Y360449D01*
X427637Y360479D01*
X427618Y360504D01*
X427601Y360523D01*
X427588Y360536D01*
X427577Y360547D01*
X427574Y360550D01*
X427555Y360564D01*
X427536Y360575D01*
X427490Y360591D01*
X427438Y360605D01*
X427388Y360613D01*
X427342Y360618D01*
X427323D01*
X427307Y360621D01*
X427271D01*
X427206Y360618D01*
X427151Y360607D01*
X427102Y360596D01*
X427061Y360580D01*
X427031Y360566D01*
X427009Y360553D01*
X426995Y360542D01*
X426990Y360539D01*
X426957Y360506D01*
X426930Y360471D01*
X426908Y360435D01*
X426892Y360400D01*
X426881Y360370D01*
X426875Y360343D01*
X426870Y360326D01*
Y360323D01*
Y360321D01*
X426567Y360362D01*
X426580Y360424D01*
X426597Y360479D01*
X426613Y360528D01*
X426632Y360569D01*
X426649Y360599D01*
X426662Y360624D01*
X426673Y360637D01*
X426676Y360643D01*
X426709Y360681D01*
X426747Y360714D01*
X426785Y360744D01*
X426823Y360768D01*
X426862Y360788D01*
X426889Y360801D01*
X426900Y360807D01*
X426908Y360809D01*
X426913Y360812D01*
X426916D01*
X426979Y360834D01*
X427042Y360848D01*
X427107Y360858D01*
X427165Y360867D01*
X427216Y360872D01*
X427238D01*
X427257Y360875D01*
X427293D01*
X427345Y360872D01*
D02*
G37*
G36*
X423627D02*
X423676Y360869D01*
X423722Y360864D01*
X423760Y360856D01*
X423796Y360848D01*
X423820Y360842D01*
X423837Y360839D01*
X423840Y360837D01*
X423842D01*
X423886Y360823D01*
X423927Y360807D01*
X423960Y360790D01*
X423987Y360777D01*
X424009Y360766D01*
X424025Y360755D01*
X424036Y360749D01*
X424039Y360747D01*
X424074Y360719D01*
X424104Y360692D01*
X424132Y360662D01*
X424151Y360635D01*
X424170Y360610D01*
X424181Y360591D01*
X424189Y360580D01*
X424192Y360575D01*
X424211Y360536D01*
X424224Y360495D01*
X424233Y360457D01*
X424238Y360422D01*
X424243Y360392D01*
X424246Y360370D01*
Y360353D01*
Y360351D01*
Y360348D01*
X424243Y360299D01*
X424235Y360252D01*
X424224Y360211D01*
X424214Y360176D01*
X424202Y360146D01*
X424192Y360121D01*
X424183Y360108D01*
X424181Y360102D01*
X424153Y360064D01*
X424121Y360029D01*
X424088Y360001D01*
X424055Y359977D01*
X424025Y359955D01*
X424003Y359941D01*
X423987Y359933D01*
X423984Y359930D01*
X423981D01*
X423954Y359919D01*
X423921Y359906D01*
X423889Y359892D01*
X423850Y359881D01*
X423771Y359857D01*
X423695Y359832D01*
X423657Y359821D01*
X423621Y359810D01*
X423588Y359802D01*
X423561Y359794D01*
X423539Y359788D01*
X423520Y359783D01*
X423509Y359780D01*
X423506D01*
X423463Y359769D01*
X423422Y359758D01*
X423384Y359747D01*
X423351Y359736D01*
X423321Y359728D01*
X423296Y359720D01*
X423274Y359712D01*
X423252Y359704D01*
X423236Y359698D01*
X423222Y359693D01*
X423203Y359685D01*
X423192Y359679D01*
X423190Y359676D01*
X423160Y359652D01*
X423135Y359625D01*
X423119Y359597D01*
X423108Y359570D01*
X423102Y359548D01*
X423097Y359526D01*
Y359515D01*
Y359510D01*
X423102Y359466D01*
X423113Y359428D01*
X423130Y359392D01*
X423149Y359362D01*
X423168Y359338D01*
X423184Y359321D01*
X423195Y359308D01*
X423201Y359305D01*
X423244Y359278D01*
X423293Y359256D01*
X423348Y359242D01*
X423400Y359231D01*
X423446Y359226D01*
X423465Y359223D01*
X423485D01*
X423498Y359221D01*
X423520D01*
X423594Y359226D01*
X423659Y359237D01*
X423717Y359250D01*
X423763Y359270D01*
X423801Y359286D01*
X423829Y359302D01*
X423845Y359313D01*
X423848Y359316D01*
X423850D01*
X423891Y359357D01*
X423921Y359401D01*
X423946Y359450D01*
X423965Y359496D01*
X423979Y359537D01*
X423984Y359554D01*
X423987Y359570D01*
X423990Y359584D01*
Y359592D01*
X423992Y359597D01*
Y359600D01*
X424298Y359551D01*
X424287Y359499D01*
X424273Y359447D01*
X424257Y359401D01*
X424241Y359360D01*
X424222Y359319D01*
X424202Y359283D01*
X424183Y359250D01*
X424162Y359221D01*
X424143Y359196D01*
X424123Y359174D01*
X424107Y359155D01*
X424093Y359139D01*
X424080Y359128D01*
X424072Y359120D01*
X424066Y359114D01*
X424063Y359111D01*
X424025Y359087D01*
X423987Y359065D01*
X423943Y359043D01*
X423900Y359027D01*
X423807Y359002D01*
X423719Y358986D01*
X423678Y358978D01*
X423640Y358975D01*
X423605Y358972D01*
X423577Y358969D01*
X423553Y358967D01*
X423517D01*
X423438Y358969D01*
X423367Y358978D01*
X423302Y358991D01*
X423244Y359005D01*
X423220Y359010D01*
X423198Y359016D01*
X423179Y359024D01*
X423162Y359029D01*
X423149Y359035D01*
X423141Y359038D01*
X423135Y359040D01*
X423132D01*
X423072Y359070D01*
X423020Y359103D01*
X422977Y359139D01*
X422939Y359174D01*
X422911Y359204D01*
X422889Y359229D01*
X422879Y359245D01*
X422873Y359248D01*
Y359250D01*
X422843Y359302D01*
X422818Y359354D01*
X422802Y359403D01*
X422791Y359447D01*
X422786Y359485D01*
X422780Y359515D01*
Y359526D01*
Y359534D01*
Y359540D01*
Y359543D01*
X422783Y359600D01*
X422791Y359652D01*
X422805Y359696D01*
X422818Y359734D01*
X422832Y359767D01*
X422846Y359788D01*
X422854Y359802D01*
X422857Y359807D01*
X422887Y359846D01*
X422919Y359878D01*
X422955Y359906D01*
X422988Y359928D01*
X423015Y359947D01*
X423040Y359958D01*
X423056Y359966D01*
X423059Y359968D01*
X423061D01*
X423089Y359979D01*
X423119Y359990D01*
X423151Y360004D01*
X423187Y360015D01*
X423261Y360039D01*
X423337Y360061D01*
X423373Y360072D01*
X423408Y360083D01*
X423438Y360091D01*
X423463Y360100D01*
X423487Y360105D01*
X423504Y360110D01*
X423515Y360113D01*
X423517D01*
X423558Y360124D01*
X423594Y360135D01*
X423627Y360143D01*
X423657Y360151D01*
X423681Y360160D01*
X423703Y360165D01*
X423722Y360171D01*
X423738Y360176D01*
X423763Y360184D01*
X423779Y360190D01*
X423788Y360192D01*
X423790D01*
X423818Y360206D01*
X423842Y360220D01*
X423864Y360233D01*
X423880Y360247D01*
X423894Y360258D01*
X423902Y360266D01*
X423908Y360272D01*
X423910Y360274D01*
X423921Y360293D01*
X423930Y360313D01*
X423941Y360348D01*
X423943Y360362D01*
X423946Y360373D01*
Y360381D01*
Y360384D01*
X423943Y360419D01*
X423932Y360449D01*
X423919Y360479D01*
X423900Y360504D01*
X423883Y360523D01*
X423870Y360536D01*
X423859Y360547D01*
X423856Y360550D01*
X423837Y360564D01*
X423818Y360575D01*
X423771Y360591D01*
X423719Y360605D01*
X423670Y360613D01*
X423624Y360618D01*
X423605D01*
X423588Y360621D01*
X423553D01*
X423487Y360618D01*
X423433Y360607D01*
X423384Y360596D01*
X423343Y360580D01*
X423313Y360566D01*
X423291Y360553D01*
X423277Y360542D01*
X423272Y360539D01*
X423239Y360506D01*
X423211Y360471D01*
X423190Y360435D01*
X423173Y360400D01*
X423162Y360370D01*
X423157Y360343D01*
X423151Y360326D01*
Y360323D01*
Y360321D01*
X422849Y360362D01*
X422862Y360424D01*
X422879Y360479D01*
X422895Y360528D01*
X422914Y360569D01*
X422930Y360599D01*
X422944Y360624D01*
X422955Y360637D01*
X422958Y360643D01*
X422990Y360681D01*
X423029Y360714D01*
X423067Y360744D01*
X423105Y360768D01*
X423143Y360788D01*
X423171Y360801D01*
X423181Y360807D01*
X423190Y360809D01*
X423195Y360812D01*
X423198D01*
X423261Y360834D01*
X423323Y360848D01*
X423389Y360858D01*
X423446Y360867D01*
X423498Y360872D01*
X423520D01*
X423539Y360875D01*
X423575D01*
X423627Y360872D01*
D02*
G37*
G36*
X415999D02*
X416048Y360869D01*
X416094Y360864D01*
X416133Y360856D01*
X416168Y360848D01*
X416193Y360842D01*
X416209Y360839D01*
X416212Y360837D01*
X416215D01*
X416258Y360823D01*
X416299Y360807D01*
X416332Y360790D01*
X416359Y360777D01*
X416381Y360766D01*
X416397Y360755D01*
X416408Y360749D01*
X416411Y360747D01*
X416447Y360719D01*
X416477Y360692D01*
X416504Y360662D01*
X416523Y360635D01*
X416542Y360610D01*
X416553Y360591D01*
X416561Y360580D01*
X416564Y360575D01*
X416583Y360536D01*
X416597Y360495D01*
X416605Y360457D01*
X416610Y360422D01*
X416616Y360392D01*
X416619Y360370D01*
Y360353D01*
Y360351D01*
Y360348D01*
X416616Y360299D01*
X416608Y360252D01*
X416597Y360211D01*
X416586Y360176D01*
X416575Y360146D01*
X416564Y360121D01*
X416556Y360108D01*
X416553Y360102D01*
X416526Y360064D01*
X416493Y360029D01*
X416460Y360001D01*
X416428Y359977D01*
X416397Y359955D01*
X416376Y359941D01*
X416359Y359933D01*
X416357Y359930D01*
X416354D01*
X416327Y359919D01*
X416294Y359906D01*
X416261Y359892D01*
X416223Y359881D01*
X416144Y359857D01*
X416067Y359832D01*
X416029Y359821D01*
X415993Y359810D01*
X415961Y359802D01*
X415933Y359794D01*
X415911Y359788D01*
X415892Y359783D01*
X415881Y359780D01*
X415879D01*
X415835Y359769D01*
X415794Y359758D01*
X415756Y359747D01*
X415723Y359736D01*
X415693Y359728D01*
X415669Y359720D01*
X415647Y359712D01*
X415625Y359704D01*
X415609Y359698D01*
X415595Y359693D01*
X415576Y359685D01*
X415565Y359679D01*
X415562Y359676D01*
X415532Y359652D01*
X415508Y359625D01*
X415491Y359597D01*
X415480Y359570D01*
X415475Y359548D01*
X415469Y359526D01*
Y359515D01*
Y359510D01*
X415475Y359466D01*
X415486Y359428D01*
X415502Y359392D01*
X415521Y359362D01*
X415540Y359338D01*
X415557Y359321D01*
X415568Y359308D01*
X415573Y359305D01*
X415617Y359278D01*
X415666Y359256D01*
X415720Y359242D01*
X415772Y359231D01*
X415819Y359226D01*
X415838Y359223D01*
X415857D01*
X415871Y359221D01*
X415892D01*
X415966Y359226D01*
X416032Y359237D01*
X416089Y359250D01*
X416135Y359270D01*
X416174Y359286D01*
X416201Y359302D01*
X416217Y359313D01*
X416220Y359316D01*
X416223D01*
X416264Y359357D01*
X416294Y359401D01*
X416318Y359450D01*
X416337Y359496D01*
X416351Y359537D01*
X416357Y359554D01*
X416359Y359570D01*
X416362Y359584D01*
Y359592D01*
X416365Y359597D01*
Y359600D01*
X416671Y359551D01*
X416660Y359499D01*
X416646Y359447D01*
X416630Y359401D01*
X416613Y359360D01*
X416594Y359319D01*
X416575Y359283D01*
X416556Y359250D01*
X416534Y359221D01*
X416515Y359196D01*
X416496Y359174D01*
X416479Y359155D01*
X416466Y359139D01*
X416452Y359128D01*
X416444Y359120D01*
X416438Y359114D01*
X416436Y359111D01*
X416397Y359087D01*
X416359Y359065D01*
X416316Y359043D01*
X416272Y359027D01*
X416179Y359002D01*
X416092Y358986D01*
X416051Y358978D01*
X416012Y358975D01*
X415977Y358972D01*
X415950Y358969D01*
X415925Y358967D01*
X415890D01*
X415810Y358969D01*
X415739Y358978D01*
X415674Y358991D01*
X415617Y359005D01*
X415592Y359010D01*
X415570Y359016D01*
X415551Y359024D01*
X415535Y359029D01*
X415521Y359035D01*
X415513Y359038D01*
X415508Y359040D01*
X415505D01*
X415445Y359070D01*
X415393Y359103D01*
X415349Y359139D01*
X415311Y359174D01*
X415284Y359204D01*
X415262Y359229D01*
X415251Y359245D01*
X415245Y359248D01*
Y359250D01*
X415215Y359302D01*
X415191Y359354D01*
X415174Y359403D01*
X415164Y359447D01*
X415158Y359485D01*
X415153Y359515D01*
Y359526D01*
Y359534D01*
Y359540D01*
Y359543D01*
X415155Y359600D01*
X415164Y359652D01*
X415177Y359696D01*
X415191Y359734D01*
X415204Y359767D01*
X415218Y359788D01*
X415226Y359802D01*
X415229Y359807D01*
X415259Y359846D01*
X415292Y359878D01*
X415327Y359906D01*
X415360Y359928D01*
X415387Y359947D01*
X415412Y359958D01*
X415428Y359966D01*
X415431Y359968D01*
X415434D01*
X415461Y359979D01*
X415491Y359990D01*
X415524Y360004D01*
X415559Y360015D01*
X415633Y360039D01*
X415709Y360061D01*
X415745Y360072D01*
X415780Y360083D01*
X415810Y360091D01*
X415835Y360100D01*
X415860Y360105D01*
X415876Y360110D01*
X415887Y360113D01*
X415890D01*
X415931Y360124D01*
X415966Y360135D01*
X415999Y360143D01*
X416029Y360151D01*
X416053Y360160D01*
X416075Y360165D01*
X416094Y360171D01*
X416111Y360176D01*
X416135Y360184D01*
X416152Y360190D01*
X416160Y360192D01*
X416163D01*
X416190Y360206D01*
X416215Y360220D01*
X416236Y360233D01*
X416253Y360247D01*
X416266Y360258D01*
X416275Y360266D01*
X416280Y360272D01*
X416283Y360274D01*
X416294Y360293D01*
X416302Y360313D01*
X416313Y360348D01*
X416316Y360362D01*
X416318Y360373D01*
Y360381D01*
Y360384D01*
X416316Y360419D01*
X416305Y360449D01*
X416291Y360479D01*
X416272Y360504D01*
X416256Y360523D01*
X416242Y360536D01*
X416231Y360547D01*
X416228Y360550D01*
X416209Y360564D01*
X416190Y360575D01*
X416144Y360591D01*
X416092Y360605D01*
X416043Y360613D01*
X415996Y360618D01*
X415977D01*
X415961Y360621D01*
X415925D01*
X415860Y360618D01*
X415805Y360607D01*
X415756Y360596D01*
X415715Y360580D01*
X415685Y360566D01*
X415663Y360553D01*
X415649Y360542D01*
X415644Y360539D01*
X415611Y360506D01*
X415584Y360471D01*
X415562Y360435D01*
X415546Y360400D01*
X415535Y360370D01*
X415529Y360343D01*
X415524Y360326D01*
Y360323D01*
Y360321D01*
X415221Y360362D01*
X415235Y360424D01*
X415251Y360479D01*
X415267Y360528D01*
X415286Y360569D01*
X415303Y360599D01*
X415316Y360624D01*
X415327Y360637D01*
X415330Y360643D01*
X415363Y360681D01*
X415401Y360714D01*
X415439Y360744D01*
X415478Y360768D01*
X415516Y360788D01*
X415543Y360801D01*
X415554Y360807D01*
X415562Y360809D01*
X415568Y360812D01*
X415570D01*
X415633Y360834D01*
X415696Y360848D01*
X415761Y360858D01*
X415819Y360867D01*
X415871Y360872D01*
X415892D01*
X415911Y360875D01*
X415947D01*
X415999Y360872D01*
D02*
G37*
G36*
X408232Y361533D02*
X408281Y361530D01*
X408328Y361522D01*
X408371Y361514D01*
X408410Y361503D01*
X408448Y361489D01*
X408483Y361475D01*
X408513Y361462D01*
X408543Y361448D01*
X408568Y361435D01*
X408590Y361424D01*
X408606Y361410D01*
X408620Y361402D01*
X408631Y361394D01*
X408636Y361391D01*
X408639Y361388D01*
X408672Y361358D01*
X408702Y361328D01*
X408756Y361260D01*
X408805Y361192D01*
X408844Y361123D01*
X408860Y361090D01*
X408874Y361063D01*
X408884Y361036D01*
X408895Y361014D01*
X408901Y360995D01*
X408906Y360979D01*
X408912Y360970D01*
Y360968D01*
X408928Y360916D01*
X408942Y360858D01*
X408964Y360741D01*
X408980Y360621D01*
X408986Y360564D01*
X408991Y360506D01*
X408994Y360454D01*
X408996Y360405D01*
X408999Y360362D01*
Y360323D01*
X409002Y360293D01*
Y360269D01*
Y360255D01*
Y360250D01*
X408999Y360121D01*
X408991Y360001D01*
X408980Y359892D01*
X408964Y359791D01*
X408945Y359698D01*
X408923Y359614D01*
X408901Y359540D01*
X408876Y359472D01*
X408854Y359414D01*
X408833Y359362D01*
X408811Y359321D01*
X408792Y359286D01*
X408775Y359259D01*
X408764Y359240D01*
X408756Y359229D01*
X408753Y359226D01*
X408712Y359179D01*
X408669Y359141D01*
X408622Y359106D01*
X408576Y359076D01*
X408530Y359051D01*
X408481Y359029D01*
X408434Y359013D01*
X408390Y358999D01*
X408347Y358988D01*
X408309Y358980D01*
X408273Y358975D01*
X408243Y358972D01*
X408218Y358969D01*
X408199Y358967D01*
X408183D01*
X408131Y358969D01*
X408085Y358972D01*
X408038Y358980D01*
X407995Y358988D01*
X407954Y359002D01*
X407918Y359013D01*
X407883Y359027D01*
X407853Y359040D01*
X407823Y359054D01*
X407798Y359068D01*
X407776Y359081D01*
X407760Y359092D01*
X407746Y359100D01*
X407735Y359109D01*
X407730Y359111D01*
X407727Y359114D01*
X407694Y359144D01*
X407661Y359174D01*
X407607Y359242D01*
X407560Y359311D01*
X407522Y359379D01*
X407506Y359412D01*
X407492Y359442D01*
X407481Y359466D01*
X407470Y359491D01*
X407462Y359507D01*
X407459Y359524D01*
X407454Y359532D01*
Y359534D01*
X407438Y359586D01*
X407424Y359644D01*
X407399Y359761D01*
X407383Y359881D01*
X407378Y359939D01*
X407372Y359996D01*
X407369Y360048D01*
X407367Y360097D01*
X407364Y360138D01*
X407361Y360176D01*
Y360206D01*
Y360231D01*
Y360244D01*
Y360250D01*
Y360318D01*
X407364Y360384D01*
X407367Y360443D01*
X407369Y360501D01*
X407375Y360553D01*
X407380Y360602D01*
X407386Y360646D01*
X407388Y360686D01*
X407394Y360722D01*
X407399Y360752D01*
X407405Y360779D01*
X407410Y360801D01*
X407413Y360820D01*
X407416Y360831D01*
X407418Y360839D01*
Y360842D01*
X407440Y360921D01*
X407468Y360995D01*
X407492Y361058D01*
X407517Y361112D01*
X407530Y361134D01*
X407539Y361156D01*
X407549Y361175D01*
X407558Y361189D01*
X407566Y361200D01*
X407569Y361208D01*
X407574Y361213D01*
Y361216D01*
X407612Y361271D01*
X407656Y361320D01*
X407697Y361361D01*
X407738Y361394D01*
X407773Y361421D01*
X407801Y361437D01*
X407812Y361445D01*
X407820Y361451D01*
X407825Y361454D01*
X407828D01*
X407888Y361481D01*
X407948Y361500D01*
X408008Y361516D01*
X408063Y361525D01*
X408112Y361530D01*
X408131Y361533D01*
X408150Y361536D01*
X408183D01*
X408232Y361533D01*
D02*
G37*
G36*
X471939Y358964D02*
X471691D01*
X470959Y361568D01*
X471208D01*
X471939Y358964D01*
D02*
G37*
G36*
X470962D02*
X470714D01*
X469982Y361568D01*
X470230D01*
X470962Y358964D01*
D02*
G37*
G36*
X436340D02*
X436092D01*
X435360Y361568D01*
X435608D01*
X436340Y358964D01*
D02*
G37*
G36*
X422646D02*
X422398D01*
X421666Y361568D01*
X421915D01*
X422646Y358964D01*
D02*
G37*
G36*
X413061D02*
X412813D01*
X412081Y361568D01*
X412330D01*
X413061Y358964D01*
D02*
G37*
G36*
X475658Y360872D02*
X475718Y360864D01*
X475770Y360853D01*
X475813Y360839D01*
X475849Y360826D01*
X475876Y360815D01*
X475892Y360807D01*
X475895Y360804D01*
X475898D01*
X475944Y360774D01*
X475985Y360741D01*
X476023Y360706D01*
X476056Y360673D01*
X476084Y360643D01*
X476105Y360615D01*
X476116Y360599D01*
X476122Y360596D01*
Y360834D01*
X476403D01*
Y358309D01*
X476094D01*
Y359196D01*
X476064Y359160D01*
X476032Y359128D01*
X475999Y359098D01*
X475966Y359076D01*
X475939Y359057D01*
X475914Y359040D01*
X475901Y359032D01*
X475895Y359029D01*
X475849Y359008D01*
X475800Y358994D01*
X475753Y358983D01*
X475709Y358975D01*
X475671Y358969D01*
X475644Y358967D01*
X475617D01*
X475576Y358969D01*
X475537Y358972D01*
X475464Y358986D01*
X475395Y359005D01*
X475335Y359027D01*
X475308Y359038D01*
X475284Y359046D01*
X475265Y359057D01*
X475245Y359065D01*
X475232Y359073D01*
X475221Y359079D01*
X475215Y359084D01*
X475213D01*
X475144Y359133D01*
X475087Y359188D01*
X475035Y359245D01*
X474994Y359302D01*
X474961Y359351D01*
X474951Y359373D01*
X474940Y359392D01*
X474931Y359406D01*
X474926Y359417D01*
X474921Y359425D01*
Y359428D01*
X474888Y359515D01*
X474863Y359603D01*
X474844Y359687D01*
X474833Y359764D01*
X474828Y359799D01*
X474825Y359832D01*
X474822Y359862D01*
Y359887D01*
X474820Y359906D01*
Y359919D01*
Y359930D01*
Y359933D01*
X474822Y360029D01*
X474833Y360119D01*
X474850Y360201D01*
X474858Y360236D01*
X474866Y360272D01*
X474874Y360302D01*
X474882Y360332D01*
X474890Y360356D01*
X474899Y360375D01*
X474904Y360392D01*
X474910Y360403D01*
X474912Y360411D01*
Y360414D01*
X474951Y360490D01*
X474992Y360558D01*
X475038Y360615D01*
X475081Y360665D01*
X475120Y360703D01*
X475152Y360730D01*
X475166Y360738D01*
X475174Y360747D01*
X475180Y360752D01*
X475183D01*
X475215Y360774D01*
X475251Y360793D01*
X475322Y360823D01*
X475390Y360845D01*
X475456Y360858D01*
X475486Y360864D01*
X475510Y360869D01*
X475535Y360872D01*
X475557D01*
X475573Y360875D01*
X475595D01*
X475658Y360872D01*
D02*
G37*
%LPC*%
G36*
X471619Y373899D02*
X471586D01*
X471520Y373895D01*
X471459Y373886D01*
X471401Y373874D01*
X471348Y373858D01*
X471250Y373813D01*
X471205Y373788D01*
X471164Y373763D01*
X471131Y373739D01*
X471098Y373714D01*
X471069Y373690D01*
X471049Y373669D01*
X471032Y373653D01*
X471016Y373640D01*
X471012Y373632D01*
X471008Y373628D01*
X470959Y373558D01*
X470918Y373476D01*
X470889Y373390D01*
X470864Y373304D01*
X470848Y373230D01*
X470844Y373198D01*
X470840Y373169D01*
X470835Y373144D01*
X470831Y373128D01*
Y373116D01*
Y373112D01*
X472365D01*
X472357Y373177D01*
X472348Y373239D01*
X472320Y373349D01*
X472279Y373448D01*
X472258Y373493D01*
X472238Y373530D01*
X472217Y373567D01*
X472197Y373595D01*
X472176Y373620D01*
X472160Y373644D01*
X472148Y373661D01*
X472135Y373673D01*
X472131Y373677D01*
X472127Y373681D01*
X472086Y373718D01*
X472041Y373755D01*
X471996Y373784D01*
X471951Y373809D01*
X471856Y373845D01*
X471774Y373870D01*
X471697Y373886D01*
X471668Y373890D01*
X471639Y373895D01*
X471619Y373899D01*
D02*
G37*
G36*
X463095D02*
X463062D01*
X462996Y373895D01*
X462935Y373886D01*
X462877Y373874D01*
X462824Y373858D01*
X462726Y373813D01*
X462681Y373788D01*
X462640Y373763D01*
X462607Y373739D01*
X462574Y373714D01*
X462545Y373690D01*
X462525Y373669D01*
X462508Y373653D01*
X462492Y373640D01*
X462488Y373632D01*
X462484Y373628D01*
X462435Y373558D01*
X462394Y373476D01*
X462365Y373390D01*
X462340Y373304D01*
X462324Y373230D01*
X462320Y373198D01*
X462316Y373169D01*
X462312Y373144D01*
X462308Y373128D01*
Y373116D01*
Y373112D01*
X463841D01*
X463833Y373177D01*
X463825Y373239D01*
X463796Y373349D01*
X463755Y373448D01*
X463734Y373493D01*
X463714Y373530D01*
X463693Y373567D01*
X463673Y373595D01*
X463652Y373620D01*
X463636Y373644D01*
X463624Y373661D01*
X463611Y373673D01*
X463607Y373677D01*
X463603Y373681D01*
X463562Y373718D01*
X463517Y373755D01*
X463472Y373784D01*
X463427Y373809D01*
X463333Y373845D01*
X463250Y373870D01*
X463173Y373886D01*
X463144Y373890D01*
X463115Y373895D01*
X463095Y373899D01*
D02*
G37*
G36*
X446928D02*
X446896D01*
X446830Y373895D01*
X446769Y373886D01*
X446711Y373874D01*
X446658Y373858D01*
X446559Y373813D01*
X446514Y373788D01*
X446473Y373763D01*
X446441Y373739D01*
X446408Y373714D01*
X446379Y373690D01*
X446358Y373669D01*
X446342Y373653D01*
X446326Y373640D01*
X446322Y373632D01*
X446317Y373628D01*
X446268Y373558D01*
X446227Y373476D01*
X446199Y373390D01*
X446174Y373304D01*
X446158Y373230D01*
X446153Y373198D01*
X446149Y373169D01*
X446145Y373144D01*
X446141Y373128D01*
Y373116D01*
Y373112D01*
X447675D01*
X447666Y373177D01*
X447658Y373239D01*
X447629Y373349D01*
X447588Y373448D01*
X447568Y373493D01*
X447547Y373530D01*
X447527Y373567D01*
X447507Y373595D01*
X447486Y373620D01*
X447470Y373644D01*
X447457Y373661D01*
X447445Y373673D01*
X447441Y373677D01*
X447437Y373681D01*
X447396Y373718D01*
X447351Y373755D01*
X447306Y373784D01*
X447261Y373809D01*
X447166Y373845D01*
X447084Y373870D01*
X447006Y373886D01*
X446978Y373890D01*
X446949Y373895D01*
X446928Y373899D01*
D02*
G37*
G36*
X460245Y373895D02*
X460217D01*
X460159Y373890D01*
X460102Y373882D01*
X460048Y373870D01*
X459999Y373854D01*
X459905Y373809D01*
X459827Y373763D01*
X459765Y373714D01*
X459741Y373690D01*
X459716Y373669D01*
X459700Y373653D01*
X459688Y373640D01*
X459684Y373632D01*
X459679Y373628D01*
X459638Y373575D01*
X459606Y373517D01*
X459577Y373456D01*
X459552Y373390D01*
X459511Y373251D01*
X459487Y373120D01*
X459474Y373054D01*
X459470Y372997D01*
X459466Y372943D01*
X459462Y372894D01*
X459458Y372857D01*
Y372829D01*
Y372812D01*
Y372804D01*
X459462Y372710D01*
X459466Y372624D01*
X459479Y372542D01*
X459491Y372468D01*
X459507Y372402D01*
X459528Y372337D01*
X459548Y372279D01*
X459565Y372230D01*
X459585Y372185D01*
X459606Y372148D01*
X459626Y372115D01*
X459643Y372091D01*
X459655Y372066D01*
X459667Y372054D01*
X459671Y372045D01*
X459675Y372041D01*
X459716Y371996D01*
X459757Y371959D01*
X459802Y371927D01*
X459847Y371898D01*
X459889Y371877D01*
X459934Y371857D01*
X460016Y371828D01*
X460085Y371808D01*
X460118Y371804D01*
X460143Y371799D01*
X460167Y371795D01*
X460196D01*
X460253Y371799D01*
X460307Y371808D01*
X460356Y371820D01*
X460405Y371836D01*
X460495Y371877D01*
X460573Y371927D01*
X460635Y371972D01*
X460659Y371992D01*
X460680Y372013D01*
X460696Y372029D01*
X460713Y372041D01*
X460717Y372050D01*
X460721Y372054D01*
X460758Y372107D01*
X460795Y372164D01*
X460823Y372226D01*
X460848Y372287D01*
X460889Y372419D01*
X460914Y372546D01*
X460922Y372607D01*
X460930Y372660D01*
X460934Y372710D01*
X460938Y372755D01*
X460942Y372792D01*
Y372816D01*
Y372837D01*
Y372841D01*
X460938Y372939D01*
X460934Y373034D01*
X460922Y373116D01*
X460909Y373198D01*
X460893Y373267D01*
X460877Y373333D01*
X460860Y373394D01*
X460840Y373444D01*
X460819Y373493D01*
X460803Y373530D01*
X460786Y373567D01*
X460770Y373591D01*
X460758Y373612D01*
X460745Y373628D01*
X460741Y373636D01*
X460737Y373640D01*
X460696Y373686D01*
X460655Y373722D01*
X460610Y373759D01*
X460569Y373788D01*
X460524Y373813D01*
X460479Y373833D01*
X460397Y373862D01*
X460327Y373882D01*
X460294Y373886D01*
X460270Y373890D01*
X460245Y373895D01*
D02*
G37*
G36*
X449958D02*
X449930D01*
X449872Y373890D01*
X449815Y373882D01*
X449761Y373870D01*
X449712Y373854D01*
X449618Y373809D01*
X449540Y373763D01*
X449479Y373714D01*
X449454Y373690D01*
X449429Y373669D01*
X449413Y373653D01*
X449401Y373640D01*
X449397Y373632D01*
X449393Y373628D01*
X449352Y373575D01*
X449319Y373517D01*
X449290Y373456D01*
X449265Y373390D01*
X449224Y373251D01*
X449200Y373120D01*
X449188Y373054D01*
X449183Y372997D01*
X449179Y372943D01*
X449175Y372894D01*
X449171Y372857D01*
Y372829D01*
Y372812D01*
Y372804D01*
X449175Y372710D01*
X449179Y372624D01*
X449192Y372542D01*
X449204Y372468D01*
X449220Y372402D01*
X449241Y372337D01*
X449261Y372279D01*
X449278Y372230D01*
X449298Y372185D01*
X449319Y372148D01*
X449339Y372115D01*
X449356Y372091D01*
X449368Y372066D01*
X449380Y372054D01*
X449384Y372045D01*
X449388Y372041D01*
X449429Y371996D01*
X449470Y371959D01*
X449515Y371927D01*
X449561Y371898D01*
X449602Y371877D01*
X449647Y371857D01*
X449729Y371828D01*
X449798Y371808D01*
X449831Y371804D01*
X449856Y371799D01*
X449880Y371795D01*
X449909D01*
X449966Y371799D01*
X450020Y371808D01*
X450069Y371820D01*
X450118Y371836D01*
X450208Y371877D01*
X450286Y371927D01*
X450348Y371972D01*
X450372Y371992D01*
X450393Y372013D01*
X450409Y372029D01*
X450426Y372041D01*
X450430Y372050D01*
X450434Y372054D01*
X450471Y372107D01*
X450508Y372164D01*
X450536Y372226D01*
X450561Y372287D01*
X450602Y372419D01*
X450627Y372546D01*
X450635Y372607D01*
X450643Y372660D01*
X450647Y372710D01*
X450651Y372755D01*
X450655Y372792D01*
Y372816D01*
Y372837D01*
Y372841D01*
X450651Y372939D01*
X450647Y373034D01*
X450635Y373116D01*
X450623Y373198D01*
X450606Y373267D01*
X450590Y373333D01*
X450573Y373394D01*
X450553Y373444D01*
X450532Y373493D01*
X450516Y373530D01*
X450499Y373567D01*
X450483Y373591D01*
X450471Y373612D01*
X450458Y373628D01*
X450454Y373636D01*
X450450Y373640D01*
X450409Y373686D01*
X450368Y373722D01*
X450323Y373759D01*
X450282Y373788D01*
X450237Y373813D01*
X450192Y373833D01*
X450110Y373862D01*
X450040Y373882D01*
X450007Y373886D01*
X449983Y373890D01*
X449958Y373895D01*
D02*
G37*
G36*
X469704Y370145D02*
X468876D01*
X468806Y370141D01*
X468745D01*
X468687Y370137D01*
X468634Y370132D01*
X468589Y370128D01*
X468544Y370124D01*
X468507Y370120D01*
X468478Y370112D01*
X468449Y370108D01*
X468425Y370104D01*
X468408Y370100D01*
X468392Y370096D01*
X468384D01*
X468375Y370092D01*
X468314Y370067D01*
X468265Y370038D01*
X468220Y370005D01*
X468183Y369973D01*
X468154Y369944D01*
X468134Y369919D01*
X468121Y369903D01*
X468117Y369895D01*
X468084Y369841D01*
X468064Y369784D01*
X468048Y369727D01*
X468035Y369673D01*
X468027Y369628D01*
X468023Y369595D01*
Y369571D01*
Y369567D01*
Y369563D01*
X468027Y369489D01*
X468039Y369427D01*
X468056Y369370D01*
X468072Y369321D01*
X468088Y369284D01*
X468105Y369255D01*
X468117Y369239D01*
X468121Y369231D01*
X468162Y369185D01*
X468207Y369144D01*
X468257Y369112D01*
X468302Y369087D01*
X468343Y369067D01*
X468375Y369054D01*
X468400Y369046D01*
X468404Y369042D01*
X468408D01*
X468437Y369034D01*
X468470Y369030D01*
X468544Y369017D01*
X468626Y369009D01*
X468704Y369005D01*
X468773D01*
X468806Y369001D01*
X469704D01*
Y370145D01*
D02*
G37*
G36*
Y368554D02*
X468831D01*
X468704Y368550D01*
X468593Y368546D01*
X468544Y368538D01*
X468499Y368533D01*
X468458Y368529D01*
X468417Y368521D01*
X468384Y368517D01*
X468355Y368509D01*
X468334Y368505D01*
X468314Y368501D01*
X468298Y368497D01*
X468285Y368493D01*
X468281Y368488D01*
X468277D01*
X468207Y368460D01*
X468150Y368427D01*
X468097Y368394D01*
X468052Y368357D01*
X468019Y368324D01*
X467994Y368296D01*
X467978Y368279D01*
X467974Y368271D01*
X467937Y368210D01*
X467908Y368148D01*
X467892Y368087D01*
X467875Y368029D01*
X467867Y367976D01*
X467863Y367939D01*
Y367923D01*
Y367910D01*
Y367906D01*
Y367902D01*
X467867Y367836D01*
X467875Y367775D01*
X467888Y367722D01*
X467900Y367677D01*
X467916Y367636D01*
X467929Y367607D01*
X467937Y367590D01*
X467941Y367582D01*
X467970Y367533D01*
X468002Y367492D01*
X468035Y367455D01*
X468064Y367426D01*
X468093Y367402D01*
X468113Y367386D01*
X468129Y367377D01*
X468134Y367373D01*
X468179Y367349D01*
X468228Y367328D01*
X468273Y367308D01*
X468318Y367295D01*
X468359Y367283D01*
X468392Y367275D01*
X468412Y367271D01*
X468421D01*
X468462Y367267D01*
X468515Y367263D01*
X468572Y367258D01*
X468626D01*
X468679Y367254D01*
X469704D01*
Y368554D01*
D02*
G37*
G36*
X456551Y370198D02*
X456514Y370075D01*
X456469Y369944D01*
X456424Y369813D01*
X456383Y369686D01*
X456362Y369628D01*
X456342Y369575D01*
X456326Y369526D01*
X456309Y369489D01*
X456297Y369452D01*
X456289Y369427D01*
X456281Y369411D01*
Y369407D01*
X455883Y368357D01*
X457174D01*
X456756Y369468D01*
X456711Y369604D01*
X456670Y369735D01*
X456633Y369858D01*
X456617Y369915D01*
X456604Y369969D01*
X456592Y370018D01*
X456580Y370063D01*
X456572Y370100D01*
X456563Y370137D01*
X456559Y370161D01*
X456555Y370182D01*
X456551Y370194D01*
Y370198D01*
D02*
G37*
G36*
X451549Y369846D02*
Y368140D01*
X452742D01*
X451549Y369846D01*
D02*
G37*
G36*
X447433Y370219D02*
X447404D01*
X447342Y370215D01*
X447289Y370206D01*
X447232Y370190D01*
X447183Y370169D01*
X447088Y370120D01*
X447010Y370067D01*
X446978Y370038D01*
X446949Y370009D01*
X446924Y369981D01*
X446900Y369960D01*
X446883Y369940D01*
X446871Y369923D01*
X446867Y369915D01*
X446863Y369911D01*
X446822Y369846D01*
X446789Y369772D01*
X446760Y369682D01*
X446736Y369587D01*
X446715Y369489D01*
X446695Y369386D01*
X446670Y369177D01*
X446658Y369079D01*
X446654Y368985D01*
X446650Y368898D01*
X446645Y368825D01*
X446641Y368759D01*
Y368734D01*
Y368714D01*
Y368698D01*
Y368685D01*
Y368677D01*
Y368673D01*
X446645Y368505D01*
X446650Y368353D01*
X446662Y368214D01*
X446674Y368087D01*
X446691Y367972D01*
X446711Y367873D01*
X446732Y367783D01*
X446752Y367705D01*
X446773Y367640D01*
X446793Y367582D01*
X446809Y367533D01*
X446830Y367496D01*
X446842Y367467D01*
X446855Y367451D01*
X446859Y367439D01*
X446863Y367435D01*
X446904Y367381D01*
X446949Y367332D01*
X446994Y367291D01*
X447039Y367258D01*
X447084Y367226D01*
X447129Y367201D01*
X447170Y367180D01*
X447211Y367164D01*
X447285Y367144D01*
X447318Y367135D01*
X447347Y367131D01*
X447367D01*
X447388Y367127D01*
X447400D01*
X447457Y367131D01*
X447515Y367140D01*
X447568Y367156D01*
X447617Y367176D01*
X447712Y367221D01*
X447789Y367279D01*
X447851Y367336D01*
X447875Y367361D01*
X447896Y367381D01*
X447917Y367402D01*
X447929Y367418D01*
X447933Y367426D01*
X447937Y367431D01*
X447974Y367496D01*
X448007Y367574D01*
X448039Y367660D01*
X448064Y367755D01*
X448085Y367857D01*
X448101Y367959D01*
X448126Y368169D01*
X448138Y368267D01*
X448142Y368361D01*
X448146Y368447D01*
X448150Y368521D01*
X448154Y368583D01*
Y368611D01*
Y368632D01*
Y368648D01*
Y368661D01*
Y368669D01*
Y368673D01*
X448150Y368841D01*
X448142Y368993D01*
X448134Y369136D01*
X448117Y369263D01*
X448101Y369378D01*
X448080Y369485D01*
X448056Y369575D01*
X448035Y369657D01*
X448015Y369731D01*
X447990Y369788D01*
X447970Y369837D01*
X447953Y369878D01*
X447937Y369911D01*
X447925Y369932D01*
X447921Y369944D01*
X447917Y369948D01*
X447880Y369997D01*
X447839Y370038D01*
X447798Y370075D01*
X447757Y370104D01*
X447712Y370132D01*
X447671Y370153D01*
X447588Y370186D01*
X447515Y370206D01*
X447482Y370210D01*
X447457Y370215D01*
X447433Y370219D01*
D02*
G37*
G36*
X420678Y360621D02*
X420659D01*
X420621Y360618D01*
X420585Y360613D01*
X420552Y360605D01*
X420520Y360594D01*
X420462Y360566D01*
X420411Y360536D01*
X420370Y360504D01*
X420353Y360490D01*
X420340Y360476D01*
X420329Y360465D01*
X420321Y360457D01*
X420318Y360452D01*
X420315Y360449D01*
X420290Y360416D01*
X420269Y360378D01*
X420250Y360337D01*
X420233Y360296D01*
X420209Y360209D01*
X420189Y360121D01*
X420184Y360083D01*
X420181Y360045D01*
X420179Y360010D01*
X420176Y359979D01*
X420173Y359958D01*
Y359939D01*
Y359928D01*
Y359922D01*
X420176Y359859D01*
X420179Y359799D01*
X420187Y359745D01*
X420198Y359693D01*
X420209Y359646D01*
X420220Y359603D01*
X420233Y359562D01*
X420247Y359529D01*
X420263Y359496D01*
X420277Y359469D01*
X420288Y359447D01*
X420299Y359428D01*
X420310Y359414D01*
X420318Y359403D01*
X420321Y359398D01*
X420323Y359395D01*
X420351Y359365D01*
X420380Y359338D01*
X420411Y359313D01*
X420441Y359294D01*
X420471Y359278D01*
X420498Y359264D01*
X420552Y359242D01*
X420602Y359229D01*
X420621Y359226D01*
X420640Y359223D01*
X420653Y359221D01*
X420673D01*
X420719Y359223D01*
X420760Y359231D01*
X420801Y359242D01*
X420839Y359259D01*
X420875Y359275D01*
X420907Y359297D01*
X420937Y359316D01*
X420965Y359341D01*
X420987Y359362D01*
X421008Y359384D01*
X421028Y359403D01*
X421041Y359420D01*
X421052Y359436D01*
X421060Y359447D01*
X421066Y359455D01*
X421068Y359458D01*
X421085Y359488D01*
X421099Y359521D01*
X421109Y359556D01*
X421118Y359594D01*
X421134Y359674D01*
X421145Y359750D01*
X421148Y359788D01*
X421150Y359821D01*
X421153Y359854D01*
Y359878D01*
X421156Y359903D01*
Y359919D01*
Y359930D01*
Y359933D01*
X421153Y359993D01*
X421150Y360050D01*
X421142Y360105D01*
X421134Y360154D01*
X421120Y360198D01*
X421109Y360242D01*
X421096Y360280D01*
X421082Y360313D01*
X421068Y360343D01*
X421055Y360370D01*
X421041Y360392D01*
X421030Y360411D01*
X421022Y360424D01*
X421014Y360435D01*
X421011Y360441D01*
X421008Y360443D01*
X420981Y360474D01*
X420951Y360501D01*
X420921Y360525D01*
X420891Y360547D01*
X420861Y360564D01*
X420834Y360577D01*
X420779Y360599D01*
X420730Y360613D01*
X420711Y360615D01*
X420692Y360618D01*
X420678Y360621D01*
D02*
G37*
G36*
X437394Y360618D02*
X437375D01*
X437337Y360615D01*
X437298Y360610D01*
X437263Y360602D01*
X437230Y360591D01*
X437170Y360564D01*
X437118Y360534D01*
X437075Y360501D01*
X437058Y360487D01*
X437044Y360474D01*
X437031Y360463D01*
X437023Y360454D01*
X437020Y360449D01*
X437017Y360446D01*
X436990Y360414D01*
X436968Y360375D01*
X436946Y360337D01*
X436930Y360296D01*
X436903Y360211D01*
X436886Y360130D01*
X436881Y360091D01*
X436875Y360056D01*
X436872Y360023D01*
X436870Y359996D01*
X436867Y359974D01*
Y359955D01*
Y359944D01*
Y359941D01*
X436870Y359878D01*
X436872Y359818D01*
X436881Y359764D01*
X436889Y359715D01*
X436900Y359668D01*
X436913Y359625D01*
X436927Y359586D01*
X436938Y359554D01*
X436952Y359524D01*
X436965Y359499D01*
X436979Y359477D01*
X436990Y359458D01*
X436998Y359444D01*
X437006Y359436D01*
X437009Y359431D01*
X437012Y359428D01*
X437039Y359398D01*
X437069Y359373D01*
X437099Y359351D01*
X437129Y359332D01*
X437159Y359319D01*
X437189Y359305D01*
X437244Y359286D01*
X437293Y359272D01*
X437315Y359270D01*
X437334Y359267D01*
X437348Y359264D01*
X437369D01*
X437407Y359267D01*
X437446Y359272D01*
X437481Y359280D01*
X437517Y359289D01*
X437577Y359316D01*
X437629Y359346D01*
X437670Y359376D01*
X437686Y359390D01*
X437702Y359403D01*
X437713Y359412D01*
X437721Y359420D01*
X437724Y359425D01*
X437727Y359428D01*
X437751Y359461D01*
X437773Y359499D01*
X437792Y359537D01*
X437809Y359578D01*
X437833Y359665D01*
X437850Y359753D01*
X437858Y359791D01*
X437861Y359829D01*
X437863Y359865D01*
X437866Y359892D01*
X437869Y359917D01*
Y359936D01*
Y359949D01*
Y359952D01*
X437866Y360012D01*
X437863Y360069D01*
X437855Y360121D01*
X437847Y360171D01*
X437836Y360214D01*
X437825Y360255D01*
X437812Y360291D01*
X437798Y360323D01*
X437784Y360353D01*
X437771Y360378D01*
X437760Y360400D01*
X437749Y360419D01*
X437741Y360433D01*
X437732Y360441D01*
X437730Y360446D01*
X437727Y360449D01*
X437700Y360479D01*
X437670Y360504D01*
X437640Y360528D01*
X437610Y360547D01*
X437582Y360564D01*
X437552Y360577D01*
X437498Y360596D01*
X437449Y360610D01*
X437427Y360613D01*
X437410Y360615D01*
X437394Y360618D01*
D02*
G37*
G36*
X463697Y359925D02*
X463695D01*
X463697Y359810D01*
X463700Y359739D01*
X463706Y359676D01*
X463714Y359622D01*
X463722Y359578D01*
X463730Y359545D01*
X463738Y359521D01*
X463744Y359507D01*
X463747Y359502D01*
X463774Y359453D01*
X463807Y359412D01*
X463839Y359373D01*
X463872Y359343D01*
X463905Y359319D01*
X463930Y359300D01*
X463946Y359289D01*
X463949Y359286D01*
X463951D01*
X464006Y359261D01*
X464060Y359242D01*
X464112Y359229D01*
X464164Y359221D01*
X464205Y359215D01*
X464224Y359212D01*
X464241Y359210D01*
X464271D01*
X464333Y359212D01*
X464388Y359223D01*
X464437Y359237D01*
X464475Y359250D01*
X464505Y359267D01*
X464527Y359278D01*
X464538Y359289D01*
X464544Y359292D01*
X464574Y359324D01*
X464598Y359357D01*
X464615Y359392D01*
X464626Y359425D01*
X464631Y359453D01*
X464634Y359477D01*
X464637Y359491D01*
Y359496D01*
X464634Y359526D01*
X464631Y359554D01*
X464623Y359578D01*
X464615Y359600D01*
X464609Y359619D01*
X464601Y359633D01*
X464598Y359641D01*
X464596Y359644D01*
X464576Y359668D01*
X464557Y359687D01*
X464538Y359704D01*
X464516Y359720D01*
X464500Y359731D01*
X464486Y359739D01*
X464475Y359742D01*
X464473Y359745D01*
X464437Y359758D01*
X464396Y359769D01*
X464353Y359780D01*
X464309Y359788D01*
X464268Y359797D01*
X464232Y359802D01*
X464222Y359805D01*
X464211Y359807D01*
X464202D01*
X464140Y359816D01*
X464082Y359826D01*
X464031Y359835D01*
X463981Y359846D01*
X463935Y359857D01*
X463894Y359865D01*
X463856Y359876D01*
X463820Y359884D01*
X463793Y359892D01*
X463766Y359900D01*
X463744Y359906D01*
X463728Y359914D01*
X463714Y359919D01*
X463703Y359922D01*
X463697Y359925D01*
D02*
G37*
G36*
X413621D02*
X413618D01*
X413621Y359810D01*
X413624Y359739D01*
X413629Y359676D01*
X413637Y359622D01*
X413646Y359578D01*
X413654Y359545D01*
X413662Y359521D01*
X413667Y359507D01*
X413670Y359502D01*
X413697Y359453D01*
X413730Y359412D01*
X413763Y359373D01*
X413796Y359343D01*
X413829Y359319D01*
X413853Y359300D01*
X413869Y359289D01*
X413872Y359286D01*
X413875D01*
X413930Y359261D01*
X413984Y359242D01*
X414036Y359229D01*
X414088Y359221D01*
X414129Y359215D01*
X414148Y359212D01*
X414164Y359210D01*
X414194D01*
X414257Y359212D01*
X414312Y359223D01*
X414361Y359237D01*
X414399Y359250D01*
X414429Y359267D01*
X414451Y359278D01*
X414462Y359289D01*
X414467Y359292D01*
X414497Y359324D01*
X414522Y359357D01*
X414538Y359392D01*
X414549Y359425D01*
X414555Y359453D01*
X414557Y359477D01*
X414560Y359491D01*
Y359496D01*
X414557Y359526D01*
X414555Y359554D01*
X414546Y359578D01*
X414538Y359600D01*
X414533Y359619D01*
X414525Y359633D01*
X414522Y359641D01*
X414519Y359644D01*
X414500Y359668D01*
X414481Y359687D01*
X414462Y359704D01*
X414440Y359720D01*
X414424Y359731D01*
X414410Y359739D01*
X414399Y359742D01*
X414396Y359745D01*
X414361Y359758D01*
X414320Y359769D01*
X414276Y359780D01*
X414233Y359788D01*
X414192Y359797D01*
X414156Y359802D01*
X414145Y359805D01*
X414134Y359807D01*
X414126D01*
X414063Y359816D01*
X414006Y359826D01*
X413954Y359835D01*
X413905Y359846D01*
X413859Y359857D01*
X413818Y359865D01*
X413779Y359876D01*
X413744Y359884D01*
X413717Y359892D01*
X413689Y359900D01*
X413667Y359906D01*
X413651Y359914D01*
X413637Y359919D01*
X413626Y359922D01*
X413621Y359925D01*
D02*
G37*
G36*
X466094Y360621D02*
X466073D01*
X466029Y360618D01*
X465988Y360613D01*
X465950Y360605D01*
X465914Y360594D01*
X465849Y360564D01*
X465819Y360547D01*
X465791Y360531D01*
X465769Y360514D01*
X465748Y360498D01*
X465729Y360482D01*
X465715Y360468D01*
X465704Y360457D01*
X465693Y360449D01*
X465690Y360443D01*
X465688Y360441D01*
X465655Y360394D01*
X465628Y360340D01*
X465608Y360282D01*
X465592Y360225D01*
X465581Y360176D01*
X465578Y360154D01*
X465576Y360135D01*
X465573Y360119D01*
X465570Y360108D01*
Y360100D01*
Y360097D01*
X466591D01*
X466586Y360140D01*
X466580Y360181D01*
X466561Y360255D01*
X466534Y360321D01*
X466520Y360351D01*
X466507Y360375D01*
X466493Y360400D01*
X466479Y360419D01*
X466466Y360435D01*
X466455Y360452D01*
X466447Y360463D01*
X466438Y360471D01*
X466436Y360474D01*
X466433Y360476D01*
X466406Y360501D01*
X466376Y360525D01*
X466346Y360544D01*
X466316Y360561D01*
X466253Y360585D01*
X466198Y360602D01*
X466146Y360613D01*
X466127Y360615D01*
X466108Y360618D01*
X466094Y360621D01*
D02*
G37*
G36*
X458661D02*
X458639D01*
X458595Y360618D01*
X458554Y360613D01*
X458516Y360605D01*
X458480Y360594D01*
X458415Y360564D01*
X458385Y360547D01*
X458358Y360531D01*
X458336Y360514D01*
X458314Y360498D01*
X458295Y360482D01*
X458281Y360468D01*
X458270Y360457D01*
X458259Y360449D01*
X458257Y360443D01*
X458254Y360441D01*
X458221Y360394D01*
X458194Y360340D01*
X458175Y360282D01*
X458158Y360225D01*
X458147Y360176D01*
X458145Y360154D01*
X458142Y360135D01*
X458139Y360119D01*
X458136Y360108D01*
Y360100D01*
Y360097D01*
X459158D01*
X459152Y360140D01*
X459146Y360181D01*
X459127Y360255D01*
X459100Y360321D01*
X459087Y360351D01*
X459073Y360375D01*
X459059Y360400D01*
X459046Y360419D01*
X459032Y360435D01*
X459021Y360452D01*
X459013Y360463D01*
X459005Y360471D01*
X459002Y360474D01*
X458999Y360476D01*
X458972Y360501D01*
X458942Y360525D01*
X458912Y360544D01*
X458882Y360561D01*
X458819Y360585D01*
X458764Y360602D01*
X458712Y360613D01*
X458693Y360615D01*
X458674Y360618D01*
X458661Y360621D01*
D02*
G37*
G36*
X431082D02*
X431060D01*
X431017Y360618D01*
X430976Y360613D01*
X430937Y360605D01*
X430902Y360594D01*
X430836Y360564D01*
X430806Y360547D01*
X430779Y360531D01*
X430757Y360514D01*
X430735Y360498D01*
X430716Y360482D01*
X430703Y360468D01*
X430692Y360457D01*
X430681Y360449D01*
X430678Y360443D01*
X430675Y360441D01*
X430643Y360394D01*
X430615Y360340D01*
X430596Y360282D01*
X430580Y360225D01*
X430569Y360176D01*
X430566Y360154D01*
X430563Y360135D01*
X430561Y360119D01*
X430558Y360108D01*
Y360100D01*
Y360097D01*
X431579D01*
X431573Y360140D01*
X431568Y360181D01*
X431549Y360255D01*
X431522Y360321D01*
X431508Y360351D01*
X431494Y360375D01*
X431481Y360400D01*
X431467Y360419D01*
X431453Y360435D01*
X431442Y360452D01*
X431434Y360463D01*
X431426Y360471D01*
X431423Y360474D01*
X431421Y360476D01*
X431393Y360501D01*
X431363Y360525D01*
X431333Y360544D01*
X431303Y360561D01*
X431241Y360585D01*
X431186Y360602D01*
X431134Y360613D01*
X431115Y360615D01*
X431096Y360618D01*
X431082Y360621D01*
D02*
G37*
G36*
X425407D02*
X425385D01*
X425341Y360618D01*
X425300Y360613D01*
X425262Y360605D01*
X425226Y360594D01*
X425161Y360564D01*
X425131Y360547D01*
X425103Y360531D01*
X425082Y360514D01*
X425060Y360498D01*
X425041Y360482D01*
X425027Y360468D01*
X425016Y360457D01*
X425005Y360449D01*
X425002Y360443D01*
X425000Y360441D01*
X424967Y360394D01*
X424940Y360340D01*
X424921Y360282D01*
X424904Y360225D01*
X424893Y360176D01*
X424891Y360154D01*
X424888Y360135D01*
X424885Y360119D01*
X424882Y360108D01*
Y360100D01*
Y360097D01*
X425903D01*
X425898Y360140D01*
X425892Y360181D01*
X425873Y360255D01*
X425846Y360321D01*
X425832Y360351D01*
X425819Y360375D01*
X425805Y360400D01*
X425791Y360419D01*
X425778Y360435D01*
X425767Y360452D01*
X425759Y360463D01*
X425750Y360471D01*
X425748Y360474D01*
X425745Y360476D01*
X425718Y360501D01*
X425688Y360525D01*
X425658Y360544D01*
X425628Y360561D01*
X425565Y360585D01*
X425510Y360602D01*
X425458Y360613D01*
X425439Y360615D01*
X425420Y360618D01*
X425407Y360621D01*
D02*
G37*
G36*
X410946Y361031D02*
Y359895D01*
X411740D01*
X410946Y361031D01*
D02*
G37*
G36*
X454951Y360618D02*
X454929D01*
X454888Y360615D01*
X454847Y360610D01*
X454809Y360602D01*
X454773Y360591D01*
X454708Y360564D01*
X454650Y360531D01*
X454628Y360514D01*
X454606Y360498D01*
X454590Y360485D01*
X454574Y360471D01*
X454563Y360460D01*
X454555Y360452D01*
X454549Y360446D01*
X454546Y360443D01*
X454519Y360408D01*
X454495Y360373D01*
X454475Y360332D01*
X454456Y360291D01*
X454440Y360247D01*
X454429Y360203D01*
X454410Y360121D01*
X454404Y360083D01*
X454399Y360048D01*
X454396Y360015D01*
X454394Y359985D01*
X454391Y359963D01*
Y359944D01*
Y359933D01*
Y359930D01*
X454394Y359865D01*
X454396Y359805D01*
X454404Y359747D01*
X454415Y359696D01*
X454426Y359646D01*
X454440Y359603D01*
X454454Y359562D01*
X454467Y359529D01*
X454484Y359496D01*
X454497Y359469D01*
X454511Y359447D01*
X454522Y359428D01*
X454533Y359414D01*
X454541Y359403D01*
X454544Y359398D01*
X454546Y359395D01*
X454576Y359365D01*
X454606Y359338D01*
X454639Y359313D01*
X454669Y359294D01*
X454702Y359278D01*
X454735Y359264D01*
X454795Y359242D01*
X454847Y359229D01*
X454871Y359226D01*
X454890Y359223D01*
X454907Y359221D01*
X454929D01*
X454972Y359223D01*
X455011Y359229D01*
X455052Y359237D01*
X455087Y359248D01*
X455153Y359275D01*
X455207Y359308D01*
X455232Y359321D01*
X455254Y359338D01*
X455270Y359351D01*
X455286Y359365D01*
X455297Y359376D01*
X455305Y359384D01*
X455311Y359390D01*
X455314Y359392D01*
X455341Y359428D01*
X455363Y359466D01*
X455385Y359507D01*
X455401Y359548D01*
X455428Y359635D01*
X455447Y359723D01*
X455453Y359761D01*
X455458Y359799D01*
X455461Y359832D01*
X455464Y359862D01*
X455467Y359887D01*
Y359903D01*
Y359917D01*
Y359919D01*
X455464Y359982D01*
X455461Y360042D01*
X455453Y360097D01*
X455442Y360149D01*
X455431Y360195D01*
X455417Y360239D01*
X455404Y360277D01*
X455390Y360313D01*
X455376Y360343D01*
X455363Y360370D01*
X455349Y360392D01*
X455338Y360411D01*
X455327Y360424D01*
X455319Y360435D01*
X455316Y360441D01*
X455314Y360443D01*
X455284Y360474D01*
X455254Y360501D01*
X455221Y360525D01*
X455188Y360544D01*
X455155Y360561D01*
X455125Y360575D01*
X455062Y360596D01*
X455011Y360610D01*
X454986Y360613D01*
X454967Y360615D01*
X454951Y360618D01*
D02*
G37*
G36*
X447129D02*
X447107D01*
X447066Y360615D01*
X447025Y360610D01*
X446987Y360602D01*
X446952Y360591D01*
X446886Y360564D01*
X446829Y360531D01*
X446807Y360514D01*
X446785Y360498D01*
X446769Y360485D01*
X446752Y360471D01*
X446741Y360460D01*
X446733Y360452D01*
X446728Y360446D01*
X446725Y360443D01*
X446698Y360408D01*
X446673Y360373D01*
X446654Y360332D01*
X446635Y360291D01*
X446619Y360247D01*
X446608Y360203D01*
X446589Y360121D01*
X446583Y360083D01*
X446578Y360048D01*
X446575Y360015D01*
X446572Y359985D01*
X446569Y359963D01*
Y359944D01*
Y359933D01*
Y359930D01*
X446572Y359865D01*
X446575Y359805D01*
X446583Y359747D01*
X446594Y359696D01*
X446605Y359646D01*
X446619Y359603D01*
X446632Y359562D01*
X446646Y359529D01*
X446662Y359496D01*
X446676Y359469D01*
X446690Y359447D01*
X446700Y359428D01*
X446711Y359414D01*
X446720Y359403D01*
X446722Y359398D01*
X446725Y359395D01*
X446755Y359365D01*
X446785Y359338D01*
X446818Y359313D01*
X446848Y359294D01*
X446881Y359278D01*
X446913Y359264D01*
X446974Y359242D01*
X447025Y359229D01*
X447050Y359226D01*
X447069Y359223D01*
X447085Y359221D01*
X447107D01*
X447151Y359223D01*
X447189Y359229D01*
X447230Y359237D01*
X447266Y359248D01*
X447331Y359275D01*
X447386Y359308D01*
X447410Y359321D01*
X447432Y359338D01*
X447448Y359351D01*
X447465Y359365D01*
X447476Y359376D01*
X447484Y359384D01*
X447489Y359390D01*
X447492Y359392D01*
X447519Y359428D01*
X447541Y359466D01*
X447563Y359507D01*
X447579Y359548D01*
X447607Y359635D01*
X447626Y359723D01*
X447631Y359761D01*
X447637Y359799D01*
X447640Y359832D01*
X447642Y359862D01*
X447645Y359887D01*
Y359903D01*
Y359917D01*
Y359919D01*
X447642Y359982D01*
X447640Y360042D01*
X447631Y360097D01*
X447620Y360149D01*
X447610Y360195D01*
X447596Y360239D01*
X447582Y360277D01*
X447569Y360313D01*
X447555Y360343D01*
X447541Y360370D01*
X447528Y360392D01*
X447517Y360411D01*
X447506Y360424D01*
X447498Y360435D01*
X447495Y360441D01*
X447492Y360443D01*
X447462Y360474D01*
X447432Y360501D01*
X447399Y360525D01*
X447367Y360544D01*
X447334Y360561D01*
X447304Y360575D01*
X447241Y360596D01*
X447189Y360610D01*
X447165Y360613D01*
X447146Y360615D01*
X447129Y360618D01*
D02*
G37*
G36*
X440476D02*
X440454D01*
X440413Y360615D01*
X440372Y360610D01*
X440334Y360602D01*
X440299Y360591D01*
X440233Y360564D01*
X440176Y360531D01*
X440154Y360514D01*
X440132Y360498D01*
X440116Y360485D01*
X440099Y360471D01*
X440088Y360460D01*
X440080Y360452D01*
X440075Y360446D01*
X440072Y360443D01*
X440045Y360408D01*
X440020Y360373D01*
X440001Y360332D01*
X439982Y360291D01*
X439966Y360247D01*
X439955Y360203D01*
X439935Y360121D01*
X439930Y360083D01*
X439925Y360048D01*
X439922Y360015D01*
X439919Y359985D01*
X439916Y359963D01*
Y359944D01*
Y359933D01*
Y359930D01*
X439919Y359865D01*
X439922Y359805D01*
X439930Y359747D01*
X439941Y359696D01*
X439952Y359646D01*
X439966Y359603D01*
X439979Y359562D01*
X439993Y359529D01*
X440009Y359496D01*
X440023Y359469D01*
X440036Y359447D01*
X440048Y359428D01*
X440058Y359414D01*
X440067Y359403D01*
X440069Y359398D01*
X440072Y359395D01*
X440102Y359365D01*
X440132Y359338D01*
X440165Y359313D01*
X440195Y359294D01*
X440228Y359278D01*
X440260Y359264D01*
X440320Y359242D01*
X440372Y359229D01*
X440397Y359226D01*
X440416Y359223D01*
X440432Y359221D01*
X440454D01*
X440498Y359223D01*
X440536Y359229D01*
X440577Y359237D01*
X440613Y359248D01*
X440678Y359275D01*
X440733Y359308D01*
X440757Y359321D01*
X440779Y359338D01*
X440796Y359351D01*
X440812Y359365D01*
X440823Y359376D01*
X440831Y359384D01*
X440836Y359390D01*
X440839Y359392D01*
X440867Y359428D01*
X440888Y359466D01*
X440910Y359507D01*
X440927Y359548D01*
X440954Y359635D01*
X440973Y359723D01*
X440978Y359761D01*
X440984Y359799D01*
X440987Y359832D01*
X440989Y359862D01*
X440992Y359887D01*
Y359903D01*
Y359917D01*
Y359919D01*
X440989Y359982D01*
X440987Y360042D01*
X440978Y360097D01*
X440968Y360149D01*
X440956Y360195D01*
X440943Y360239D01*
X440929Y360277D01*
X440916Y360313D01*
X440902Y360343D01*
X440888Y360370D01*
X440875Y360392D01*
X440864Y360411D01*
X440853Y360424D01*
X440845Y360435D01*
X440842Y360441D01*
X440839Y360443D01*
X440809Y360474D01*
X440779Y360501D01*
X440746Y360525D01*
X440714Y360544D01*
X440681Y360561D01*
X440651Y360575D01*
X440588Y360596D01*
X440536Y360610D01*
X440512Y360613D01*
X440492Y360615D01*
X440476Y360618D01*
D02*
G37*
G36*
X408205Y361279D02*
X408186D01*
X408145Y361276D01*
X408109Y361271D01*
X408071Y361260D01*
X408038Y361246D01*
X407975Y361213D01*
X407924Y361178D01*
X407902Y361159D01*
X407883Y361140D01*
X407866Y361121D01*
X407850Y361107D01*
X407839Y361093D01*
X407831Y361082D01*
X407828Y361077D01*
X407825Y361074D01*
X407798Y361031D01*
X407776Y360981D01*
X407757Y360921D01*
X407741Y360858D01*
X407727Y360793D01*
X407713Y360725D01*
X407697Y360585D01*
X407689Y360520D01*
X407686Y360457D01*
X407683Y360400D01*
X407681Y360351D01*
X407678Y360307D01*
Y360291D01*
Y360277D01*
Y360266D01*
Y360258D01*
Y360252D01*
Y360250D01*
X407681Y360138D01*
X407683Y360037D01*
X407691Y359944D01*
X407700Y359859D01*
X407711Y359783D01*
X407724Y359717D01*
X407738Y359657D01*
X407752Y359605D01*
X407765Y359562D01*
X407779Y359524D01*
X407790Y359491D01*
X407803Y359466D01*
X407812Y359447D01*
X407820Y359436D01*
X407823Y359428D01*
X407825Y359425D01*
X407853Y359390D01*
X407883Y359357D01*
X407913Y359330D01*
X407943Y359308D01*
X407973Y359286D01*
X408003Y359270D01*
X408030Y359256D01*
X408057Y359245D01*
X408107Y359231D01*
X408128Y359226D01*
X408147Y359223D01*
X408161D01*
X408175Y359221D01*
X408183D01*
X408221Y359223D01*
X408259Y359229D01*
X408295Y359240D01*
X408328Y359253D01*
X408390Y359283D01*
X408442Y359321D01*
X408483Y359360D01*
X408500Y359376D01*
X408513Y359390D01*
X408527Y359403D01*
X408535Y359414D01*
X408538Y359420D01*
X408540Y359422D01*
X408565Y359466D01*
X408587Y359518D01*
X408609Y359575D01*
X408625Y359638D01*
X408639Y359706D01*
X408650Y359775D01*
X408666Y359914D01*
X408674Y359979D01*
X408677Y360042D01*
X408680Y360100D01*
X408682Y360149D01*
X408685Y360190D01*
Y360209D01*
Y360222D01*
Y360233D01*
Y360242D01*
Y360247D01*
Y360250D01*
X408682Y360362D01*
X408677Y360463D01*
X408672Y360558D01*
X408661Y360643D01*
X408650Y360719D01*
X408636Y360790D01*
X408620Y360850D01*
X408606Y360905D01*
X408592Y360954D01*
X408576Y360992D01*
X408562Y361025D01*
X408552Y361052D01*
X408540Y361074D01*
X408532Y361088D01*
X408530Y361096D01*
X408527Y361099D01*
X408502Y361132D01*
X408475Y361159D01*
X408448Y361183D01*
X408420Y361203D01*
X408390Y361222D01*
X408363Y361235D01*
X408309Y361257D01*
X408259Y361271D01*
X408238Y361274D01*
X408221Y361276D01*
X408205Y361279D01*
D02*
G37*
G36*
X475644Y360632D02*
X475625D01*
X475589Y360629D01*
X475554Y360624D01*
X475518Y360615D01*
X475486Y360605D01*
X475428Y360577D01*
X475379Y360544D01*
X475338Y360512D01*
X475319Y360498D01*
X475305Y360485D01*
X475294Y360474D01*
X475286Y360465D01*
X475284Y360460D01*
X475281Y360457D01*
X475256Y360422D01*
X475232Y360384D01*
X475213Y360345D01*
X475196Y360302D01*
X475172Y360214D01*
X475155Y360130D01*
X475147Y360089D01*
X475144Y360053D01*
X475142Y360020D01*
X475139Y359990D01*
X475136Y359966D01*
Y359949D01*
Y359936D01*
Y359933D01*
X475139Y359868D01*
X475142Y359805D01*
X475150Y359747D01*
X475158Y359696D01*
X475169Y359646D01*
X475183Y359600D01*
X475196Y359562D01*
X475210Y359526D01*
X475223Y359493D01*
X475237Y359466D01*
X475248Y359444D01*
X475262Y359425D01*
X475270Y359412D01*
X475278Y359401D01*
X475281Y359395D01*
X475284Y359392D01*
X475311Y359362D01*
X475341Y359335D01*
X475371Y359313D01*
X475401Y359294D01*
X475431Y359278D01*
X475461Y359261D01*
X475516Y359242D01*
X475565Y359229D01*
X475587Y359226D01*
X475603Y359223D01*
X475619Y359221D01*
X475638D01*
X475677Y359223D01*
X475712Y359229D01*
X475745Y359237D01*
X475778Y359248D01*
X475835Y359272D01*
X475887Y359305D01*
X475928Y359335D01*
X475944Y359349D01*
X475958Y359362D01*
X475969Y359371D01*
X475977Y359379D01*
X475980Y359384D01*
X475982Y359387D01*
X476007Y359420D01*
X476029Y359458D01*
X476048Y359499D01*
X476064Y359540D01*
X476089Y359627D01*
X476105Y359712D01*
X476114Y359750D01*
X476116Y359788D01*
X476119Y359821D01*
X476122Y359851D01*
X476124Y359876D01*
Y359892D01*
Y359906D01*
Y359908D01*
X476122Y359974D01*
X476119Y360034D01*
X476111Y360089D01*
X476100Y360140D01*
X476089Y360190D01*
X476078Y360233D01*
X476064Y360274D01*
X476048Y360310D01*
X476034Y360343D01*
X476021Y360370D01*
X476010Y360392D01*
X475999Y360411D01*
X475988Y360427D01*
X475980Y360438D01*
X475977Y360443D01*
X475974Y360446D01*
X475944Y360479D01*
X475914Y360506D01*
X475884Y360534D01*
X475854Y360553D01*
X475824Y360572D01*
X475797Y360585D01*
X475742Y360610D01*
X475696Y360621D01*
X475674Y360626D01*
X475658Y360629D01*
X475644Y360632D01*
D02*
G37*
%LPD*%
M02*
