G04*
G04 #@! TF.GenerationSoftware,Altium Limited,Altium Designer,22.6.1 (34)*
G04*
G04 Layer_Physical_Order=1*
G04 Layer_Color=255*
%FSLAX25Y25*%
%MOIN*%
G70*
G04*
G04 #@! TF.SameCoordinates,6A0AF7E6-2655-45A2-AC58-E928B373DE11*
G04*
G04*
G04 #@! TF.FilePolarity,Positive*
G04*
G01*
G75*
%ADD11C,0.01575*%
%ADD12C,0.00787*%
%ADD20R,0.05118X0.04331*%
%ADD24R,0.09843X0.02362*%
%ADD25R,0.02756X0.03347*%
%ADD26R,0.04331X0.04331*%
%ADD27R,0.03543X0.03937*%
%ADD28O,0.08661X0.02362*%
%ADD29R,0.03347X0.02756*%
%ADD30R,0.04331X0.04331*%
%ADD31R,0.06299X0.06299*%
%ADD32C,0.06299*%
%ADD33R,0.06299X0.06299*%
%ADD34C,0.01968*%
G36*
X467860Y396993D02*
X468155Y396796D01*
X468504Y396727D01*
X487278D01*
Y384547D01*
X487220Y384071D01*
X486778Y384071D01*
X481799D01*
Y381890D01*
X481299D01*
Y381390D01*
X475378D01*
Y379709D01*
X475409D01*
X475878Y379634D01*
X475878Y378752D01*
X475378Y378545D01*
X471991Y381932D01*
X471565Y382217D01*
X471063Y382317D01*
X470677D01*
Y384063D01*
X466921D01*
Y379716D01*
X469263D01*
X469390Y379691D01*
X470519D01*
X472567Y377643D01*
X472376Y377181D01*
X470579D01*
Y374516D01*
X473244D01*
Y375650D01*
X473744Y375801D01*
X473891Y375582D01*
X474917Y374556D01*
X475342Y374271D01*
X475473Y374246D01*
X475878Y373840D01*
Y372335D01*
X475409Y372260D01*
X475378D01*
Y370109D01*
X474909Y369703D01*
X473860D01*
X473396Y370166D01*
X473120Y370350D01*
X473113Y370388D01*
X473237Y370850D01*
X473244D01*
Y373516D01*
X470079D01*
Y374016D01*
X469579D01*
Y377181D01*
X466913D01*
X466913Y377181D01*
Y377181D01*
X466500Y377391D01*
X466172Y377719D01*
X465876Y377917D01*
X465528Y377986D01*
X460457D01*
X460108Y377917D01*
X459812Y377719D01*
X459146Y377053D01*
X457318D01*
X457118Y377354D01*
X456561Y377725D01*
X455905Y377856D01*
X449606D01*
X448950Y377725D01*
X448394Y377354D01*
X448023Y376798D01*
X447892Y376142D01*
X448023Y375486D01*
X448394Y374930D01*
X448950Y374558D01*
X449606Y374428D01*
X455905D01*
X456561Y374558D01*
X457118Y374930D01*
X457318Y375231D01*
X458089D01*
X458197Y375036D01*
X458241Y374730D01*
X458135Y374660D01*
X456260Y372785D01*
X455905Y372856D01*
X449606D01*
X448950Y372725D01*
X448394Y372354D01*
X448023Y371798D01*
X447892Y371142D01*
X448023Y370486D01*
X448394Y369930D01*
X448950Y369558D01*
X449606Y369428D01*
X455905D01*
X456561Y369558D01*
X457118Y369930D01*
X457489Y370486D01*
X457619Y371142D01*
X457549Y371497D01*
X459157Y373105D01*
X460327D01*
Y371350D01*
X462081D01*
Y366642D01*
X461114D01*
Y361705D01*
X465658D01*
Y366642D01*
X463903D01*
Y371350D01*
X465658D01*
Y371350D01*
X466142Y371313D01*
X466178Y371131D01*
X466375Y370836D01*
X468334Y368877D01*
X468630Y368680D01*
X468978Y368610D01*
X470227D01*
X470561Y368110D01*
X470490Y367939D01*
Y367348D01*
X470576Y367142D01*
X470242Y366642D01*
X467413D01*
Y362883D01*
X467396Y362795D01*
Y361795D01*
X464369Y358768D01*
X461114D01*
Y357530D01*
X456854D01*
X456561Y357725D01*
X455905Y357856D01*
X449606D01*
X448950Y357725D01*
X448884Y357681D01*
X448443Y357916D01*
Y358689D01*
X449252Y359498D01*
X449606Y359428D01*
X455905D01*
X456561Y359558D01*
X457118Y359930D01*
X457489Y360486D01*
X457619Y361142D01*
X457489Y361798D01*
X457118Y362354D01*
X456561Y362725D01*
X455905Y362856D01*
X449606D01*
X448950Y362725D01*
X448394Y362354D01*
X448023Y361798D01*
X447892Y361142D01*
X447963Y360787D01*
X446887Y359711D01*
X446690Y359416D01*
X446620Y359067D01*
Y353012D01*
X446690Y352664D01*
X446887Y352368D01*
X448104Y351151D01*
Y348433D01*
X446370D01*
X446219Y348433D01*
X446012Y348933D01*
X446140Y349061D01*
X446366Y349606D01*
Y350197D01*
X446140Y350742D01*
X445723Y351160D01*
X445177Y351386D01*
X444587D01*
X444041Y351160D01*
X443624Y350742D01*
X443452Y350328D01*
X441557Y348433D01*
X437689D01*
Y347228D01*
X433768D01*
Y348728D01*
X430293D01*
X427101Y351920D01*
X426676Y352205D01*
X426173Y352305D01*
X425733D01*
X425402Y352636D01*
Y353247D01*
X428028Y355874D01*
X428571Y355709D01*
X428654Y355291D01*
X429136Y354569D01*
X429858Y354087D01*
X430709Y353918D01*
X433358D01*
Y356142D01*
Y358366D01*
X431227D01*
X431020Y358866D01*
X431052Y358897D01*
X431249Y359192D01*
X431296Y359428D01*
X437008D01*
X437664Y359558D01*
X438220Y359930D01*
X438591Y360486D01*
X438722Y361142D01*
X438591Y361798D01*
X438220Y362354D01*
X437664Y362725D01*
X437008Y362856D01*
X430709D01*
X430053Y362725D01*
X429497Y362354D01*
X429125Y361798D01*
X428995Y361142D01*
X429125Y360486D01*
X429496Y359930D01*
Y359919D01*
X424113Y354535D01*
X421055D01*
Y353970D01*
X417190D01*
X415204Y355956D01*
X414779Y356240D01*
X414276Y356340D01*
X398592D01*
X398090Y356240D01*
X397664Y355956D01*
X395068Y353360D01*
X387508D01*
Y355697D01*
X380209D01*
Y348398D01*
X387508D01*
Y350735D01*
X395612D01*
X395862Y350784D01*
X396331Y350466D01*
X396362Y350413D01*
Y349847D01*
X396645Y348792D01*
X397191Y347846D01*
X397964Y347073D01*
X398910Y346527D01*
X399966Y346244D01*
X400012D01*
Y350394D01*
X400512D01*
Y350894D01*
X404661D01*
Y350940D01*
X404379Y351995D01*
X403832Y352942D01*
X403559Y353215D01*
X403766Y353715D01*
X406862D01*
Y346744D01*
X414161D01*
Y347219D01*
X421055D01*
Y346252D01*
X425402D01*
Y349200D01*
X425902Y349408D01*
X428437Y346872D01*
Y343398D01*
X433768D01*
Y344603D01*
X437689D01*
Y343102D01*
X439837D01*
Y341937D01*
X437689D01*
Y336606D01*
X443807D01*
Y341937D01*
X441659D01*
Y343102D01*
X443807D01*
Y346970D01*
X445308Y348472D01*
X445507Y348554D01*
X445957Y348224D01*
X445957Y348043D01*
X445957Y348043D01*
X445957Y348042D01*
Y343102D01*
X452075D01*
Y348433D01*
X449927D01*
Y351528D01*
X449858Y351877D01*
X449660Y352172D01*
X448443Y353390D01*
Y354367D01*
X448884Y354603D01*
X448950Y354558D01*
X449606Y354428D01*
X452920D01*
Y350611D01*
X452748Y350197D01*
Y349606D01*
X452974Y349061D01*
X453392Y348643D01*
X453937Y348417D01*
X454528D01*
X455073Y348643D01*
X455491Y349061D01*
X455717Y349606D01*
Y350197D01*
X455545Y350611D01*
Y354428D01*
X455905D01*
X456561Y354558D01*
X457080Y354904D01*
X461114D01*
Y353831D01*
X465658D01*
Y357479D01*
X466913Y358735D01*
X467413Y358528D01*
X467413Y358367D01*
Y353831D01*
X471957D01*
Y354987D01*
X473866D01*
X475253Y353599D01*
X475679Y353315D01*
X475878Y353275D01*
Y352650D01*
X486721D01*
Y356012D01*
X476935D01*
X476885Y356087D01*
X477152Y356587D01*
X486721D01*
Y359949D01*
X475878D01*
Y357340D01*
X475416Y357149D01*
X475338Y357227D01*
X474912Y357512D01*
X474409Y357612D01*
X471957D01*
Y358768D01*
X467827D01*
X467653Y358768D01*
X467446Y359268D01*
X468951Y360773D01*
X469149Y361069D01*
X469218Y361417D01*
Y361705D01*
X471957D01*
Y365811D01*
X472457Y366018D01*
X475878Y362597D01*
Y360524D01*
X486721D01*
Y363886D01*
X477548D01*
X477498Y363961D01*
X477765Y364461D01*
X486721D01*
Y367209D01*
X487220Y367463D01*
X487278Y367421D01*
Y331620D01*
X425574D01*
X417967Y339227D01*
X417671Y339424D01*
X417323Y339494D01*
X374927D01*
Y396727D01*
X417323D01*
X417671Y396796D01*
X417967Y396993D01*
X425574Y404601D01*
X460253D01*
X467860Y396993D01*
D02*
G37*
G36*
X487278Y379232D02*
Y372736D01*
X487220Y372694D01*
X486721Y372949D01*
Y375697D01*
X481032D01*
X480905Y375722D01*
X478126D01*
X478093Y375772D01*
X478361Y376272D01*
X486721D01*
X486721Y379020D01*
X487220Y379274D01*
X487278Y379232D01*
D02*
G37*
G36*
X475878Y366534D02*
Y365828D01*
X475416Y365636D01*
X473672Y367380D01*
X473879Y367880D01*
X474532D01*
X475878Y366534D01*
D02*
G37*
G36*
X415718Y351729D02*
X416144Y351445D01*
X416646Y351345D01*
X421055D01*
Y350780D01*
X423435D01*
X423668Y350484D01*
X423457Y350008D01*
X421055D01*
Y349041D01*
X414161D01*
Y352633D01*
X414623Y352824D01*
X415718Y351729D01*
D02*
G37*
%LPC*%
G36*
X434444Y401787D02*
X434398D01*
Y398138D01*
X438047D01*
Y398184D01*
X437765Y399239D01*
X437218Y400186D01*
X436446Y400958D01*
X435499Y401505D01*
X434444Y401787D01*
D02*
G37*
G36*
X433398D02*
X433351D01*
X432296Y401505D01*
X431350Y400958D01*
X430577Y400186D01*
X430031Y399239D01*
X429748Y398184D01*
Y398138D01*
X433398D01*
Y401787D01*
D02*
G37*
G36*
X438047Y397138D02*
X434398D01*
Y393488D01*
X434444D01*
X435499Y393771D01*
X436446Y394317D01*
X437218Y395090D01*
X437765Y396036D01*
X438047Y397092D01*
Y397138D01*
D02*
G37*
G36*
X433398D02*
X429748D01*
Y397092D01*
X430031Y396036D01*
X430577Y395090D01*
X431350Y394317D01*
X432296Y393771D01*
X433351Y393488D01*
X433398D01*
Y397138D01*
D02*
G37*
G36*
X401058Y388992D02*
X401012D01*
Y385343D01*
X404661D01*
Y385389D01*
X404379Y386444D01*
X403832Y387390D01*
X403060Y388163D01*
X402113Y388709D01*
X401058Y388992D01*
D02*
G37*
G36*
X400012D02*
X399966D01*
X398910Y388709D01*
X397964Y388163D01*
X397191Y387390D01*
X396645Y386444D01*
X396362Y385389D01*
Y385343D01*
X400012D01*
Y388992D01*
D02*
G37*
G36*
X417618Y389280D02*
X417028D01*
X416482Y389054D01*
X416065Y388636D01*
X415839Y388090D01*
Y387500D01*
X416065Y386954D01*
X416482Y386537D01*
X417028Y386311D01*
X417618D01*
X418164Y386537D01*
X418511Y386884D01*
X421055D01*
Y385228D01*
X424136D01*
X424335Y384771D01*
X424079Y384457D01*
X421055D01*
Y383490D01*
X414161D01*
Y388492D01*
X406862D01*
Y381193D01*
X414161D01*
Y381667D01*
X421055D01*
Y380701D01*
X425402D01*
Y383168D01*
X427464Y385230D01*
X429296D01*
X429497Y384930D01*
X430053Y384558D01*
X430709Y384428D01*
X437008D01*
X437664Y384558D01*
X438220Y384930D01*
X438591Y385486D01*
X438722Y386142D01*
X438591Y386798D01*
X438220Y387354D01*
X437664Y387725D01*
X437008Y387856D01*
X430709D01*
X430053Y387725D01*
X429497Y387354D01*
X429296Y387053D01*
X427087D01*
X426738Y386984D01*
X426442Y386786D01*
X425864Y386207D01*
X425402Y386399D01*
Y388984D01*
X421055D01*
Y388706D01*
X418511D01*
X418164Y389054D01*
X417618Y389280D01*
D02*
G37*
G36*
X457547Y401287D02*
X450248D01*
Y393988D01*
X456259D01*
X463361Y386886D01*
Y384063D01*
X462394D01*
Y383407D01*
X461075D01*
X460016Y384467D01*
X459920Y384699D01*
X459502Y385117D01*
X458957Y385343D01*
X458366D01*
X457853Y385130D01*
X457819Y385145D01*
X457489Y385486D01*
X457619Y386142D01*
X457489Y386798D01*
X457118Y387354D01*
X456561Y387725D01*
X455905Y387856D01*
X453667D01*
Y388779D01*
X453598Y389128D01*
X453400Y389424D01*
X447041Y395783D01*
X447298Y396229D01*
X447547Y397157D01*
Y398118D01*
X447298Y399046D01*
X446818Y399879D01*
X446139Y400558D01*
X445306Y401039D01*
X444378Y401287D01*
X443417D01*
X442489Y401039D01*
X441657Y400558D01*
X440977Y399879D01*
X440497Y399046D01*
X440248Y398118D01*
Y397157D01*
X440497Y396229D01*
X440977Y395397D01*
X441657Y394717D01*
X442489Y394237D01*
X443417Y393988D01*
X444378D01*
X445306Y394237D01*
X445752Y394494D01*
X451845Y388402D01*
Y387856D01*
X449606D01*
X448950Y387725D01*
X448394Y387354D01*
X448023Y386798D01*
X447892Y386142D01*
X448023Y385486D01*
X448394Y384930D01*
X448950Y384558D01*
X449606Y384428D01*
X455905D01*
X456561Y384558D01*
X456896Y384782D01*
X457300Y384450D01*
X457177Y384154D01*
Y383563D01*
X457403Y383017D01*
X457821Y382600D01*
X458366Y382374D01*
X458396D01*
X458864Y381906D01*
X458657Y381405D01*
X458366D01*
X458099Y381295D01*
X457548Y381546D01*
X457536Y381562D01*
X457489Y381798D01*
X457118Y382354D01*
X456561Y382725D01*
X455905Y382856D01*
X449606D01*
X448950Y382725D01*
X448394Y382354D01*
X448023Y381798D01*
X447892Y381142D01*
X448023Y380486D01*
X448394Y379930D01*
X448950Y379558D01*
X449606Y379428D01*
X455905D01*
X456561Y379558D01*
X456601Y379584D01*
X456908Y379277D01*
X457203Y379079D01*
X457454Y379030D01*
X457821Y378663D01*
X458366Y378437D01*
X458957D01*
X459502Y378663D01*
X459920Y379081D01*
X460146Y379626D01*
Y380217D01*
X460086Y380361D01*
X460445Y380799D01*
X460532Y380782D01*
X462394D01*
Y379716D01*
X466150D01*
Y384063D01*
X465183D01*
Y387264D01*
X465113Y387613D01*
X464916Y387908D01*
X457547Y395277D01*
Y401287D01*
D02*
G37*
G36*
X384405Y386197D02*
X384358D01*
Y382547D01*
X388008D01*
Y382594D01*
X387725Y383649D01*
X387179Y384595D01*
X386406Y385368D01*
X385460Y385914D01*
X384405Y386197D01*
D02*
G37*
G36*
X383358D02*
X383312D01*
X382257Y385914D01*
X381310Y385368D01*
X380538Y384595D01*
X379992Y383649D01*
X379709Y382594D01*
Y382547D01*
X383358D01*
Y386197D01*
D02*
G37*
G36*
X480799Y384071D02*
X475378D01*
Y382390D01*
X480799D01*
Y384071D01*
D02*
G37*
G36*
X404661Y384343D02*
X401012D01*
Y380693D01*
X401058D01*
X402113Y380976D01*
X403060Y381522D01*
X403832Y382295D01*
X404379Y383241D01*
X404661Y384296D01*
Y384343D01*
D02*
G37*
G36*
X400012D02*
X396362D01*
Y384296D01*
X396645Y383241D01*
X397191Y382295D01*
X397964Y381522D01*
X398910Y380976D01*
X399966Y380693D01*
X400012D01*
Y384343D01*
D02*
G37*
G36*
X437008Y382856D02*
X430709D01*
X430053Y382725D01*
X429497Y382354D01*
X429125Y381798D01*
X428995Y381142D01*
X429065Y380787D01*
X426183Y377905D01*
X425986Y377609D01*
X425916Y377261D01*
Y369962D01*
X425823Y369899D01*
X425323Y370166D01*
Y372252D01*
X420976D01*
Y370990D01*
X418511D01*
X418164Y371337D01*
X417618Y371563D01*
X417028D01*
X416482Y371337D01*
X416065Y370919D01*
X415839Y370374D01*
Y369783D01*
X416065Y369238D01*
X416482Y368820D01*
X417028Y368595D01*
X417618D01*
X418164Y368820D01*
X418511Y369167D01*
X420976D01*
Y368496D01*
X424058D01*
X424256Y368039D01*
X424000Y367724D01*
X420976D01*
Y366758D01*
X414083D01*
Y371760D01*
X406783D01*
Y364486D01*
X403384D01*
X403177Y364986D01*
X403754Y365562D01*
X404300Y366509D01*
X404583Y367564D01*
Y367610D01*
X400433D01*
Y368110D01*
X399933D01*
Y372260D01*
X399887D01*
X398831Y371977D01*
X397885Y371431D01*
X397113Y370658D01*
X396566Y369712D01*
X396284Y368657D01*
Y368484D01*
X395821Y368292D01*
X391422Y372692D01*
X391127Y372889D01*
X390778Y372958D01*
X387392D01*
X387259Y373456D01*
X386779Y374288D01*
X386099Y374968D01*
X385267Y375448D01*
X384339Y375697D01*
X383378D01*
X382450Y375448D01*
X381617Y374968D01*
X380938Y374288D01*
X380457Y373456D01*
X380209Y372528D01*
Y371567D01*
X380457Y370638D01*
X380938Y369806D01*
X381617Y369127D01*
X382450Y368646D01*
X383378Y368398D01*
X384339D01*
X385267Y368646D01*
X386099Y369127D01*
X386779Y369806D01*
X387259Y370638D01*
X387392Y371136D01*
X390401D01*
X398116Y363420D01*
X397925Y362958D01*
X387392D01*
X387259Y363456D01*
X386779Y364288D01*
X386099Y364968D01*
X385267Y365448D01*
X384339Y365697D01*
X383378D01*
X382450Y365448D01*
X381617Y364968D01*
X380938Y364288D01*
X380457Y363456D01*
X380209Y362528D01*
Y361567D01*
X380457Y360638D01*
X380938Y359806D01*
X381617Y359127D01*
X382450Y358646D01*
X383378Y358398D01*
X384339D01*
X385267Y358646D01*
X386099Y359127D01*
X386779Y359806D01*
X387259Y360638D01*
X387392Y361136D01*
X426614D01*
X426963Y361205D01*
X427258Y361403D01*
X430354Y364498D01*
X430709Y364428D01*
X437008D01*
X437664Y364558D01*
X438220Y364930D01*
X438591Y365486D01*
X438722Y366142D01*
X438591Y366798D01*
X438220Y367354D01*
X437664Y367725D01*
X437008Y367856D01*
X430709D01*
X430053Y367725D01*
X429497Y367354D01*
X429125Y366798D01*
X428995Y366142D01*
X429065Y365787D01*
X427078Y363800D01*
X426617Y364046D01*
X426628Y364098D01*
Y365764D01*
X430360Y369497D01*
X430709Y369428D01*
X437008D01*
X437664Y369558D01*
X438220Y369930D01*
X438591Y370486D01*
X438722Y371142D01*
X438591Y371798D01*
X438220Y372354D01*
X437664Y372725D01*
X437008Y372856D01*
X430709D01*
X430421Y372798D01*
X430064Y373237D01*
X430190Y373540D01*
Y374031D01*
X430607Y374448D01*
X430709Y374428D01*
X437008D01*
X437664Y374558D01*
X438220Y374930D01*
X438591Y375486D01*
X438722Y376142D01*
X438591Y376798D01*
X438220Y377354D01*
X437664Y377725D01*
X437008Y377856D01*
X430709D01*
X430053Y377725D01*
X429497Y377354D01*
X429125Y376798D01*
X428995Y376142D01*
X429073Y375749D01*
X428703Y375320D01*
X428410D01*
X428239Y375249D01*
X427739Y375583D01*
Y376883D01*
X430354Y379498D01*
X430709Y379428D01*
X437008D01*
X437664Y379558D01*
X438220Y379930D01*
X438591Y380486D01*
X438722Y381142D01*
X438591Y381798D01*
X438220Y382354D01*
X437664Y382725D01*
X437008Y382856D01*
D02*
G37*
G36*
X388008Y381547D02*
X384358D01*
Y377898D01*
X384405D01*
X385460Y378180D01*
X386406Y378727D01*
X387179Y379499D01*
X387725Y380446D01*
X388008Y381501D01*
Y381547D01*
D02*
G37*
G36*
X383358D02*
X379709D01*
Y381501D01*
X379992Y380446D01*
X380538Y379499D01*
X381310Y378727D01*
X382257Y378180D01*
X383312Y377898D01*
X383358D01*
Y381547D01*
D02*
G37*
G36*
X400979Y372260D02*
X400933D01*
Y368610D01*
X404583D01*
Y368657D01*
X404300Y369712D01*
X403754Y370658D01*
X402981Y371431D01*
X402035Y371977D01*
X400979Y372260D01*
D02*
G37*
G36*
X455905Y367856D02*
X449606D01*
X448950Y367725D01*
X448394Y367354D01*
X448023Y366798D01*
X447892Y366142D01*
X448023Y365486D01*
X448394Y364930D01*
X448950Y364558D01*
X449606Y364428D01*
X455905D01*
X456561Y364558D01*
X457118Y364930D01*
X457489Y365486D01*
X457619Y366142D01*
X457489Y366798D01*
X457118Y367354D01*
X456561Y367725D01*
X455905Y367856D01*
D02*
G37*
G36*
X437008Y358366D02*
X434358D01*
Y356642D01*
X439132D01*
X439062Y356993D01*
X438580Y357714D01*
X437859Y358196D01*
X437008Y358366D01*
D02*
G37*
G36*
X439132Y355642D02*
X434358D01*
Y353918D01*
X437008D01*
X437859Y354087D01*
X438580Y354569D01*
X439062Y355291D01*
X439132Y355642D01*
D02*
G37*
G36*
X404661Y349894D02*
X401012D01*
Y346244D01*
X401058D01*
X402113Y346527D01*
X403060Y347073D01*
X403832Y347846D01*
X404379Y348792D01*
X404661Y349847D01*
Y349894D01*
D02*
G37*
G36*
X452575Y342437D02*
X449516D01*
Y339772D01*
X452575D01*
Y342437D01*
D02*
G37*
G36*
X448516D02*
X445457D01*
Y339772D01*
X448516D01*
Y342437D01*
D02*
G37*
G36*
X434055Y341929D02*
X431496D01*
Y339370D01*
X434055D01*
Y341929D01*
D02*
G37*
G36*
X430709D02*
X428150D01*
Y339370D01*
X430709D01*
Y341929D01*
D02*
G37*
G36*
X452575Y338772D02*
X449516D01*
Y336106D01*
X452575D01*
Y338772D01*
D02*
G37*
G36*
X448516D02*
X445457D01*
Y336106D01*
X448516D01*
Y338772D01*
D02*
G37*
G36*
X434055Y338583D02*
X431496D01*
Y336024D01*
X434055D01*
Y338583D01*
D02*
G37*
G36*
X430709D02*
X428150D01*
Y336024D01*
X430709D01*
Y338583D01*
D02*
G37*
%LPD*%
G36*
X428410Y372351D02*
X428894D01*
X429108Y372085D01*
X429186Y371889D01*
X429125Y371798D01*
X428995Y371142D01*
X429067Y370780D01*
X428201Y369915D01*
X427739Y370106D01*
Y372088D01*
X428239Y372422D01*
X428410Y372351D01*
D02*
G37*
D11*
X458768Y383858D02*
X460532Y382095D01*
X458661Y383858D02*
X458768D01*
X464067Y382095D02*
X464272Y381890D01*
X460532Y382095D02*
X464067D01*
X477165Y374410D02*
X480905D01*
X471063Y381004D02*
X474819Y377248D01*
Y376510D02*
Y377248D01*
X469390Y381004D02*
X471063D01*
X480905Y374410D02*
X481299Y374016D01*
X475845Y375484D02*
X476090D01*
X477165Y374410D01*
X468799Y381594D02*
Y381890D01*
X474819Y376510D02*
X475845Y375484D01*
X468799Y381594D02*
X469390Y381004D01*
X481102Y354528D02*
X481299Y354331D01*
X469685Y356299D02*
X474409D01*
X476181Y354528D01*
X481102D01*
X454050Y356217D02*
X463304D01*
X463386Y356299D01*
X454050Y356142D02*
X454232Y355960D01*
X452756Y356142D02*
X454050D01*
X454232Y349902D02*
Y355960D01*
X440748Y345768D02*
X444882Y349902D01*
X426173Y350992D02*
X431250Y345915D01*
X440600D01*
X440748Y345768D01*
X423524Y352658D02*
X425189Y350992D01*
X426173D01*
X395612Y352047D02*
X398592Y355028D01*
X414276D01*
X416646Y352658D01*
X423228D01*
X383858Y352047D02*
X395612D01*
D12*
X460457Y377075D02*
X465528D01*
X467020Y375583D01*
Y371480D02*
Y375583D01*
Y371480D02*
X468978Y369522D01*
X470079Y374016D02*
X474016Y370079D01*
X472120Y367644D02*
X477559Y362205D01*
X473483Y368791D02*
X474909D01*
X472752Y369522D02*
X473483Y368791D01*
X474016Y370079D02*
X481299D01*
X468978Y369522D02*
X472752D01*
X474909Y368791D02*
X477559Y366142D01*
X471974Y367644D02*
X472120D01*
X417323Y387795D02*
X422539D01*
X423228Y387106D01*
X417323Y370079D02*
X422854D01*
X423150Y370374D01*
X383858Y362047D02*
X426614D01*
X430709Y366142D01*
X390778Y372047D02*
X399250Y363575D01*
X425193D01*
X464272Y382185D02*
Y387264D01*
X456332Y381142D02*
X457552Y379921D01*
X458661D01*
X453898Y397638D02*
X464272Y387264D01*
X468307Y362795D02*
X469685Y364173D01*
X463386Y356299D02*
Y356496D01*
X468307Y361417D01*
Y362795D01*
X462992Y364567D02*
X463386Y364173D01*
X462992Y364567D02*
Y374016D01*
X455905Y371142D02*
X458779Y374016D01*
X462992D01*
X452756Y371142D02*
X455905D01*
X430407Y359541D02*
Y360414D01*
X431135Y361142D01*
X433858D01*
X423228Y352658D02*
X423524D01*
X430407Y359541D01*
X427087Y386142D02*
X433858D01*
X423524Y382579D02*
X427087Y386142D01*
X412776Y382579D02*
X423228D01*
X423524D01*
X412697Y365846D02*
X423445D01*
X410433Y368110D02*
X412697Y365846D01*
X426828Y377261D02*
X430709Y381142D01*
X423445Y365846D02*
X426828Y369229D01*
X428706Y373836D02*
X431012Y376142D01*
X426828Y369229D02*
Y377261D01*
X431012Y376142D02*
X433858D01*
X410512Y350394D02*
X412776Y348130D01*
X423228D01*
X430709Y381142D02*
X433858D01*
X410512Y384842D02*
X412776Y382579D01*
X477559Y362205D02*
X481299D01*
X452756Y381142D02*
X456332D01*
X452756Y376142D02*
X459523D01*
X460457Y377075D01*
X477559Y366142D02*
X481299D01*
X440748Y339272D02*
Y345768D01*
X449606Y361142D02*
X452756D01*
X447532Y353012D02*
Y359067D01*
Y353012D02*
X449016Y351528D01*
Y345768D02*
Y351528D01*
X447532Y359067D02*
X449606Y361142D01*
X452756Y386142D02*
Y388779D01*
X443898Y397638D02*
X452756Y388779D01*
X430709Y366142D02*
X433858D01*
X430717Y371142D02*
X433858D01*
X425716Y366142D02*
X430717Y371142D01*
X425193Y363575D02*
X425716Y364098D01*
X383858Y372047D02*
X390778D01*
X425716Y364098D02*
Y366142D01*
D20*
X440748Y345768D02*
D03*
X449016D02*
D03*
Y339272D02*
D03*
X440748D02*
D03*
D24*
X481299Y354331D02*
D03*
Y358268D02*
D03*
Y362205D02*
D03*
Y366142D02*
D03*
Y370079D02*
D03*
Y374016D02*
D03*
Y377953D02*
D03*
Y381890D02*
D03*
D25*
X468799D02*
D03*
X464272D02*
D03*
D26*
X470079Y374016D02*
D03*
X462992D02*
D03*
D27*
X469685Y364173D02*
D03*
X463386D02*
D03*
Y356299D02*
D03*
X469685D02*
D03*
D28*
X452756Y356142D02*
D03*
Y361142D02*
D03*
Y366142D02*
D03*
X452756Y371142D02*
D03*
X452756Y376142D02*
D03*
Y381142D02*
D03*
Y386142D02*
D03*
X433858Y356142D02*
D03*
Y361142D02*
D03*
Y366142D02*
D03*
X433858Y371142D02*
D03*
X433858Y376142D02*
D03*
Y381142D02*
D03*
Y386142D02*
D03*
D29*
X423228Y382579D02*
D03*
Y387106D02*
D03*
X423150Y365846D02*
D03*
Y370374D02*
D03*
X423228Y348130D02*
D03*
Y352658D02*
D03*
D30*
X431102Y338976D02*
D03*
Y346063D02*
D03*
D31*
X453898Y397638D02*
D03*
X410512Y350394D02*
D03*
X410433Y368110D02*
D03*
X410512Y384842D02*
D03*
D32*
X443898Y397638D02*
D03*
X433898D02*
D03*
X400512Y350394D02*
D03*
X400433Y368110D02*
D03*
X400512Y384842D02*
D03*
X383858Y382047D02*
D03*
Y372047D02*
D03*
Y362047D02*
D03*
D33*
Y352047D02*
D03*
D34*
X486221Y393701D02*
D03*
X484252Y389764D02*
D03*
X486221Y385827D02*
D03*
X484252Y350394D02*
D03*
X486221Y346457D02*
D03*
X484252Y342520D02*
D03*
X486221Y338583D02*
D03*
X484252Y334646D02*
D03*
X482284Y393701D02*
D03*
X480315Y389764D02*
D03*
X482284Y385827D02*
D03*
X480315Y350394D02*
D03*
X482284Y346457D02*
D03*
X480315Y342520D02*
D03*
X482284Y338583D02*
D03*
X480315Y334646D02*
D03*
X478347Y393701D02*
D03*
X476378Y389764D02*
D03*
X478347Y385827D02*
D03*
X476378Y350394D02*
D03*
X478347Y346457D02*
D03*
X476378Y342520D02*
D03*
X478347Y338583D02*
D03*
X476378Y334646D02*
D03*
X474410Y393701D02*
D03*
X472441Y389764D02*
D03*
X474410Y385827D02*
D03*
X472441Y350394D02*
D03*
X474410Y346457D02*
D03*
X472441Y342520D02*
D03*
X474410Y338583D02*
D03*
X472441Y334646D02*
D03*
X470473Y393701D02*
D03*
X468504Y389764D02*
D03*
X470473Y385827D02*
D03*
X468504Y350394D02*
D03*
X470473Y346457D02*
D03*
X468504Y342520D02*
D03*
X470473Y338583D02*
D03*
X468504Y334646D02*
D03*
X464567Y397638D02*
D03*
X466536Y393701D02*
D03*
X464567Y389764D02*
D03*
X466536Y385827D02*
D03*
X464567Y350394D02*
D03*
X466536Y346457D02*
D03*
X464567Y342520D02*
D03*
X466536Y338583D02*
D03*
X464567Y334646D02*
D03*
X460630Y397638D02*
D03*
X462599Y393701D02*
D03*
X460630Y350394D02*
D03*
X462599Y346457D02*
D03*
X460630Y342520D02*
D03*
X462599Y338583D02*
D03*
X460630Y334646D02*
D03*
X458662Y401575D02*
D03*
X456693Y389764D02*
D03*
X458662Y362205D02*
D03*
X456693Y350394D02*
D03*
X458662Y346457D02*
D03*
X456693Y342520D02*
D03*
X458662Y338583D02*
D03*
X456693Y334646D02*
D03*
X454725Y346457D02*
D03*
Y338583D02*
D03*
X452756Y334646D02*
D03*
X448819Y397638D02*
D03*
Y389764D02*
D03*
Y334646D02*
D03*
X446851Y401575D02*
D03*
X444882Y389764D02*
D03*
X446851Y385827D02*
D03*
X444882Y381890D02*
D03*
X446851Y377953D02*
D03*
X444882Y374016D02*
D03*
X446851Y370079D02*
D03*
X444882Y366142D02*
D03*
X446851Y362205D02*
D03*
X444882Y358268D02*
D03*
Y334646D02*
D03*
X440945Y389764D02*
D03*
X442914Y385827D02*
D03*
X440945Y381890D02*
D03*
X442914Y377953D02*
D03*
X440945Y374016D02*
D03*
X442914Y370079D02*
D03*
X440945Y366142D02*
D03*
X442914Y362205D02*
D03*
X440945Y358268D02*
D03*
X442914Y354331D02*
D03*
X440945Y350394D02*
D03*
Y334646D02*
D03*
X438977Y401575D02*
D03*
Y393701D02*
D03*
X437008Y389764D02*
D03*
Y334646D02*
D03*
X433071Y389764D02*
D03*
Y334646D02*
D03*
X429134Y389764D02*
D03*
Y334646D02*
D03*
X427166Y401575D02*
D03*
X425197Y397638D02*
D03*
X427166Y393701D02*
D03*
X425197Y358268D02*
D03*
X427166Y346457D02*
D03*
X425197Y342520D02*
D03*
Y334646D02*
D03*
X421260Y397638D02*
D03*
X423229Y393701D02*
D03*
Y377953D02*
D03*
X421260Y374016D02*
D03*
Y358268D02*
D03*
Y342520D02*
D03*
X423229Y338583D02*
D03*
X419292Y393701D02*
D03*
Y385827D02*
D03*
Y377953D02*
D03*
X417323Y342520D02*
D03*
X415355Y393701D02*
D03*
X413386Y389764D02*
D03*
X415355Y385827D02*
D03*
Y377953D02*
D03*
X413386Y374016D02*
D03*
Y358268D02*
D03*
Y342520D02*
D03*
X411417Y393701D02*
D03*
X409449Y389764D02*
D03*
X411417Y377953D02*
D03*
X409449Y374016D02*
D03*
Y342520D02*
D03*
X407480Y393701D02*
D03*
X405512Y389764D02*
D03*
Y381890D02*
D03*
X407480Y377953D02*
D03*
X405512Y374016D02*
D03*
Y366142D02*
D03*
Y350394D02*
D03*
Y342520D02*
D03*
X403544Y393701D02*
D03*
Y377953D02*
D03*
X401575Y374016D02*
D03*
Y342520D02*
D03*
X399606Y393701D02*
D03*
X397638Y389764D02*
D03*
X399606Y377953D02*
D03*
X397638Y374016D02*
D03*
Y358268D02*
D03*
Y342520D02*
D03*
X395670Y393701D02*
D03*
X393701Y389764D02*
D03*
Y381890D02*
D03*
X395670Y377953D02*
D03*
X393701Y374016D02*
D03*
Y366142D02*
D03*
Y358268D02*
D03*
X395670Y346457D02*
D03*
X393701Y342520D02*
D03*
X391733Y393701D02*
D03*
X389764Y389764D02*
D03*
X391733Y385827D02*
D03*
X389764Y381890D02*
D03*
X391733Y377953D02*
D03*
X389764Y374016D02*
D03*
Y366142D02*
D03*
Y358268D02*
D03*
X391733Y346457D02*
D03*
X389764Y342520D02*
D03*
X387795Y393701D02*
D03*
X385827Y389764D02*
D03*
X387795Y385827D02*
D03*
Y377953D02*
D03*
Y346457D02*
D03*
X385827Y342520D02*
D03*
X383858Y393701D02*
D03*
X381890Y389764D02*
D03*
X383858Y346457D02*
D03*
X381890Y342520D02*
D03*
X379922Y393701D02*
D03*
X377953Y389764D02*
D03*
X379922Y385827D02*
D03*
X377953Y381890D02*
D03*
X379922Y377953D02*
D03*
X377953Y374016D02*
D03*
Y366142D02*
D03*
Y358268D02*
D03*
Y350394D02*
D03*
X379922Y346457D02*
D03*
X377953Y342520D02*
D03*
X435039Y350394D02*
D03*
X460630Y360236D02*
D03*
X458661Y368110D02*
D03*
X473352Y360667D02*
D03*
X468504Y377953D02*
D03*
X471974Y367644D02*
D03*
X417323Y387795D02*
D03*
Y370079D02*
D03*
X458661Y383858D02*
D03*
Y379921D02*
D03*
X454232Y349902D02*
D03*
X444882D02*
D03*
X428706Y373836D02*
D03*
M02*
