G04*
G04 #@! TF.GenerationSoftware,Altium Limited,Altium Designer,22.6.1 (34)*
G04*
G04 Layer_Physical_Order=2*
G04 Layer_Color=16711680*
%FSLAX25Y25*%
%MOIN*%
G70*
G04*
G04 #@! TF.SameCoordinates,6A0AF7E6-2655-45A2-AC58-E928B373DE11*
G04*
G04*
G04 #@! TF.FilePolarity,Positive*
G04*
G01*
G75*
%ADD11C,0.01575*%
%ADD12C,0.00787*%
%ADD31R,0.06299X0.06299*%
%ADD32C,0.06299*%
%ADD33R,0.06299X0.06299*%
%ADD34C,0.01968*%
G36*
X467860Y396993D02*
X468155Y396796D01*
X468504Y396727D01*
X487278D01*
Y331620D01*
X425574D01*
X417967Y339227D01*
X417671Y339424D01*
X417323Y339494D01*
X374927D01*
Y396727D01*
X417323D01*
X417671Y396796D01*
X417967Y396993D01*
X425574Y404601D01*
X460253D01*
X467860Y396993D01*
D02*
G37*
%LPC*%
G36*
X434444Y401787D02*
X434398D01*
Y398138D01*
X438047D01*
Y398184D01*
X437765Y399239D01*
X437218Y400186D01*
X436446Y400958D01*
X435499Y401505D01*
X434444Y401787D01*
D02*
G37*
G36*
X433398D02*
X433351D01*
X432296Y401505D01*
X431350Y400958D01*
X430577Y400186D01*
X430031Y399239D01*
X429748Y398184D01*
Y398138D01*
X433398D01*
Y401787D01*
D02*
G37*
G36*
X457547Y401287D02*
X450248D01*
Y393988D01*
X457547D01*
Y401287D01*
D02*
G37*
G36*
X444378D02*
X443417D01*
X442489Y401039D01*
X441657Y400558D01*
X440977Y399879D01*
X440497Y399046D01*
X440248Y398118D01*
Y397157D01*
X440497Y396229D01*
X440977Y395397D01*
X441657Y394717D01*
X442489Y394237D01*
X443417Y393988D01*
X444378D01*
X445306Y394237D01*
X446139Y394717D01*
X446818Y395397D01*
X447298Y396229D01*
X447547Y397157D01*
Y398118D01*
X447298Y399046D01*
X446818Y399879D01*
X446139Y400558D01*
X445306Y401039D01*
X444378Y401287D01*
D02*
G37*
G36*
X438047Y397138D02*
X434398D01*
Y393488D01*
X434444D01*
X435499Y393771D01*
X436446Y394317D01*
X437218Y395090D01*
X437765Y396036D01*
X438047Y397092D01*
Y397138D01*
D02*
G37*
G36*
X433398D02*
X429748D01*
Y397092D01*
X430031Y396036D01*
X430577Y395090D01*
X431350Y394317D01*
X432296Y393771D01*
X433351Y393488D01*
X433398D01*
Y397138D01*
D02*
G37*
G36*
X401058Y388992D02*
X401012D01*
Y385343D01*
X404661D01*
Y385389D01*
X404379Y386444D01*
X403832Y387390D01*
X403060Y388163D01*
X402113Y388709D01*
X401058Y388992D01*
D02*
G37*
G36*
X400012D02*
X399966D01*
X398910Y388709D01*
X397964Y388163D01*
X397191Y387390D01*
X396645Y386444D01*
X396362Y385389D01*
Y385343D01*
X400012D01*
Y388992D01*
D02*
G37*
G36*
X384405Y386197D02*
X384358D01*
Y382547D01*
X388008D01*
Y382594D01*
X387725Y383649D01*
X387179Y384595D01*
X386406Y385368D01*
X385460Y385914D01*
X384405Y386197D01*
D02*
G37*
G36*
X383358D02*
X383312D01*
X382257Y385914D01*
X381310Y385368D01*
X380538Y384595D01*
X379992Y383649D01*
X379709Y382594D01*
Y382547D01*
X383358D01*
Y386197D01*
D02*
G37*
G36*
X414161Y388492D02*
X406862D01*
Y381193D01*
X414161D01*
Y388492D01*
D02*
G37*
G36*
X404661Y384343D02*
X401012D01*
Y380693D01*
X401058D01*
X402113Y380976D01*
X403060Y381522D01*
X403832Y382295D01*
X404379Y383241D01*
X404661Y384296D01*
Y384343D01*
D02*
G37*
G36*
X400012D02*
X396362D01*
Y384296D01*
X396645Y383241D01*
X397191Y382295D01*
X397964Y381522D01*
X398910Y380976D01*
X399966Y380693D01*
X400012D01*
Y384343D01*
D02*
G37*
G36*
X388008Y381547D02*
X384358D01*
Y377898D01*
X384405D01*
X385460Y378180D01*
X386406Y378727D01*
X387179Y379499D01*
X387725Y380446D01*
X388008Y381501D01*
Y381547D01*
D02*
G37*
G36*
X383358D02*
X379709D01*
Y381501D01*
X379992Y380446D01*
X380538Y379499D01*
X381310Y378727D01*
X382257Y378180D01*
X383312Y377898D01*
X383358D01*
Y381547D01*
D02*
G37*
G36*
X400979Y372260D02*
X400933D01*
Y368610D01*
X404583D01*
Y368657D01*
X404300Y369712D01*
X403754Y370658D01*
X402981Y371431D01*
X402035Y371977D01*
X400979Y372260D01*
D02*
G37*
G36*
X399933D02*
X399887D01*
X398831Y371977D01*
X397885Y371431D01*
X397113Y370658D01*
X396566Y369712D01*
X396284Y368657D01*
Y368610D01*
X399933D01*
Y372260D01*
D02*
G37*
G36*
X384339Y375697D02*
X383378D01*
X382450Y375448D01*
X381617Y374968D01*
X380938Y374288D01*
X380457Y373456D01*
X380209Y372528D01*
Y371567D01*
X380457Y370638D01*
X380938Y369806D01*
X381617Y369127D01*
X382450Y368646D01*
X383378Y368398D01*
X384339D01*
X385267Y368646D01*
X386099Y369127D01*
X386779Y369806D01*
X387259Y370638D01*
X387508Y371567D01*
Y372528D01*
X387259Y373456D01*
X386779Y374288D01*
X386099Y374968D01*
X385267Y375448D01*
X384339Y375697D01*
D02*
G37*
G36*
X458957Y385343D02*
X458366D01*
X457821Y385117D01*
X457403Y384699D01*
X457232Y384285D01*
X453304Y380357D01*
X453020Y379931D01*
X452920Y379429D01*
Y351214D01*
X445591D01*
X445177Y351386D01*
X444587D01*
X444041Y351160D01*
X443624Y350742D01*
X443398Y350197D01*
Y349606D01*
X443624Y349061D01*
X444041Y348643D01*
X444587Y348417D01*
X445177D01*
X445591Y348589D01*
X453523D01*
X453937Y348417D01*
X454528D01*
X455073Y348643D01*
X455491Y349061D01*
X455717Y349606D01*
Y350197D01*
X455545Y350611D01*
Y378885D01*
X456677Y380018D01*
X457177Y379811D01*
Y379626D01*
X457403Y379081D01*
X457821Y378663D01*
X458366Y378437D01*
X458857D01*
X469003Y368291D01*
X469299Y368094D01*
X469647Y368024D01*
X469985D01*
X470490Y367520D01*
Y367348D01*
X470716Y366803D01*
X471134Y366385D01*
X471679Y366159D01*
X472270D01*
X472815Y366385D01*
X473233Y366803D01*
X473459Y367348D01*
Y367939D01*
X473233Y368484D01*
X472815Y368902D01*
X472270Y369128D01*
X471679D01*
X471524Y369063D01*
X471007Y369580D01*
X470712Y369777D01*
X470363Y369847D01*
X470025D01*
X460146Y379726D01*
Y380217D01*
X459920Y380762D01*
X459502Y381180D01*
X458957Y381405D01*
X458772D01*
X458565Y381906D01*
X459088Y382428D01*
X459502Y382600D01*
X459920Y383017D01*
X460146Y383563D01*
Y384154D01*
X459920Y384699D01*
X459502Y385117D01*
X458957Y385343D01*
D02*
G37*
G36*
X417618Y389280D02*
X417028D01*
X416482Y389054D01*
X416065Y388636D01*
X415839Y388090D01*
Y387500D01*
X416065Y386954D01*
X416412Y386607D01*
Y371267D01*
X416065Y370919D01*
X415839Y370374D01*
Y369783D01*
X416065Y369238D01*
X416412Y368891D01*
Y367814D01*
X414545Y365947D01*
X414083Y366139D01*
Y371760D01*
X406783D01*
Y364461D01*
X412405D01*
X412596Y363999D01*
X409138Y360540D01*
X404029D01*
X403680Y360471D01*
X403385Y360273D01*
X396070Y352958D01*
X387508D01*
Y355697D01*
X380209D01*
Y348398D01*
X387508D01*
Y351136D01*
X396212D01*
X396362Y350940D01*
Y350894D01*
X404661D01*
Y350940D01*
X404379Y351995D01*
X403832Y352942D01*
X403060Y353714D01*
X402113Y354260D01*
X401058Y354543D01*
X400885D01*
X400694Y355005D01*
X404406Y358718D01*
X409515D01*
X409864Y358787D01*
X410159Y358985D01*
X417967Y366793D01*
X418165Y367088D01*
X418234Y367437D01*
Y368891D01*
X418581Y369238D01*
X418807Y369783D01*
Y370374D01*
X418581Y370919D01*
X418234Y371267D01*
Y386607D01*
X418581Y386954D01*
X418807Y387500D01*
Y388090D01*
X418581Y388636D01*
X418164Y389054D01*
X417618Y389280D01*
D02*
G37*
G36*
X404583Y367610D02*
X400933D01*
Y363961D01*
X400979D01*
X402035Y364243D01*
X402981Y364790D01*
X403754Y365562D01*
X404300Y366509D01*
X404583Y367564D01*
Y367610D01*
D02*
G37*
G36*
X399933D02*
X396284D01*
Y367564D01*
X396566Y366509D01*
X397113Y365562D01*
X397885Y364790D01*
X398831Y364243D01*
X399887Y363961D01*
X399933D01*
Y367610D01*
D02*
G37*
G36*
X384339Y365697D02*
X383378D01*
X382450Y365448D01*
X381617Y364968D01*
X380938Y364288D01*
X380457Y363456D01*
X380209Y362528D01*
Y361567D01*
X380457Y360638D01*
X380938Y359806D01*
X381617Y359127D01*
X382450Y358646D01*
X383378Y358398D01*
X384339D01*
X385267Y358646D01*
X386099Y359127D01*
X386779Y359806D01*
X387259Y360638D01*
X387508Y361567D01*
Y362528D01*
X387259Y363456D01*
X386779Y364288D01*
X386099Y364968D01*
X385267Y365448D01*
X384339Y365697D01*
D02*
G37*
G36*
X429001Y375320D02*
X428410D01*
X427865Y375094D01*
X427447Y374676D01*
X427221Y374131D01*
Y373540D01*
X427447Y372995D01*
X427794Y372648D01*
Y368965D01*
X412873Y354043D01*
X406862D01*
Y346744D01*
X414161D01*
Y352755D01*
X429350Y367943D01*
X429548Y368239D01*
X429617Y368588D01*
Y372648D01*
X429964Y372995D01*
X430190Y373540D01*
Y374131D01*
X429964Y374676D01*
X429546Y375094D01*
X429001Y375320D01*
D02*
G37*
G36*
X404661Y349894D02*
X401012D01*
Y346244D01*
X401058D01*
X402113Y346527D01*
X403060Y347073D01*
X403832Y347846D01*
X404379Y348792D01*
X404661Y349847D01*
Y349894D01*
D02*
G37*
G36*
X400012D02*
X396362D01*
Y349847D01*
X396645Y348792D01*
X397191Y347846D01*
X397964Y347073D01*
X398910Y346527D01*
X399966Y346244D01*
X400012D01*
Y349894D01*
D02*
G37*
%LPD*%
D11*
X454232Y379429D02*
X458661Y383858D01*
X454232Y349902D02*
Y379429D01*
X444882Y349902D02*
X454232D01*
D12*
X458661Y379921D02*
X469647Y368935D01*
X471655Y367644D02*
X471974D01*
X469647Y368935D02*
X470363D01*
X471655Y367644D01*
X417323Y367437D02*
Y370079D01*
Y387795D01*
X410512Y350394D02*
X428706Y368588D01*
Y373836D01*
X396447Y352047D02*
X404029Y359629D01*
X409515D02*
X417323Y367437D01*
X404029Y359629D02*
X409515D01*
X383858Y352047D02*
X396447D01*
D31*
X453898Y397638D02*
D03*
X410512Y350394D02*
D03*
X410433Y368110D02*
D03*
X410512Y384842D02*
D03*
D32*
X443898Y397638D02*
D03*
X433898D02*
D03*
X400512Y350394D02*
D03*
X400433Y368110D02*
D03*
X400512Y384842D02*
D03*
X383858Y382047D02*
D03*
Y372047D02*
D03*
Y362047D02*
D03*
D33*
Y352047D02*
D03*
D34*
X486221Y393701D02*
D03*
X484252Y389764D02*
D03*
X486221Y385827D02*
D03*
X484252Y350394D02*
D03*
X486221Y346457D02*
D03*
X484252Y342520D02*
D03*
X486221Y338583D02*
D03*
X484252Y334646D02*
D03*
X482284Y393701D02*
D03*
X480315Y389764D02*
D03*
X482284Y385827D02*
D03*
X480315Y350394D02*
D03*
X482284Y346457D02*
D03*
X480315Y342520D02*
D03*
X482284Y338583D02*
D03*
X480315Y334646D02*
D03*
X478347Y393701D02*
D03*
X476378Y389764D02*
D03*
X478347Y385827D02*
D03*
X476378Y350394D02*
D03*
X478347Y346457D02*
D03*
X476378Y342520D02*
D03*
X478347Y338583D02*
D03*
X476378Y334646D02*
D03*
X474410Y393701D02*
D03*
X472441Y389764D02*
D03*
X474410Y385827D02*
D03*
X472441Y350394D02*
D03*
X474410Y346457D02*
D03*
X472441Y342520D02*
D03*
X474410Y338583D02*
D03*
X472441Y334646D02*
D03*
X470473Y393701D02*
D03*
X468504Y389764D02*
D03*
X470473Y385827D02*
D03*
X468504Y350394D02*
D03*
X470473Y346457D02*
D03*
X468504Y342520D02*
D03*
X470473Y338583D02*
D03*
X468504Y334646D02*
D03*
X464567Y397638D02*
D03*
X466536Y393701D02*
D03*
X464567Y389764D02*
D03*
X466536Y385827D02*
D03*
X464567Y350394D02*
D03*
X466536Y346457D02*
D03*
X464567Y342520D02*
D03*
X466536Y338583D02*
D03*
X464567Y334646D02*
D03*
X460630Y397638D02*
D03*
X462599Y393701D02*
D03*
X460630Y350394D02*
D03*
X462599Y346457D02*
D03*
X460630Y342520D02*
D03*
X462599Y338583D02*
D03*
X460630Y334646D02*
D03*
X458662Y401575D02*
D03*
X456693Y389764D02*
D03*
X458662Y362205D02*
D03*
X456693Y350394D02*
D03*
X458662Y346457D02*
D03*
X456693Y342520D02*
D03*
X458662Y338583D02*
D03*
X456693Y334646D02*
D03*
X454725Y346457D02*
D03*
Y338583D02*
D03*
X452756Y334646D02*
D03*
X448819Y397638D02*
D03*
Y389764D02*
D03*
Y334646D02*
D03*
X446851Y401575D02*
D03*
X444882Y389764D02*
D03*
X446851Y385827D02*
D03*
X444882Y381890D02*
D03*
X446851Y377953D02*
D03*
X444882Y374016D02*
D03*
X446851Y370079D02*
D03*
X444882Y366142D02*
D03*
X446851Y362205D02*
D03*
X444882Y358268D02*
D03*
Y334646D02*
D03*
X440945Y389764D02*
D03*
X442914Y385827D02*
D03*
X440945Y381890D02*
D03*
X442914Y377953D02*
D03*
X440945Y374016D02*
D03*
X442914Y370079D02*
D03*
X440945Y366142D02*
D03*
X442914Y362205D02*
D03*
X440945Y358268D02*
D03*
X442914Y354331D02*
D03*
X440945Y350394D02*
D03*
Y334646D02*
D03*
X438977Y401575D02*
D03*
Y393701D02*
D03*
X437008Y389764D02*
D03*
Y334646D02*
D03*
X433071Y389764D02*
D03*
Y334646D02*
D03*
X429134Y389764D02*
D03*
Y334646D02*
D03*
X427166Y401575D02*
D03*
X425197Y397638D02*
D03*
X427166Y393701D02*
D03*
X425197Y358268D02*
D03*
X427166Y346457D02*
D03*
X425197Y342520D02*
D03*
Y334646D02*
D03*
X421260Y397638D02*
D03*
X423229Y393701D02*
D03*
Y377953D02*
D03*
X421260Y374016D02*
D03*
Y358268D02*
D03*
Y342520D02*
D03*
X423229Y338583D02*
D03*
X419292Y393701D02*
D03*
Y385827D02*
D03*
Y377953D02*
D03*
X417323Y342520D02*
D03*
X415355Y393701D02*
D03*
X413386Y389764D02*
D03*
X415355Y385827D02*
D03*
Y377953D02*
D03*
X413386Y374016D02*
D03*
Y358268D02*
D03*
Y342520D02*
D03*
X411417Y393701D02*
D03*
X409449Y389764D02*
D03*
X411417Y377953D02*
D03*
X409449Y374016D02*
D03*
Y342520D02*
D03*
X407480Y393701D02*
D03*
X405512Y389764D02*
D03*
Y381890D02*
D03*
X407480Y377953D02*
D03*
X405512Y374016D02*
D03*
Y366142D02*
D03*
Y350394D02*
D03*
Y342520D02*
D03*
X403544Y393701D02*
D03*
Y377953D02*
D03*
X401575Y374016D02*
D03*
Y342520D02*
D03*
X399606Y393701D02*
D03*
X397638Y389764D02*
D03*
X399606Y377953D02*
D03*
X397638Y374016D02*
D03*
Y358268D02*
D03*
Y342520D02*
D03*
X395670Y393701D02*
D03*
X393701Y389764D02*
D03*
Y381890D02*
D03*
X395670Y377953D02*
D03*
X393701Y374016D02*
D03*
Y366142D02*
D03*
Y358268D02*
D03*
X395670Y346457D02*
D03*
X393701Y342520D02*
D03*
X391733Y393701D02*
D03*
X389764Y389764D02*
D03*
X391733Y385827D02*
D03*
X389764Y381890D02*
D03*
X391733Y377953D02*
D03*
X389764Y374016D02*
D03*
Y366142D02*
D03*
Y358268D02*
D03*
X391733Y346457D02*
D03*
X389764Y342520D02*
D03*
X387795Y393701D02*
D03*
X385827Y389764D02*
D03*
X387795Y385827D02*
D03*
Y377953D02*
D03*
Y346457D02*
D03*
X385827Y342520D02*
D03*
X383858Y393701D02*
D03*
X381890Y389764D02*
D03*
X383858Y346457D02*
D03*
X381890Y342520D02*
D03*
X379922Y393701D02*
D03*
X377953Y389764D02*
D03*
X379922Y385827D02*
D03*
X377953Y381890D02*
D03*
X379922Y377953D02*
D03*
X377953Y374016D02*
D03*
Y366142D02*
D03*
Y358268D02*
D03*
Y350394D02*
D03*
X379922Y346457D02*
D03*
X377953Y342520D02*
D03*
X435039Y350394D02*
D03*
X460630Y360236D02*
D03*
X458661Y368110D02*
D03*
X473352Y360667D02*
D03*
X468504Y377953D02*
D03*
X471974Y367644D02*
D03*
X417323Y387795D02*
D03*
Y370079D02*
D03*
X458661Y383858D02*
D03*
Y379921D02*
D03*
X454232Y349902D02*
D03*
X444882D02*
D03*
X428706Y373836D02*
D03*
M02*
